<svg width="299" height="204" viewBox="0 0 299 204" fill="none" xmlns="http://www.w3.org/2000/svg">
<rect width="63.1888" height="21.3604" transform="translate(227.182 14.5714)" fill="#FEFDF9"/>
<g clip-path="url(#clip0_5282_1190)">
<path d="M238.015 30.8529C237.53 30.8366 237.045 30.7979 236.565 30.7325C236.202 30.6834 235.812 30.6046 235.549 30.3279C235.282 30.0453 235.119 29.6735 235.044 29.2957C234.989 29.0221 234.962 28.7469 234.962 28.4673L234.98 24.4859L237.292 24.4308V23.0283H234.98L234.997 19.9824H233.65C233.565 20.4077 233.397 21.312 233.149 21.7002C232.9 22.0884 232.6 22.4037 232.247 22.6476C231.895 22.89 231.531 23.0179 231.154 23.0298V24.5409H232.392L232.356 28.4316C232.356 29.1961 232.435 29.8089 232.593 30.2699C232.75 30.731 232.963 31.0805 233.229 31.317C233.629 31.6159 234.062 31.8107 234.557 31.8732C235.103 31.9416 235.652 31.9624 236.202 31.9565C236.393 31.955 236.583 31.9595 236.772 31.9595C236.816 31.9595 236.892 31.9595 236.938 31.9595C237.15 31.9595 237.33 31.9595 237.541 31.9595H237.999V31.6828C237.997 31.4077 238.03 31.1281 238.014 30.8544L238.015 30.8529Z" fill="#132638"/>
<path d="M246.065 22.8795C245.767 22.6609 245.424 22.5523 245.035 22.5523C244.695 22.5523 244.365 22.6222 244.043 22.762C243.722 22.9018 243.41 23.1026 243.106 23.3629C242.803 23.6246 242.511 23.937 242.232 24.2999C242.232 23.9846 242.226 23.6693 242.214 23.3525C242.202 23.0372 242.184 22.8066 242.159 22.6609H241.394C241.261 22.7828 241.03 22.9003 240.703 23.0163C240.376 23.1323 239.968 23.1889 239.483 23.1889H238.81V24.3534C238.967 24.3415 239.168 24.3326 239.41 24.3266C239.653 24.3207 239.877 24.3118 240.084 24.2999C240.06 24.5542 240.041 24.8041 240.029 25.0465C240.017 25.2889 240.011 25.5194 240.011 25.7381V29.1603C240.011 29.5128 239.993 29.8281 239.956 30.1077C239.921 30.3873 239.828 30.603 239.683 30.7547C239.537 30.9064 239.288 30.9822 238.936 30.9822V31.9475H243.361V30.7829C243.215 30.7829 243.033 30.7859 242.815 30.7919C242.596 30.7978 242.389 30.8127 242.196 30.838C242.22 30.5836 242.238 30.3189 242.251 30.0452C242.263 29.7716 242.269 29.5381 242.269 29.3447L242.251 25.8853C242.372 25.5938 242.543 25.3082 242.761 25.0301C242.98 24.7505 243.225 24.514 243.499 24.3207C243.773 24.1273 244.036 24.0351 244.292 24.047C244.304 24.4114 244.423 24.6747 244.647 24.8398C244.872 25.0034 245.111 25.0852 245.366 25.0852C245.645 25.0852 245.867 25.0242 246.03 24.9037C246.194 24.7832 246.316 24.63 246.395 24.4486C246.474 24.2671 246.514 24.0961 246.514 23.9385C246.514 23.4536 246.365 23.1011 246.068 22.8825L246.065 22.8795Z" fill="#132638"/>
<path d="M249.527 20.9844C249.842 20.9844 250.107 20.8654 250.318 20.6289C250.531 20.3925 250.636 20.1039 250.636 19.7633C250.636 19.4227 250.529 19.1357 250.318 18.8992C250.105 18.6627 249.842 18.5438 249.527 18.5438C249.235 18.5438 248.974 18.6627 248.744 18.8992C248.514 19.1357 248.398 19.4242 248.398 19.7633C248.398 20.1024 248.507 20.391 248.725 20.6289C248.944 20.8654 249.21 20.9844 249.527 20.9844Z" fill="#132638"/>
<path d="M250.317 31.0358C250.34 30.8053 250.358 30.5777 250.372 30.3531C250.384 30.1285 250.39 29.9069 250.39 29.6883V22.6609H249.698C249.613 22.7457 249.482 22.8245 249.307 22.8974C249.131 22.9702 248.881 23.0342 248.56 23.0892C248.239 23.1443 247.805 23.171 247.259 23.171V24.1363C247.452 24.1244 247.665 24.1155 247.895 24.1095C248.126 24.1036 248.345 24.0946 248.551 24.0827C248.527 24.3252 248.508 24.5527 248.496 24.7654C248.484 24.9781 248.478 25.1878 248.478 25.393V29.1618C248.478 29.5619 248.463 29.9144 248.432 30.2178C248.403 30.5212 248.313 30.7577 248.168 30.9272C248.022 31.0968 247.767 31.1815 247.403 31.1815V31.946H251.463V30.9808C251.294 30.9927 251.108 31.0016 250.909 31.0075C250.708 31.0135 250.511 31.0224 250.317 31.0343V31.0358Z" fill="#132638"/>
<path d="M266.168 31.2543C266.205 31.0475 266.226 30.8512 266.232 30.6623C266.238 30.4749 266.241 30.2593 266.241 30.0153L266.259 26.6288C266.283 25.1846 266.046 24.1435 265.549 23.507C265.051 22.8704 264.275 22.5507 263.219 22.5507C262.697 22.5507 262.166 22.6696 261.626 22.9061C261.086 23.1426 260.609 23.4311 260.197 23.7702C259.966 23.3939 259.645 23.0965 259.231 22.8779C258.818 22.6592 258.309 22.5507 257.702 22.5507C257.23 22.5507 256.755 22.6503 256.282 22.8511C255.809 23.0519 255.39 23.3092 255.025 23.6245C255.013 23.4177 255.005 23.2363 254.999 23.0786C254.993 22.921 254.978 22.7812 254.952 22.6592H254.424C254.34 22.744 254.23 22.8228 254.097 22.8957C253.963 22.9686 253.761 23.0296 253.488 23.0772C253.214 23.1262 252.811 23.15 252.277 23.15V23.9145C252.495 23.9026 252.711 23.8907 252.924 23.8788C253.137 23.8669 253.352 23.855 253.571 23.8431C253.534 24.0498 253.513 24.2506 253.507 24.444C253.501 24.6388 253.498 24.8322 253.498 25.027V29.178C253.498 29.6153 253.486 30.0005 253.462 30.3336C253.438 30.6683 253.354 30.9285 253.208 31.1159C253.062 31.3048 252.802 31.3985 252.426 31.3985V31.9444H256.139V31.1977C255.945 31.2096 255.754 31.2186 255.565 31.2245C255.376 31.2305 255.186 31.2394 254.991 31.2513C255.028 31.0445 255.049 30.8482 255.055 30.6593C255.061 30.4719 255.064 30.2563 255.064 30.0124V25.3334C255.064 25.1519 255.061 24.9779 255.055 24.8143C255.049 24.6507 255.046 24.496 255.046 24.3503C255.301 24.0959 255.611 23.8862 255.974 23.7226C256.339 23.559 256.709 23.4772 257.085 23.4772C257.801 23.4653 258.317 23.7256 258.634 24.2595C258.949 24.7935 259.101 25.5832 259.089 26.6258L259.071 29.175C259.071 29.6123 259.056 29.9975 259.025 30.3306C258.995 30.6653 258.909 30.9256 258.77 31.113C258.631 31.3018 258.373 31.3955 257.997 31.3955V31.9414H261.711V31.1948C261.516 31.2067 261.325 31.2156 261.137 31.2215C260.948 31.2275 260.757 31.2364 260.563 31.2483C260.6 31.0416 260.621 30.8452 260.626 30.6564C260.632 30.469 260.635 30.2533 260.635 30.0094C260.647 29.294 260.653 28.5771 260.653 27.8603C260.653 27.1434 260.659 26.434 260.671 25.7305C260.671 25.488 260.656 25.2545 260.625 25.03C260.595 24.8054 260.549 24.5957 260.488 24.4023C260.768 24.148 261.095 23.9353 261.471 23.7658C261.848 23.5962 262.224 23.5114 262.6 23.5114C263.315 23.4995 263.84 23.7539 264.175 24.2759C264.508 24.7979 264.676 25.5803 264.676 26.6243V29.1735C264.676 29.6108 264.664 29.996 264.641 30.3292C264.617 30.6638 264.532 30.9241 264.386 31.1115C264.241 31.3004 263.98 31.3941 263.604 31.3941V31.9399H269.257V31.1933C269.062 31.2052 268.872 31.2141 268.683 31.22C268.494 31.226 266.364 31.2349 266.171 31.2468L266.168 31.2543Z" fill="#132638"/>
<path d="M276.745 22.8093C276.513 22.6427 276.237 22.5594 275.926 22.5594C275.511 22.5594 275.109 22.6531 274.733 22.8375C274.351 23.0264 274.003 23.2644 273.698 23.5455C273.393 23.8266 273.149 24.1181 272.974 24.4096L272.755 24.774L272.743 24.3486C272.731 23.9188 272.719 23.5544 272.707 23.2673C272.697 23.0383 272.684 22.8375 272.666 22.668H272.295C272.16 22.784 271.995 22.8925 271.805 22.9907C271.584 23.1037 271.211 23.1588 270.664 23.1588H270.224V23.6496C270.399 23.6406 270.572 23.6347 270.743 23.6287C270.954 23.6228 271.17 23.6139 271.385 23.602L271.541 23.5931L271.515 23.7477C271.479 23.9485 271.458 24.1433 271.452 24.3307C271.446 24.5167 271.443 24.7115 271.443 24.9093V28.8253C271.443 29.2626 271.431 29.6537 271.406 29.9899C271.379 30.3468 271.286 30.6339 271.125 30.8406C270.973 31.0369 270.719 31.147 270.368 31.1678V31.9442H273.851V31.2184C273.701 31.2273 273.552 31.2332 273.406 31.2377C273.219 31.2436 273.027 31.2526 272.837 31.2645L272.679 31.2749L272.706 31.1187C272.742 30.9209 272.762 30.7276 272.768 30.5446C272.774 30.3557 272.777 30.1386 272.777 29.9021L272.759 25.4194V25.3867L272.774 25.3585C272.997 24.9509 273.255 24.5895 273.539 24.2861C273.826 23.9797 274.14 23.7358 274.473 23.5603C274.79 23.3923 275.105 23.3075 275.408 23.3075C275.431 23.3075 275.451 23.3075 275.474 23.3075L275.611 23.3134L275.593 23.4488C275.562 23.6838 275.612 23.8816 275.749 24.0556C275.884 24.2266 276.061 24.3159 276.292 24.3263C276.479 24.3263 276.631 24.2832 276.741 24.1969C276.857 24.1077 276.942 24.0021 276.994 23.8816C277.047 23.7581 277.074 23.6555 277.074 23.5767C277.074 23.2153 276.965 22.9624 276.744 22.8033L276.745 22.8093Z" fill="#132638"/>
<path d="M285.776 31.6065L285.66 31.6154L285.602 31.5084C285.473 31.2719 285.344 31.0651 285.216 30.8926C285.085 30.7156 284.949 30.5268 284.814 30.3289L282.305 27.0212L282.208 26.8948L282.307 26.7699L283.709 24.9881C284.038 24.5613 284.317 24.2103 284.542 23.947C284.775 23.6719 285.018 23.4458 285.26 23.2747C285.473 23.126 285.726 22.9996 286.014 22.8985V22.662H283.401V23.0472L284.46 22.9818L284.949 22.952L284.603 23.3209C284.487 23.4443 284.368 23.5856 284.252 23.7403C284.13 23.9024 283.981 24.0957 283.794 24.3337L282.137 26.4635L281.984 26.6598L281.843 26.4546L280.787 24.9241C280.29 24.1969 280.099 23.709 280.184 23.3878C280.294 22.9684 280.787 22.8776 281.096 22.8538V22.662H277.718V23.0502L278.38 23.0204L278.514 23.0145L278.562 23.1483C278.62 23.309 278.715 23.5231 278.844 23.7864C278.972 24.0467 279.18 24.3813 279.463 24.7814C279.586 24.939 279.756 25.18 279.969 25.4953C280.178 25.8076 280.407 26.1393 280.648 26.4784C280.88 26.8056 281.088 27.1015 281.268 27.3618L281.352 27.4823L281.265 27.6013L279.445 30.1192C279.101 30.5892 278.814 30.9506 278.593 31.1916C278.38 31.4251 278.098 31.6006 277.754 31.7166V31.9501H280.44V31.5604L279.232 31.611L278.777 31.6303L279.088 31.2778C279.264 31.0785 279.402 30.9134 279.497 30.7855C279.594 30.6576 279.734 30.4628 279.912 30.21L281.439 27.985L281.582 27.7768L281.735 27.9775L283.647 30.4955C283.968 30.9179 284.029 31.2496 283.83 31.4801C283.697 31.6348 283.502 31.727 283.251 31.7567V31.9516H286.392V31.5679L285.772 31.6125L285.776 31.6065Z" fill="#132638"/>
</g>
<rect width="86.3319" height="29.1837" transform="translate(205.026 9)" fill="#FEFDF9"/>
<g clip-path="url(#clip1_5282_1190)">
<path d="M219.827 31.2447C219.165 31.2224 218.502 31.1695 217.846 31.0801C217.35 31.0131 216.818 30.9054 216.458 30.5274C216.092 30.1413 215.871 29.6333 215.767 29.1172C215.692 28.7433 215.656 28.3674 215.656 27.9854L215.68 22.5457L218.84 22.4705V20.5543H215.68L215.704 16.3928H213.863C213.747 16.9739 213.518 18.2094 213.179 18.7397C212.839 19.2701 212.429 19.7009 211.947 20.0341C211.466 20.3653 210.968 20.5401 210.454 20.5563V22.6209H212.144L212.095 27.9366C212.095 28.981 212.203 29.8182 212.419 30.4482C212.634 31.0781 212.925 31.5556 213.288 31.8787C213.835 32.2871 214.426 32.5533 215.103 32.6387C215.849 32.7321 216.598 32.7606 217.35 32.7525C217.61 32.7504 217.87 32.7565 218.129 32.7565C218.189 32.7565 218.293 32.7565 218.356 32.7565C218.645 32.7565 218.891 32.7565 219.179 32.7565H219.805V32.3786C219.803 32.0026 219.848 31.6206 219.825 31.2467L219.827 31.2447Z" fill="#132638"/>
<path d="M230.824 20.351C230.418 20.0523 229.948 19.9039 229.418 19.9039C228.953 19.9039 228.502 19.9994 228.063 20.1904C227.624 20.3815 227.197 20.6558 226.783 21.0114C226.368 21.369 225.97 21.7957 225.588 22.2915C225.588 21.8608 225.58 21.43 225.563 20.9972C225.547 20.5664 225.523 20.2514 225.488 20.0523H224.444C224.261 20.2189 223.946 20.3794 223.499 20.5379C223.052 20.6964 222.495 20.7736 221.833 20.7736H220.912V22.3647C221.128 22.3484 221.402 22.3362 221.733 22.3281C222.064 22.32 222.371 22.3078 222.654 22.2915C222.621 22.639 222.595 22.9804 222.578 23.3116C222.562 23.6428 222.554 23.9578 222.554 24.2565V28.9321C222.554 29.4137 222.53 29.8445 222.479 30.2265C222.43 30.6085 222.304 30.9032 222.105 31.1105C221.906 31.3177 221.566 31.4213 221.085 31.4213V32.7401H227.13V31.1491C226.931 31.1491 226.683 31.1531 226.384 31.1613C226.086 31.1694 225.803 31.1897 225.539 31.2242C225.572 30.8768 225.596 30.5151 225.614 30.1412C225.63 29.7673 225.639 29.4483 225.639 29.1841L225.614 24.4577C225.779 24.0594 226.012 23.6692 226.311 23.2893C226.61 22.9072 226.945 22.5841 227.319 22.32C227.693 22.0558 228.053 21.9298 228.402 21.9461C228.418 22.4439 228.581 22.8036 228.888 23.0292C229.195 23.2527 229.522 23.3644 229.869 23.3644C230.251 23.3644 230.554 23.2811 230.778 23.1165C231.001 22.9519 231.168 22.7426 231.275 22.4947C231.383 22.2468 231.438 22.0132 231.438 21.7978C231.438 21.1353 231.235 20.6537 230.828 20.355L230.824 20.351Z" fill="#132638"/>
<path d="M235.555 17.7618C235.986 17.7618 236.347 17.5992 236.636 17.2761C236.927 16.953 237.071 16.5588 237.071 16.0935C237.071 15.6282 236.925 15.236 236.636 14.9129C236.345 14.5898 235.986 14.4272 235.555 14.4272C235.157 14.4272 234.799 14.5898 234.486 14.9129C234.171 15.236 234.013 15.6302 234.013 16.0935C234.013 16.5568 234.161 16.951 234.46 17.2761C234.758 17.5992 235.122 17.7618 235.555 17.7618Z" fill="#132638"/>
<path d="M236.634 31.4945C236.666 31.1796 236.691 30.8687 236.709 30.5618C236.725 30.255 236.733 29.9522 236.733 29.6535V20.0523H235.789C235.673 20.1681 235.494 20.2758 235.254 20.3754C235.014 20.475 234.673 20.5623 234.234 20.6375C233.795 20.7127 233.202 20.7493 232.456 20.7493V22.0681C232.72 22.0518 233.011 22.0396 233.326 22.0315C233.641 22.0234 233.939 22.0112 234.222 21.9949C234.189 22.3261 234.163 22.637 234.147 22.9276C234.13 23.2182 234.122 23.5047 234.122 23.7851V28.9342C234.122 29.4808 234.102 29.9624 234.059 30.3769C234.019 30.7915 233.897 31.1146 233.698 31.3462C233.498 31.5779 233.151 31.6937 232.653 31.6937V32.7381H238.201V31.4194C237.969 31.4356 237.715 31.4478 237.443 31.4559C237.168 31.4641 236.9 31.4763 236.634 31.4925V31.4945Z" fill="#132638"/>
<path d="M258.291 31.793C258.342 31.5105 258.37 31.2423 258.378 30.9842C258.386 30.7282 258.391 30.4336 258.391 30.1003L258.415 25.4734C258.447 23.5004 258.124 22.078 257.446 21.2083C256.765 20.3386 255.704 19.9017 254.261 19.9017C253.548 19.9017 252.823 20.0642 252.085 20.3873C251.348 20.7104 250.695 21.1046 250.132 21.5679C249.817 21.0538 249.379 20.6474 248.814 20.3487C248.249 20.05 247.554 19.9017 246.725 19.9017C246.079 19.9017 245.43 20.0378 244.784 20.3121C244.138 20.5865 243.565 20.938 243.067 21.3688C243.051 21.0863 243.039 20.8384 243.031 20.623C243.022 20.4076 243.002 20.2166 242.968 20.05H242.246C242.13 20.1658 241.98 20.2735 241.799 20.3731C241.616 20.4727 241.34 20.556 240.966 20.621C240.592 20.6881 240.042 20.7206 239.312 20.7206V21.765C239.611 21.7488 239.905 21.7325 240.196 21.7163C240.487 21.7 240.781 21.6837 241.08 21.6675C241.029 21.9499 241.001 22.2243 240.992 22.4884C240.984 22.7546 240.98 23.0188 240.98 23.285V28.9563C240.98 29.5537 240.964 30.08 240.932 30.5352C240.899 30.9924 240.783 31.348 240.584 31.604C240.385 31.8621 240.029 31.9901 239.515 31.9901V32.7358H244.589V31.7158C244.323 31.732 244.063 31.7442 243.805 31.7523C243.547 31.7605 243.287 31.7727 243.02 31.7889C243.071 31.5065 243.1 31.2382 243.108 30.9802C243.116 30.7241 243.12 30.4295 243.12 30.0963V23.7036C243.12 23.4557 243.116 23.2179 243.108 22.9944C243.1 22.7709 243.096 22.5595 243.096 22.3604C243.443 22.0129 243.868 21.7264 244.364 21.5029C244.861 21.2794 245.367 21.1676 245.881 21.1676C246.859 21.1514 247.564 21.507 247.997 22.2364C248.428 22.9659 248.635 24.0449 248.619 25.4694L248.594 28.9522C248.594 29.5496 248.574 30.0759 248.531 30.5311C248.491 30.9883 248.373 31.3439 248.184 31.5999C247.993 31.858 247.641 31.986 247.127 31.986V32.7318H252.201V31.7117C251.935 31.728 251.675 31.7401 251.417 31.7483C251.159 31.7564 250.899 31.7686 250.632 31.7849C250.683 31.5024 250.712 31.2342 250.72 30.9761C250.728 30.7201 250.732 30.4254 250.732 30.0922C250.748 29.1148 250.756 28.1354 250.756 27.1559C250.756 26.1765 250.764 25.2072 250.781 24.2461C250.781 23.9149 250.76 23.5959 250.718 23.289C250.677 22.9822 250.614 22.6957 250.531 22.4315C250.913 22.084 251.36 21.7935 251.874 21.5618C252.388 21.3302 252.902 21.2143 253.416 21.2143C254.394 21.1981 255.111 21.5456 255.568 22.2588C256.023 22.972 256.253 24.0409 256.253 25.4673V28.9502C256.253 29.5476 256.237 30.0739 256.204 30.5291C256.172 30.9863 256.056 31.3419 255.857 31.5979C255.657 31.856 255.302 31.984 254.788 31.984V32.7297H262.511V31.7097C262.245 31.7259 261.985 31.7381 261.727 31.7462C261.469 31.7544 258.559 31.7666 258.295 31.7828L258.291 31.793Z" fill="#132638"/>
<path d="M272.743 20.255C272.426 20.0274 272.048 19.9136 271.623 19.9136C271.056 19.9136 270.508 20.0417 269.994 20.2936C269.471 20.5517 268.996 20.8768 268.579 21.2609C268.163 21.6449 267.829 22.0432 267.59 22.4415L267.291 22.9393L267.275 22.3581C267.258 21.7709 267.242 21.273 267.226 20.8809C267.212 20.5679 267.193 20.2936 267.169 20.062H266.663C266.478 20.2205 266.253 20.3688 265.993 20.5029C265.692 20.6573 265.182 20.7325 264.434 20.7325H263.833V21.4031C264.072 21.3909 264.308 21.3828 264.542 21.3746C264.83 21.3665 265.125 21.3543 265.42 21.3381L265.633 21.3259L265.596 21.5372C265.548 21.8115 265.519 22.0777 265.511 22.3338C265.503 22.5878 265.499 22.854 265.499 23.1242V28.4745C265.499 29.0719 265.483 29.6063 265.448 30.0655C265.411 30.5532 265.283 30.9454 265.064 31.2279C264.857 31.4961 264.509 31.6464 264.03 31.6749V32.7356H268.789V31.744C268.583 31.7562 268.38 31.7643 268.181 31.7704C267.925 31.7785 267.663 31.7907 267.403 31.807L267.187 31.8212L267.224 31.6078C267.273 31.3376 267.301 31.0734 267.309 30.8235C267.317 30.5654 267.321 30.2687 267.321 29.9457L267.297 23.8212V23.7765L267.317 23.7379C267.622 23.1811 267.974 22.6873 268.362 22.2728C268.754 21.8542 269.183 21.521 269.638 21.2812C270.071 21.0516 270.502 20.9357 270.916 20.9357C270.947 20.9357 270.975 20.9357 271.006 20.9357L271.192 20.9439L271.168 21.1288C271.125 21.4498 271.194 21.7201 271.381 21.9578C271.566 22.1915 271.808 22.3134 272.123 22.3277C272.379 22.3277 272.586 22.2687 272.737 22.1509C272.895 22.029 273.011 21.8847 273.082 21.7201C273.155 21.5514 273.192 21.4112 273.192 21.3035C273.192 20.8098 273.044 20.4643 272.741 20.2469L272.743 20.255Z" fill="#132638"/>
<path d="M285.081 32.2743L284.923 32.2865L284.843 32.1402C284.667 31.8171 284.49 31.5347 284.315 31.299C284.136 31.0572 283.951 30.7991 283.766 30.5288L280.338 26.0096L280.206 25.8369L280.341 25.6662L282.257 23.2319C282.706 22.6487 283.088 22.1692 283.395 21.8095C283.714 21.4336 284.045 21.1247 284.376 20.891C284.667 20.6878 285.012 20.5151 285.406 20.3769V20.0538H281.836V20.5801L283.283 20.4907L283.951 20.4501L283.478 20.954C283.319 21.1227 283.157 21.3157 282.998 21.527C282.832 21.7485 282.629 22.0127 282.373 22.3378L280.109 25.2476L279.9 25.5159L279.707 25.2355L278.264 23.1445C277.585 22.1509 277.325 21.4844 277.441 21.0455C277.591 20.4724 278.264 20.3485 278.686 20.316V20.0538H274.072V20.5842L274.976 20.5435L275.159 20.5354L275.224 20.7183C275.303 20.9378 275.433 21.2304 275.61 21.59C275.785 21.9456 276.069 22.4028 276.455 22.9494C276.624 23.1648 276.856 23.494 277.146 23.9248C277.433 24.3515 277.746 24.8047 278.075 25.268C278.392 25.715 278.676 26.1194 278.922 26.475L279.036 26.6396L278.918 26.8021L276.431 30.2423C275.962 30.8844 275.569 31.3782 275.267 31.7074C274.976 32.0264 274.59 32.2662 274.121 32.4247V32.7437H277.79V32.2113L276.14 32.2804L275.519 32.3068L275.943 31.8253C276.183 31.553 276.372 31.3274 276.502 31.1527C276.634 30.9779 276.825 30.7117 277.069 30.3663L279.156 27.3264L279.351 27.0419L279.56 27.3162L282.171 30.7564C282.61 31.3335 282.694 31.7866 282.421 32.1016C282.24 32.3129 281.974 32.4389 281.631 32.4796V32.7458H285.922V32.2215L285.075 32.2825L285.081 32.2743Z" fill="#132638"/>
</g>
<path opacity="0.8" d="M187.441 40.4023L13.9089 40.4023" stroke="#AAD6FF" stroke-width="0.662338" stroke-linecap="round" stroke-dasharray="5.3 5.3"/>
<mask id="mask0_5282_1190" style="mask-type:alpha" maskUnits="userSpaceOnUse" x="31" y="40" width="259" height="115">
<path d="M194.239 41.7275H288.117L286.119 153.663H33.1167V143.396C36.3347 142.844 49.4287 143.396 72.0658 143.396C99.6963 145.383 115.121 127.831 122.001 119.221C123.443 116.903 130.922 105.312 149.298 77.4938C167.674 49.6756 186.916 42.0587 194.239 41.7275Z" fill="black" stroke="black" stroke-width="2.64935" stroke-linecap="round"/>
</mask>
<g mask="url(#mask0_5282_1190)">
<rect x="33.1167" y="40.4023" width="255" height="113.26" fill="url(#paint0_linear_5282_1190)"/>
</g>
<path opacity="0.8" d="M147.039 78.8182L15.8962 78.8182" stroke="#AAD6FF" stroke-width="0.662338" stroke-linecap="round" stroke-dasharray="5.3 5.3"/>
<line x1="14.5715" y1="153.662" x2="287.455" y2="153.662" stroke="#5EA7ED" stroke-width="1.32468" stroke-linecap="round"/>
<path d="M33.585 20.0641C33.3264 19.8055 32.907 19.8055 32.6484 20.0641L28.4333 24.2792C28.1746 24.5379 28.1746 24.9572 28.4333 25.2159C28.6919 25.4746 29.1113 25.4746 29.37 25.2159L33.1167 21.4692L36.8634 25.2159C37.1221 25.4746 37.5415 25.4746 37.8001 25.2159C38.0588 24.9572 38.0588 24.5379 37.8001 24.2792L33.585 20.0641ZM32.4544 153.662C32.4544 154.028 32.7509 154.325 33.1167 154.325C33.4825 154.325 33.779 154.028 33.779 153.662L33.1167 153.662L32.4544 153.662ZM33.1167 20.5325L32.4544 20.5325L32.4544 153.662L33.1167 153.662L33.779 153.662L33.779 20.5325L33.1167 20.5325Z" fill="#5C97CE"/>
<path opacity="0.8" d="M284.143 115.909L15.8958 115.909" stroke="#AAD6FF" stroke-width="0.662338" stroke-linecap="round" stroke-dasharray="5.3 5.3"/>
<path d="M12.5845 144.23H76.1689C96.039 142.574 107.961 134.626 120.214 120.386C133.792 104.606 143.451 86.7574 151.344 74.6847C162.604 57.4639 171.214 43.0519 193.071 43.0519" stroke="#5C97CE" stroke-width="2.64935" stroke-linecap="round"/>
<circle cx="69.2141" cy="143.396" r="5.2987" fill="#FFFBF5" stroke="#5C97CE" stroke-width="1.98701"/>
<path d="M55.7628 63.1592C55.3276 62.1615 54.8925 61.1639 54.4573 60.1662C54.0222 59.1686 53.5923 58.1656 53.1678 57.1574C53.0405 56.8602 52.9078 56.5365 52.7698 56.1862C52.6318 55.836 52.4939 55.4645 52.3559 55.0718C52.2179 54.6791 52.0853 54.2811 51.9579 53.8778C51.9579 54.1538 51.9579 54.4191 51.9579 54.6738C51.9579 54.9286 51.9579 55.1727 51.9579 55.4062C51.9473 55.7352 51.9367 56.1226 51.9261 56.5683C51.9154 57.0035 51.8995 57.4651 51.8783 57.9534C51.8677 58.4416 51.8571 58.9298 51.8465 59.418C51.8465 59.8956 51.8411 60.3573 51.8305 60.803C51.8305 61.0578 51.8252 61.3072 51.8146 61.5513C51.804 61.7954 51.7881 62.0077 51.7669 62.1881C51.9579 62.1669 52.1595 62.1562 52.3718 62.1562C52.5947 62.1456 52.791 62.135 52.9609 62.1244V63H49.7291V62.2995C50.0263 62.2889 50.2545 62.2305 50.4137 62.1244C50.5729 62.0183 50.679 61.8591 50.7321 61.6468C50.7957 61.4345 50.8329 61.1745 50.8435 60.8667L51.0664 53.9893C51.077 53.7558 51.0876 53.5223 51.0982 53.2888C51.1088 53.0553 51.1194 52.8483 51.1301 52.6679C50.939 52.6785 50.7374 52.6891 50.5251 52.6998C50.3128 52.6998 50.1271 52.7051 49.9679 52.7157V51.856H52.7539L55.3807 58.1285C55.5081 58.415 55.6354 58.7228 55.7628 59.0518C55.8901 59.3702 56.0175 59.6886 56.1449 60.007C56.2828 60.3148 56.4049 60.6067 56.511 60.8826H56.5429C56.6596 60.5642 56.7923 60.214 56.9409 59.8319C57.0894 59.4498 57.2168 59.1102 57.3229 58.813C57.7793 57.6668 58.241 56.5206 58.708 55.3743C59.1856 54.2281 59.6526 53.0553 60.1089 51.856H62.9109V52.5565C62.6561 52.5565 62.4386 52.6042 62.2581 52.6998C62.0883 52.7847 61.961 52.9439 61.8761 53.1774C61.8018 53.4109 61.7752 53.7452 61.7965 54.1803L62.1467 61.0418C62.1679 61.2541 62.1732 61.4611 62.1626 61.6627C62.1626 61.8644 62.1573 62.0342 62.1467 62.1722C62.3377 62.1615 62.5394 62.1562 62.7517 62.1562C62.9745 62.1456 63.1656 62.135 63.3248 62.1244V63H59.4721V62.2995C59.7799 62.2889 60.0134 62.2252 60.1726 62.1085C60.3424 61.9917 60.4539 61.8113 60.5069 61.5672C60.56 61.3125 60.5759 60.9835 60.5547 60.5802L60.3 55.9474C60.2894 55.7882 60.2787 55.6025 60.2681 55.3902C60.2575 55.1674 60.2416 54.9392 60.2204 54.7057C60.2098 54.4616 60.1991 54.2281 60.1885 54.0052C60.1567 54.0795 60.1249 54.1591 60.093 54.244C60.0612 54.3183 60.0293 54.4032 59.9975 54.4987L56.5747 63.1592H55.7628ZM67.9605 63.2547C67.2175 63.2547 66.5489 63.0849 65.9545 62.7453C65.3708 62.395 64.9091 61.9068 64.5695 61.2806C64.2299 60.6438 64.0601 59.8956 64.0601 59.0359C64.0601 58.293 64.2246 57.5978 64.5536 56.9504C64.8932 56.303 65.3655 55.7829 65.9705 55.3902C66.5754 54.9869 67.2759 54.7853 68.0719 54.7853C68.5177 54.7853 68.9369 54.8543 69.3296 54.9922C69.7329 55.1302 70.0884 55.3478 70.3962 55.645C70.7146 55.9315 70.964 56.3083 71.1445 56.7753C71.3249 57.2317 71.4151 57.7889 71.4151 58.4469L65.9386 58.5424C65.9386 59.2641 66.0182 59.9062 66.1774 60.4687C66.3472 61.0312 66.6179 61.4664 66.9893 61.7742C67.3608 62.0819 67.8437 62.2358 68.4381 62.2358C68.7246 62.2358 69.0271 62.1881 69.3455 62.0926C69.6745 61.9864 69.9823 61.8378 70.2689 61.6468C70.566 61.4558 70.8155 61.2276 71.0171 60.9622L71.5106 61.3921C71.1922 61.8697 70.8261 62.2465 70.4121 62.5224C69.9982 62.7877 69.5737 62.9735 69.1385 63.0796C68.714 63.1963 68.3213 63.2547 67.9605 63.2547ZM66.0023 57.7146H69.6798C69.6798 57.3113 69.6215 56.9504 69.5047 56.632C69.3986 56.303 69.2288 56.043 68.9953 55.8519C68.7618 55.6609 68.4646 55.5654 68.1037 55.5654C67.5412 55.5654 67.0796 55.7458 66.7187 56.1066C66.3579 56.4569 66.1191 56.9929 66.0023 57.7146ZM75.4507 63.2547C75.1853 63.2547 74.9147 63.2176 74.6388 63.1433C74.3734 63.0796 74.1293 62.9469 73.9064 62.7453C73.6836 62.533 73.5084 62.2305 73.3811 61.8378C73.2537 61.4451 73.19 60.9251 73.19 60.2777L73.2219 55.9315H72.0438V55.04C72.3304 55.0294 72.6222 54.9233 72.9194 54.7216C73.2166 54.5199 73.4766 54.2493 73.6995 53.9097C73.9224 53.5701 74.0763 53.2039 74.1612 52.8112H74.9094V55.04H77.3611V55.8678L74.9094 55.8997L74.8776 60.1503C74.8776 60.5536 74.9094 60.9092 74.9731 61.217C75.0474 61.5141 75.1641 61.7476 75.3233 61.9174C75.4931 62.0766 75.7213 62.1562 76.0079 62.1562C76.252 62.1562 76.5014 62.0819 76.7561 61.9334C77.0215 61.7848 77.2709 61.5407 77.5044 61.201L78.0456 61.6786C77.7909 62.0501 77.5362 62.342 77.2815 62.5542C77.0268 62.7665 76.7827 62.9204 76.5492 63.0159C76.3157 63.1221 76.1034 63.1857 75.9124 63.207C75.7213 63.2388 75.5674 63.2547 75.4507 63.2547ZM83.1535 63C83.1322 62.8302 83.1163 62.6816 83.1057 62.5542C83.0951 62.4269 83.0792 62.2942 83.0579 62.1562C82.6971 62.5171 82.3097 62.793 81.8958 62.9841C81.4819 63.1645 81.052 63.2547 80.6063 63.2547C79.8421 63.2547 79.2637 63.069 78.871 62.6975C78.4889 62.3154 78.2979 61.8431 78.2979 61.2806C78.2979 60.7924 78.4411 60.3679 78.7277 60.007C79.0143 59.6462 79.391 59.3543 79.858 59.1314C80.325 58.8979 80.8344 58.7281 81.3863 58.622C81.9382 58.5053 82.4795 58.4469 83.0102 58.4469V57.5076C83.0102 57.168 82.9783 56.8549 82.9147 56.5683C82.851 56.2711 82.7183 56.0323 82.5167 55.8519C82.3256 55.6609 82.0231 55.5654 81.6092 55.5654C81.3333 55.5547 81.0573 55.6078 80.7814 55.7246C80.5054 55.8307 80.2932 56.0111 80.1446 56.2658C80.2295 56.3507 80.2826 56.4516 80.3038 56.5683C80.3356 56.6745 80.3515 56.7753 80.3515 56.8708C80.3515 57.0194 80.2879 57.1892 80.1605 57.3802C80.0331 57.5607 79.8156 57.6456 79.5078 57.635C79.2531 57.635 79.0567 57.5501 78.9187 57.3802C78.7914 57.1998 78.7277 56.9929 78.7277 56.7594C78.7277 56.3773 78.8657 56.0377 79.1416 55.7405C79.4282 55.4433 79.8156 55.2098 80.3038 55.04C80.792 54.8702 81.3386 54.7853 81.9435 54.7853C82.8563 54.7853 83.5355 55.0241 83.9813 55.5017C84.4377 55.9793 84.6659 56.7328 84.6659 57.7623C84.6659 58.1444 84.6659 58.5106 84.6659 58.8608C84.6659 59.211 84.6606 59.5613 84.6499 59.9115C84.6499 60.2618 84.6499 60.6332 84.6499 61.0259C84.6499 61.1851 84.6446 61.3655 84.634 61.5672C84.6234 61.7689 84.6075 61.9811 84.5863 62.204C84.7667 62.1934 84.9524 62.1828 85.1435 62.1722C85.3345 62.1615 85.5149 62.1562 85.6847 62.1562V63H83.1535ZM83.0102 59.1792C82.6706 59.2004 82.3203 59.2482 81.9595 59.3225C81.6092 59.3968 81.2908 59.5082 81.0043 59.6568C80.7177 59.8054 80.4842 59.9964 80.3038 60.2299C80.134 60.4634 80.0491 60.7447 80.0491 61.0737C80.0703 61.4345 80.187 61.6999 80.3993 61.8697C80.6222 62.0395 80.8822 62.1244 81.1794 62.1244C81.5508 62.1244 81.8799 62.0554 82.1664 61.9174C82.453 61.7689 82.7342 61.5672 83.0102 61.3125C82.9996 61.1957 82.9943 61.079 82.9943 60.9622C82.9943 60.8349 82.9943 60.7022 82.9943 60.5642C82.9943 60.4687 82.9943 60.2936 82.9943 60.0389C83.0049 59.7735 83.0102 59.487 83.0102 59.1792ZM86.9092 53.3684C86.9092 53.188 86.9092 53.0075 86.9092 52.8271C86.9198 52.6361 86.9357 52.4344 86.957 52.2222C86.7659 52.2328 86.5696 52.2434 86.3679 52.254C86.1769 52.254 85.9964 52.2593 85.8266 52.2699V51.4262C86.3042 51.4262 86.6863 51.4049 86.9729 51.3625C87.2594 51.3094 87.477 51.251 87.6256 51.1874C87.7848 51.1237 87.9015 51.0547 87.9758 50.9804H88.5649V55.6927C88.8833 55.3955 89.2388 55.1727 89.6315 55.0241C90.0348 54.8649 90.454 54.7853 90.8892 54.7853C91.5472 54.7853 92.1363 54.9498 92.6563 55.2788C93.187 55.6078 93.6009 56.0748 93.8981 56.6798C94.2059 57.2847 94.3598 58.0011 94.3598 58.829C94.3598 59.7099 94.174 60.4846 93.8026 61.1533C93.4417 61.8219 92.9588 62.342 92.3538 62.7134C91.7489 63.0743 91.0696 63.2547 90.3161 63.2547C89.9764 63.2547 89.5891 63.191 89.1539 63.0637C88.7294 62.9363 88.342 62.6763 87.9918 62.2836L87.5778 63H86.8774L86.9092 53.3684ZM88.5649 60.5324C88.5649 61.0312 88.6445 61.4186 88.8037 61.6946C88.9629 61.9599 89.1645 62.1509 89.4086 62.2677C89.6634 62.3738 89.9287 62.4269 90.2046 62.4269C90.7035 62.4375 91.1227 62.2995 91.4623 62.013C91.8019 61.7264 92.0567 61.339 92.2265 60.8508C92.4069 60.352 92.4971 59.7895 92.4971 59.1633C92.4971 58.5265 92.4175 57.9534 92.2583 57.4439C92.0991 56.9345 91.855 56.5312 91.526 56.234C91.197 55.9262 90.7831 55.7776 90.2842 55.7882C89.9552 55.7882 89.6368 55.8625 89.329 56.0111C89.0319 56.1597 88.7771 56.3614 88.5649 56.6161V60.5324ZM99.3341 63.2547C98.5806 63.2547 97.9013 63.0849 97.2964 62.7453C96.6914 62.4057 96.2085 61.9334 95.8476 61.3284C95.4974 60.7128 95.3223 60.007 95.3223 59.211C95.3223 58.3514 95.4974 57.5925 95.8476 56.9345C96.2085 56.2658 96.6914 55.7405 97.2964 55.3584C97.9013 54.9763 98.5753 54.7853 99.3182 54.7853C100.072 54.7853 100.751 54.9604 101.356 55.3106C101.961 55.6503 102.439 56.1279 102.789 56.7434C103.15 57.3484 103.33 58.0489 103.33 58.8449C103.33 59.6833 103.155 60.4369 102.805 61.1055C102.454 61.7742 101.977 62.2995 101.372 62.6816C100.778 63.0637 100.098 63.2547 99.3341 63.2547ZM99.4456 62.4587C99.955 62.4481 100.353 62.2889 100.64 61.9811C100.937 61.6733 101.149 61.2806 101.276 60.803C101.404 60.3148 101.467 59.8107 101.467 59.2906C101.467 58.8343 101.425 58.3885 101.34 57.9534C101.266 57.5076 101.144 57.1043 100.974 56.7434C100.804 56.3826 100.581 56.096 100.305 55.8838C100.029 55.6609 99.695 55.5547 99.3023 55.5654C98.8034 55.5654 98.3948 55.7193 98.0764 56.027C97.7686 56.3348 97.5405 56.7328 97.3919 57.221C97.2539 57.6986 97.1849 58.2081 97.1849 58.7494C97.1849 59.3755 97.2645 59.9699 97.4237 60.5324C97.5829 61.0949 97.827 61.5566 98.156 61.9174C98.4957 62.2783 98.9255 62.4587 99.4456 62.4587ZM104.15 62.3314C104.468 62.3314 104.691 62.2571 104.818 62.1085C104.946 61.9599 105.02 61.7529 105.041 61.4876C105.073 61.2223 105.089 60.9145 105.089 60.5642V53.3684C105.089 53.188 105.089 53.0075 105.089 52.8271C105.1 52.6361 105.115 52.4344 105.137 52.2222C104.956 52.2328 104.765 52.2434 104.564 52.254C104.362 52.254 104.181 52.2593 104.022 52.2699V51.4262C104.5 51.4262 104.877 51.4049 105.153 51.3625C105.439 51.3094 105.657 51.251 105.805 51.1874C105.965 51.1237 106.081 51.0547 106.156 50.9804H106.761V61.0259C106.761 61.217 106.755 61.4133 106.745 61.615C106.734 61.806 106.718 62.0023 106.697 62.204C106.867 62.1934 107.036 62.1881 107.206 62.1881C107.387 62.1775 107.551 62.1669 107.7 62.1562V63H104.15V62.3314ZM108.615 62.3314C108.934 62.3314 109.157 62.2571 109.284 62.1085C109.411 61.9599 109.486 61.7529 109.507 61.4876C109.539 61.2223 109.555 60.9145 109.555 60.5642V57.2688C109.555 57.0884 109.56 56.9079 109.571 56.7275C109.581 56.5365 109.597 56.3348 109.618 56.1226C109.438 56.1332 109.247 56.1438 109.045 56.1544C108.844 56.1544 108.658 56.1597 108.488 56.1703V55.3266C108.966 55.3266 109.342 55.3053 109.618 55.2629C109.905 55.2098 110.123 55.1514 110.271 55.0878C110.43 55.0241 110.547 54.9551 110.621 54.8808H111.226V61.0259C111.226 61.217 111.221 61.4133 111.21 61.615C111.2 61.806 111.184 62.0023 111.163 62.204C111.332 62.1934 111.502 62.1881 111.672 62.1881C111.853 62.1775 112.017 62.1669 112.166 62.1562V63H108.615V62.3314ZM110.303 53.4162C110.027 53.4162 109.794 53.3153 109.602 53.1137C109.411 52.9014 109.316 52.6467 109.316 52.3495C109.316 52.0523 109.417 51.8029 109.618 51.6013C109.82 51.389 110.048 51.2829 110.303 51.2829C110.579 51.2829 110.807 51.389 110.988 51.6013C111.179 51.8029 111.274 52.0523 111.274 52.3495C111.274 52.6467 111.179 52.9014 110.988 53.1137C110.807 53.3153 110.579 53.4162 110.303 53.4162ZM116.898 63.2547C116.187 63.2547 115.534 63.0955 114.94 62.7771C114.345 62.4481 113.868 61.9811 113.507 61.3762C113.157 60.7712 112.982 60.0389 112.982 59.1792C112.982 58.6061 113.082 58.0595 113.284 57.5394C113.486 57.0088 113.767 56.5365 114.128 56.1226C114.499 55.7086 114.934 55.3849 115.433 55.1514C115.943 54.9073 116.505 54.7853 117.121 54.7853C117.747 54.7853 118.283 54.8808 118.729 55.0718C119.174 55.2629 119.514 55.5123 119.748 55.8201C119.992 56.1279 120.114 56.4622 120.114 56.823C120.114 57.0778 120.039 57.3006 119.891 57.4917C119.742 57.6827 119.53 57.7782 119.254 57.7782C118.946 57.7889 118.729 57.6986 118.601 57.5076C118.474 57.3059 118.41 57.1202 118.41 56.9504C118.41 56.8549 118.426 56.7487 118.458 56.632C118.49 56.5046 118.548 56.3932 118.633 56.2977C118.548 56.0748 118.41 55.9103 118.219 55.8042C118.028 55.698 117.832 55.629 117.63 55.5972C117.429 55.5654 117.259 55.5494 117.121 55.5494C116.473 55.5601 115.927 55.8413 115.481 56.3932C115.046 56.9345 114.828 57.7199 114.828 58.7494C114.828 59.4074 114.924 59.9964 115.115 60.5165C115.317 61.0365 115.608 61.4505 115.99 61.7582C116.373 62.066 116.829 62.2252 117.36 62.2358C117.837 62.2358 118.299 62.1138 118.745 61.8697C119.19 61.615 119.551 61.2966 119.827 60.9145L120.337 61.3602C120.029 61.8378 119.673 62.2146 119.27 62.4906C118.877 62.7665 118.474 62.9629 118.06 63.0796C117.657 63.1963 117.269 63.2547 116.898 63.2547ZM49.6973 79.3314C50.0157 79.3314 50.2385 79.2571 50.3659 79.1085C50.4933 78.9599 50.5675 78.7529 50.5888 78.4876C50.6206 78.2223 50.6365 77.9145 50.6365 77.5642V74.2529C50.6365 74.0831 50.6365 73.9026 50.6365 73.7116C50.6471 73.5099 50.6684 73.3136 50.7002 73.1226C50.5198 73.1332 50.3287 73.1438 50.1271 73.1544C49.9254 73.1544 49.7397 73.1597 49.5699 73.1703V72.3266H50.1112C50.5569 72.3266 50.8966 72.2788 51.1301 72.1833C51.3635 72.0878 51.5334 71.9869 51.6395 71.8808H52.2126C52.2338 72.0294 52.2498 72.2363 52.2604 72.5017C52.271 72.767 52.2816 73.0642 52.2922 73.3932C52.4939 73.096 52.7274 72.8307 52.9927 72.5972C53.258 72.3531 53.5446 72.1567 53.8524 72.0082C54.1708 71.8596 54.4998 71.7853 54.8394 71.7853C55.1684 71.7853 55.4497 71.8755 55.6832 72.0559C55.9273 72.2257 56.0493 72.507 56.0493 72.8997C56.0493 73.0058 56.0175 73.1279 55.9538 73.2658C55.9007 73.4038 55.8052 73.5259 55.6673 73.632C55.5399 73.7275 55.3648 73.7753 55.1419 73.7753C54.919 73.7647 54.7227 73.6798 54.5529 73.5206C54.3937 73.3614 54.3194 73.1438 54.33 72.8678C54.0753 72.8678 53.8205 72.9474 53.5658 73.1066C53.3111 73.2552 53.0723 73.4569 52.8494 73.7116C52.6371 73.9663 52.4567 74.2423 52.3081 74.5394V78.0259C52.3081 78.217 52.3028 78.4133 52.2922 78.615C52.2922 78.806 52.2763 79.0023 52.2445 79.204C52.4143 79.1934 52.5894 79.1881 52.7698 79.1881C52.9502 79.1775 53.1147 79.1669 53.2633 79.1562V80H49.6973V79.3314ZM61.187 80C61.1658 79.8302 61.1499 79.6816 61.1392 79.5542C61.1286 79.4269 61.1127 79.2942 61.0915 79.1562C60.7306 79.5171 60.3432 79.793 59.9293 79.9841C59.5154 80.1645 59.0856 80.2547 58.6398 80.2547C57.8756 80.2547 57.2972 80.069 56.9045 79.6975C56.5224 79.3154 56.3314 78.8431 56.3314 78.2806C56.3314 77.7924 56.4747 77.3679 56.7612 77.007C57.0478 76.6462 57.4246 76.3543 57.8916 76.1314C58.3585 75.8979 58.868 75.7281 59.4199 75.622C59.9718 75.5053 60.5131 75.4469 61.0437 75.4469V74.5076C61.0437 74.168 61.0119 73.8549 60.9482 73.5683C60.8845 73.2711 60.7519 73.0323 60.5502 72.8519C60.3592 72.6609 60.0567 72.5654 59.6428 72.5654C59.3668 72.5547 59.0909 72.6078 58.8149 72.7246C58.539 72.8307 58.3267 73.0111 58.1781 73.2658C58.263 73.3507 58.3161 73.4516 58.3373 73.5683C58.3692 73.6745 58.3851 73.7753 58.3851 73.8708C58.3851 74.0194 58.3214 74.1892 58.194 74.3802C58.0667 74.5607 57.8491 74.6456 57.5413 74.635C57.2866 74.635 57.0903 74.5501 56.9523 74.3802C56.8249 74.1998 56.7612 73.9929 56.7612 73.7594C56.7612 73.3773 56.8992 73.0377 57.1752 72.7405C57.4617 72.4433 57.8491 72.2098 58.3373 72.04C58.8255 71.8702 59.3721 71.7853 59.9771 71.7853C60.8898 71.7853 61.5691 72.0241 62.0148 72.5017C62.4712 72.9793 62.6994 73.7328 62.6994 74.7623C62.6994 75.1444 62.6994 75.5106 62.6994 75.8608C62.6994 76.211 62.6941 76.5613 62.6835 76.9115C62.6835 77.2618 62.6835 77.6332 62.6835 78.0259C62.6835 78.1851 62.6782 78.3655 62.6676 78.5672C62.6569 78.7689 62.641 78.9811 62.6198 79.204C62.8002 79.1934 62.986 79.1828 63.177 79.1722C63.368 79.1615 63.5485 79.1562 63.7183 79.1562V80H61.187ZM61.0437 76.1792C60.7041 76.2004 60.3539 76.2482 59.993 76.3225C59.6428 76.3968 59.3244 76.5082 59.0378 76.6568C58.7512 76.8054 58.5177 76.9964 58.3373 77.2299C58.1675 77.4634 58.0826 77.7447 58.0826 78.0737C58.1038 78.4345 58.2206 78.6999 58.4328 78.8697C58.6557 79.0395 58.9157 79.1244 59.2129 79.1244C59.5844 79.1244 59.9134 79.0554 60.2 78.9174C60.4865 78.7689 60.7678 78.5672 61.0437 78.3125C61.0331 78.1957 61.0278 78.079 61.0278 77.9622C61.0278 77.8349 61.0278 77.7022 61.0278 77.5642C61.0278 77.4687 61.0278 77.2936 61.0278 77.0389C61.0384 76.7735 61.0437 76.487 61.0437 76.1792ZM67.4285 80.2547C67.1632 80.2547 66.8925 80.2176 66.6166 80.1433C66.3512 80.0796 66.1071 79.9469 65.8843 79.7453C65.6614 79.533 65.4863 79.2305 65.3589 78.8378C65.2315 78.4451 65.1679 77.9251 65.1679 77.2777L65.1997 72.9315H64.0216V72.04C64.3082 72.0294 64.6 71.9233 64.8972 71.7216C65.1944 71.5199 65.4544 71.2493 65.6773 70.9097C65.9002 70.5701 66.0541 70.2039 66.139 69.8112H66.8872V72.04H69.3389V72.8678L66.8872 72.8997L66.8554 77.1503C66.8554 77.5536 66.8872 77.9092 66.9509 78.217C67.0252 78.5141 67.1419 78.7476 67.3011 78.9174C67.4709 79.0766 67.6991 79.1562 67.9857 79.1562C68.2298 79.1562 68.4792 79.0819 68.7339 78.9334C68.9993 78.7848 69.2487 78.5407 69.4822 78.201L70.0235 78.6786C69.7687 79.0501 69.514 79.342 69.2593 79.5542C69.0046 79.7665 68.7605 79.9204 68.527 80.0159C68.2935 80.1221 68.0812 80.1857 67.8902 80.207C67.6991 80.2388 67.5452 80.2547 67.4285 80.2547ZM74.2557 80.2547C73.5127 80.2547 72.8441 80.0849 72.2498 79.7453C71.666 79.395 71.2043 78.9068 70.8647 78.2806C70.5251 77.6438 70.3553 76.8956 70.3553 76.0359C70.3553 75.293 70.5198 74.5978 70.8488 73.9504C71.1884 73.303 71.6607 72.7829 72.2657 72.3902C72.8706 71.9869 73.5711 71.7853 74.3671 71.7853C74.8129 71.7853 75.2321 71.8543 75.6248 71.9922C76.0281 72.1302 76.3836 72.3478 76.6914 72.645C77.0098 72.9315 77.2592 73.3083 77.4397 73.7753C77.6201 74.2317 77.7103 74.7889 77.7103 75.4469L72.2338 75.5424C72.2338 76.2641 72.3134 76.9062 72.4726 77.4687C72.6424 78.0312 72.9131 78.4664 73.2846 78.7742C73.656 79.0819 74.1389 79.2358 74.7333 79.2358C75.0198 79.2358 75.3223 79.1881 75.6407 79.0926C75.9697 78.9864 76.2775 78.8378 76.5641 78.6468C76.8612 78.4558 77.1107 78.2276 77.3123 77.9622L77.8058 78.3921C77.4874 78.8697 77.1213 79.2465 76.7074 79.5224C76.2934 79.7877 75.8689 79.9735 75.4338 80.0796C75.0092 80.1963 74.6165 80.2547 74.2557 80.2547ZM72.2975 74.7146H75.975C75.975 74.3113 75.9167 73.9504 75.7999 73.632C75.6938 73.303 75.524 73.043 75.2905 72.8519C75.057 72.6609 74.7598 72.5654 74.399 72.5654C73.8364 72.5654 73.3748 72.7458 73.0139 73.1066C72.6531 73.4569 72.4143 73.9929 72.2975 74.7146Z" fill="#132638"/>
<path d="M189.819 79.5045C189.819 79.0481 189.75 78.7191 189.612 78.5174C189.485 78.3158 189.289 78.1937 189.023 78.1513C188.758 78.0982 188.429 78.0823 188.036 78.1035L187.113 78.1353V81.4467C187.113 81.7333 187.108 81.988 187.097 82.2109C187.097 82.4231 187.086 82.5983 187.065 82.7362L189.803 82.7044C190.217 82.6938 190.589 82.6195 190.918 82.4815C191.247 82.3329 191.507 82.0835 191.698 81.7333C191.889 81.383 191.984 80.9054 191.984 80.3005H192.685L192.589 83.5322H184.311V82.8317C184.661 82.8105 184.911 82.7362 185.059 82.6089C185.218 82.4815 185.319 82.2905 185.362 82.0357C185.404 81.781 185.425 81.4573 185.425 81.0646V74.4419C185.425 74.2084 185.431 73.9855 185.441 73.7733C185.452 73.5504 185.463 73.3593 185.473 73.2001C185.293 73.2108 185.096 73.2214 184.884 73.232C184.672 73.2426 184.481 73.2532 184.311 73.2638V72.3882H192.08L192.16 75.2697H191.459C191.459 74.6648 191.358 74.2031 191.157 73.8847C190.966 73.5663 190.711 73.354 190.392 73.2479C190.085 73.1418 189.75 73.094 189.39 73.1046L188.275 73.1365C187.946 73.1365 187.697 73.1948 187.527 73.3116C187.357 73.4177 187.246 73.5981 187.193 73.8529C187.139 74.097 187.113 74.4313 187.113 74.8558V77.3553H189.74L189.644 75.9861H190.52V79.5045H189.819ZM198.502 83.5322C198.481 83.3624 198.465 83.2138 198.454 83.0865C198.444 82.9591 198.428 82.8264 198.407 82.6885C198.046 83.0493 197.658 83.3253 197.245 83.5163C196.831 83.6967 196.401 83.7869 195.955 83.7869C195.191 83.7869 194.612 83.6012 194.22 83.2297C193.838 82.8477 193.647 82.3754 193.647 81.8129C193.647 81.3247 193.79 80.9001 194.076 80.5393C194.363 80.1784 194.74 79.8865 195.207 79.6637C195.674 79.4302 196.183 79.2604 196.735 79.1542C197.287 79.0375 197.828 78.9791 198.359 78.9791V78.0398C198.359 77.7002 198.327 77.3871 198.263 77.1005C198.2 76.8034 198.067 76.5646 197.865 76.3841C197.674 76.1931 197.372 76.0976 196.958 76.0976C196.682 76.087 196.406 76.14 196.13 76.2568C195.854 76.3629 195.642 76.5433 195.493 76.7981C195.578 76.883 195.631 76.9838 195.653 77.1005C195.684 77.2067 195.7 77.3075 195.7 77.403C195.7 77.5516 195.637 77.7214 195.509 77.9125C195.382 78.0929 195.164 78.1778 194.857 78.1672C194.602 78.1672 194.405 78.0823 194.267 77.9125C194.14 77.732 194.076 77.5251 194.076 77.2916C194.076 76.9095 194.214 76.5699 194.49 76.2727C194.777 75.9755 195.164 75.742 195.653 75.5722C196.141 75.4024 196.687 75.3175 197.292 75.3175C198.205 75.3175 198.884 75.5563 199.33 76.0339C199.786 76.5115 200.015 77.2651 200.015 78.2945C200.015 78.6766 200.015 79.0428 200.015 79.393C200.015 79.7433 200.009 80.0935 199.999 80.4437C199.999 80.794 199.999 81.1655 199.999 81.5581C199.999 81.7173 199.993 81.8978 199.983 82.0994C199.972 82.3011 199.956 82.5133 199.935 82.7362C200.115 82.7256 200.301 82.715 200.492 82.7044C200.683 82.6938 200.864 82.6885 201.033 82.6885V83.5322H198.502ZM198.359 79.7114C198.019 79.7327 197.669 79.7804 197.308 79.8547C196.958 79.929 196.64 80.0404 196.353 80.189C196.066 80.3376 195.833 80.5287 195.653 80.7621C195.483 80.9956 195.398 81.2769 195.398 81.6059C195.419 81.9668 195.536 82.2321 195.748 82.4019C195.971 82.5717 196.231 82.6566 196.528 82.6566C196.9 82.6566 197.229 82.5876 197.515 82.4497C197.802 82.3011 198.083 82.0994 198.359 81.8447C198.348 81.728 198.343 81.6112 198.343 81.4945C198.343 81.3671 198.343 81.2344 198.343 81.0965C198.343 81.0009 198.343 80.8258 198.343 80.5711C198.354 80.3058 198.359 80.0192 198.359 79.7114ZM205.187 83.7869C204.688 83.7869 204.227 83.718 203.802 83.58C203.378 83.4526 203.038 83.2987 202.783 83.1183L202.831 83.6437H201.987L201.908 80.9054H202.576C202.598 81.2981 202.72 81.6537 202.943 81.9721C203.165 82.2905 203.452 82.5399 203.802 82.7203C204.163 82.9007 204.55 82.9909 204.964 82.9909C205.208 82.9909 205.447 82.9538 205.681 82.8795C205.914 82.7946 206.111 82.6725 206.27 82.5133C206.429 82.3435 206.509 82.1366 206.509 81.8925C206.509 81.6271 206.424 81.4096 206.254 81.2397C206.095 81.0593 205.872 80.9001 205.585 80.7621C205.309 80.6242 204.991 80.4862 204.63 80.3482C204.312 80.2209 203.988 80.0882 203.659 79.9502C203.341 79.8123 203.043 79.6477 202.767 79.4567C202.491 79.2657 202.274 79.0322 202.115 78.7562C201.955 78.4697 201.876 78.1194 201.876 77.7055C201.876 77.4614 201.924 77.2014 202.019 76.9254C202.115 76.6389 202.269 76.3788 202.481 76.1453C202.693 75.9012 202.98 75.7049 203.341 75.5563C203.701 75.3971 204.147 75.3175 204.678 75.3175C204.964 75.3175 205.283 75.3653 205.633 75.4608C205.994 75.5563 206.328 75.7208 206.636 75.9543L206.62 75.3971H207.464V78.199H206.779C206.747 77.8276 206.647 77.4826 206.477 77.1642C206.318 76.8458 206.089 76.5858 205.792 76.3841C205.495 76.1825 205.134 76.0817 204.71 76.0817C204.296 76.0817 203.956 76.1878 203.691 76.4001C203.436 76.6017 203.309 76.8564 203.309 77.1642C203.309 77.472 203.404 77.7214 203.595 77.9125C203.797 78.1035 204.057 78.268 204.375 78.406C204.694 78.544 205.039 78.6819 205.41 78.8199C205.856 79.0003 206.275 79.1967 206.668 79.4089C207.06 79.6212 207.379 79.8865 207.623 80.2049C207.867 80.5233 207.989 80.9267 207.989 81.4149C207.989 81.9455 207.851 82.3913 207.575 82.7521C207.31 83.1024 206.965 83.3624 206.54 83.5322C206.116 83.702 205.665 83.7869 205.187 83.7869ZM212.83 83.7869C212.087 83.7869 211.419 83.6171 210.824 83.2775C210.241 82.9273 209.779 82.4391 209.439 81.8129C209.1 81.1761 208.93 80.4278 208.93 79.5681C208.93 78.8252 209.094 78.13 209.423 77.4826C209.763 76.8352 210.235 76.3152 210.84 75.9225C211.445 75.5192 212.146 75.3175 212.942 75.3175C213.387 75.3175 213.807 75.3865 214.199 75.5245C214.603 75.6624 214.958 75.88 215.266 76.1772C215.584 76.4637 215.834 76.8405 216.014 77.3075C216.195 77.7639 216.285 78.3211 216.285 78.9791L210.808 79.0746C210.808 79.7963 210.888 80.4384 211.047 81.0009C211.217 81.5635 211.488 81.9986 211.859 82.3064C212.231 82.6142 212.713 82.7681 213.308 82.7681C213.594 82.7681 213.897 82.7203 214.215 82.6248C214.544 82.5187 214.852 82.3701 215.139 82.179C215.436 81.988 215.685 81.7598 215.887 81.4945L216.38 81.9243C216.062 82.4019 215.696 82.7787 215.282 83.0546C214.868 83.32 214.443 83.5057 214.008 83.6118C213.584 83.7286 213.191 83.7869 212.83 83.7869ZM210.872 78.2468H214.55C214.55 77.8435 214.491 77.4826 214.374 77.1642C214.268 76.8352 214.098 76.5752 213.865 76.3841C213.631 76.1931 213.334 76.0976 212.973 76.0976C212.411 76.0976 211.949 76.278 211.588 76.6389C211.228 76.9891 210.989 77.5251 210.872 78.2468ZM225.207 83.7869C224.453 83.7869 223.774 83.6171 223.169 83.2775C222.564 82.9379 222.081 82.4656 221.72 81.8606C221.37 81.2451 221.195 80.5393 221.195 79.7433C221.195 78.8836 221.37 78.1247 221.72 77.4667C222.081 76.7981 222.564 76.2727 223.169 75.8906C223.774 75.5085 224.448 75.3175 225.191 75.3175C225.944 75.3175 226.624 75.4926 227.229 75.8429C227.834 76.1825 228.311 76.6601 228.661 77.2757C229.022 77.8806 229.203 78.5811 229.203 79.3771C229.203 80.2156 229.028 80.9691 228.677 81.6377C228.327 82.3064 227.85 82.8317 227.245 83.2138C226.65 83.5959 225.971 83.7869 225.207 83.7869ZM225.318 82.9909C225.828 82.9803 226.226 82.8211 226.512 82.5133C226.809 82.2056 227.022 81.8129 227.149 81.3353C227.276 80.8471 227.34 80.3429 227.34 79.8229C227.34 79.3665 227.298 78.9207 227.213 78.4856C227.138 78.0398 227.016 77.6365 226.847 77.2757C226.677 76.9148 226.454 76.6283 226.178 76.416C225.902 76.1931 225.568 76.087 225.175 76.0976C224.676 76.0976 224.268 76.2515 223.949 76.5593C223.641 76.8671 223.413 77.2651 223.265 77.7533C223.127 78.2309 223.058 78.7403 223.058 79.2816C223.058 79.9078 223.137 80.5021 223.296 81.0646C223.456 81.6271 223.7 82.0888 224.029 82.4497C224.368 82.8105 224.798 82.9909 225.318 82.9909ZM231.154 75.1901C231.154 73.9802 231.388 73.0569 231.855 72.4201C232.332 71.7833 233.08 71.4649 234.099 71.4649C234.418 71.4649 234.715 71.5179 234.991 71.6241C235.267 71.7196 235.49 71.8629 235.66 72.0539C235.829 72.2343 235.914 72.4519 235.914 72.7066C235.914 72.9401 235.845 73.1365 235.707 73.2957C235.58 73.4549 235.394 73.5398 235.15 73.5504C234.874 73.561 234.672 73.4814 234.545 73.3116C234.428 73.1418 234.37 72.972 234.37 72.8021C234.37 72.7491 234.37 72.6907 234.37 72.627C234.381 72.5633 234.402 72.4997 234.434 72.436C234.359 72.3511 234.264 72.2927 234.147 72.2609C234.041 72.229 233.94 72.2131 233.845 72.2131C233.569 72.2131 233.356 72.2927 233.208 72.4519C233.059 72.6111 232.953 72.8128 232.889 73.0569C232.826 73.301 232.794 73.5504 232.794 73.8051V75.5722H234.832V76.4001L232.81 76.4478L232.826 81.5422C232.826 81.7333 232.82 81.9296 232.81 82.1313C232.799 82.3329 232.783 82.5346 232.762 82.7362C232.932 82.7256 233.107 82.7203 233.287 82.7203C233.478 82.7097 233.648 82.6991 233.797 82.6885V83.5322H230.215V82.8636C230.533 82.8636 230.756 82.7893 230.884 82.6407C231.011 82.4921 231.085 82.2852 231.106 82.0198C231.138 81.7545 231.154 81.4467 231.154 81.0965V76.4637L229.896 76.4956V75.5722H231.154V75.1901ZM186.779 100.58L184.757 94.6577C184.672 94.4243 184.603 94.2332 184.55 94.0846C184.497 93.9254 184.454 93.7928 184.422 93.6866C184.391 93.5699 184.364 93.4637 184.343 93.3682L183.579 93.416V92.5722H187.097V93.2249C186.673 93.2356 186.434 93.3895 186.381 93.6866C186.328 93.9732 186.375 94.3393 186.524 94.7851L187.193 96.9184C187.267 97.1731 187.341 97.4331 187.415 97.6985C187.49 97.9532 187.564 98.2079 187.638 98.4626C187.723 98.1973 187.808 97.9213 187.893 97.6348C187.978 97.3482 188.073 97.0404 188.18 96.7114L189.501 92.5722H190.52L192.016 97.1253C192.091 97.3588 192.165 97.6029 192.239 97.8577C192.324 98.1018 192.404 98.3406 192.478 98.5741C192.552 98.3406 192.627 98.1071 192.701 97.8736C192.786 97.6401 192.86 97.4119 192.924 97.189L193.831 94.4985C193.916 94.2544 193.99 94.0422 194.054 93.8617C194.128 93.6707 194.213 93.5009 194.309 93.3523L193.385 93.416V92.5722H196.251V93.2249C195.996 93.2356 195.784 93.2886 195.614 93.3841C195.444 93.4691 195.296 93.5805 195.168 93.7185C195.052 93.8458 194.956 93.9944 194.882 94.1642C194.808 94.3234 194.744 94.4826 194.691 94.6418L192.558 100.58H191.571L190.201 96.5522C190.148 96.3824 190.09 96.202 190.026 96.0109C189.963 95.8093 189.894 95.6023 189.819 95.3901C189.756 95.1778 189.692 94.9761 189.628 94.7851C189.575 95.008 189.506 95.2468 189.421 95.5015C189.347 95.7456 189.273 95.9844 189.198 96.2179C189.124 96.4408 189.061 96.6371 189.007 96.8069L187.718 100.58H186.779ZM200.332 100.787C199.589 100.787 198.92 100.617 198.326 100.278C197.742 99.9273 197.28 99.4391 196.941 98.8129C196.601 98.1761 196.431 97.4278 196.431 96.5681C196.431 95.8252 196.596 95.13 196.925 94.4826C197.265 93.8352 197.737 93.3152 198.342 92.9225C198.947 92.5192 199.647 92.3175 200.443 92.3175C200.889 92.3175 201.308 92.3865 201.701 92.5245C202.104 92.6624 202.46 92.88 202.768 93.1772C203.086 93.4637 203.335 93.8405 203.516 94.3075C203.696 94.7639 203.786 95.3211 203.786 95.9791L198.31 96.0746C198.31 96.7963 198.39 97.4384 198.549 98.0009C198.719 98.5635 198.989 98.9986 199.361 99.3064C199.732 99.6142 200.215 99.7681 200.809 99.7681C201.096 99.7681 201.398 99.7203 201.717 99.6248C202.046 99.5187 202.354 99.3701 202.64 99.179C202.937 98.988 203.187 98.7598 203.388 98.4945L203.882 98.9243C203.564 99.4019 203.197 99.7787 202.783 100.055C202.37 100.32 201.945 100.506 201.51 100.612C201.085 100.729 200.693 100.787 200.332 100.787ZM198.374 95.2468H202.051C202.051 94.8435 201.993 94.4826 201.876 94.1642C201.77 93.8352 201.6 93.5752 201.367 93.3841C201.133 93.1931 200.836 93.0976 200.475 93.0976C199.913 93.0976 199.451 93.278 199.09 93.6389C198.729 93.9891 198.49 94.5251 198.374 95.2468ZM204.859 99.8636C205.177 99.8636 205.4 99.7893 205.528 99.6407C205.655 99.4921 205.729 99.2852 205.751 99.0198C205.782 98.7545 205.798 98.4467 205.798 98.0965V94.801C205.798 94.6206 205.804 94.4402 205.814 94.2597C205.825 94.0687 205.841 93.8671 205.862 93.6548C205.682 93.6654 205.49 93.676 205.289 93.6866C205.087 93.6866 204.901 93.6919 204.732 93.7025V92.8588C205.209 92.8588 205.586 92.8376 205.862 92.7951C206.149 92.742 206.366 92.6837 206.515 92.62C206.674 92.5563 206.791 92.4873 206.865 92.413H207.47V98.5581C207.47 98.7492 207.465 98.9455 207.454 99.1472C207.443 99.3382 207.427 99.5346 207.406 99.7362C207.576 99.7256 207.746 99.7203 207.916 99.7203C208.096 99.7097 208.261 99.6991 208.409 99.6885V100.532H204.859V99.8636ZM206.547 90.9484C206.271 90.9484 206.037 90.8476 205.846 90.6459C205.655 90.4336 205.559 90.1789 205.559 89.8817C205.559 89.5846 205.66 89.3352 205.862 89.1335C206.064 88.9212 206.292 88.8151 206.547 88.8151C206.822 88.8151 207.051 88.9212 207.231 89.1335C207.422 89.3352 207.518 89.5846 207.518 89.8817C207.518 90.1789 207.422 90.4336 207.231 90.6459C207.051 90.8476 206.822 90.9484 206.547 90.9484ZM212.998 104.847C212.064 104.847 211.311 104.74 210.738 104.528C210.175 104.326 209.766 104.061 209.512 103.732C209.268 103.414 209.146 103.074 209.146 102.713C209.146 102.427 209.209 102.161 209.337 101.917C209.475 101.673 209.655 101.456 209.878 101.265C210.101 101.084 210.35 100.941 210.626 100.835C210.255 100.718 209.973 100.553 209.782 100.341C209.591 100.118 209.496 99.8477 209.496 99.5293C209.496 99.1896 209.628 98.8553 209.894 98.5263C210.17 98.1973 210.562 97.9744 211.072 97.8577C210.594 97.6454 210.212 97.3376 209.926 96.9343C209.639 96.531 209.491 96.0534 209.48 95.5015C209.469 94.8647 209.628 94.3075 209.957 93.8299C210.297 93.3523 210.727 92.9808 211.247 92.7155C211.778 92.4502 212.33 92.3175 212.903 92.3175C213.232 92.3175 213.571 92.3653 213.922 92.4608C214.272 92.5457 214.59 92.6837 214.877 92.8747C214.994 92.5669 215.147 92.2857 215.338 92.0309C215.529 91.7762 215.752 91.5746 216.007 91.426C216.272 91.2774 216.548 91.2031 216.835 91.2031C217.143 91.2031 217.376 91.2827 217.535 91.4419C217.695 91.6011 217.774 91.8134 217.774 92.0787C217.774 92.1636 217.748 92.2697 217.695 92.3971C217.652 92.5139 217.573 92.6147 217.456 92.6996C217.339 92.7845 217.18 92.8269 216.978 92.8269C216.808 92.8269 216.655 92.7739 216.517 92.6677C216.389 92.551 216.31 92.413 216.278 92.2538C216.055 92.2963 215.869 92.4289 215.721 92.6518C215.583 92.8641 215.492 93.0817 215.45 93.3045C215.726 93.5487 215.938 93.8405 216.087 94.1801C216.246 94.5092 216.325 94.8647 216.325 95.2468C216.325 95.8517 216.161 96.3877 215.832 96.8547C215.514 97.3217 215.094 97.6879 214.574 97.9532C214.054 98.2185 213.492 98.3512 212.887 98.3512C212.706 98.3512 212.537 98.3406 212.377 98.3193C212.218 98.2875 212.043 98.2716 211.852 98.2716C211.512 98.2716 211.231 98.3512 211.008 98.5104C210.796 98.6696 210.716 98.8606 210.769 99.0835C210.822 99.317 211.045 99.4709 211.438 99.5452C211.831 99.6195 212.399 99.6725 213.141 99.7044C213.959 99.7362 214.659 99.8371 215.243 100.007C215.837 100.166 216.294 100.415 216.612 100.755C216.941 101.095 217.106 101.556 217.106 102.14C217.106 102.575 216.984 102.963 216.739 103.302C216.506 103.642 216.188 103.923 215.784 104.146C215.392 104.38 214.951 104.555 214.463 104.671C213.975 104.788 213.486 104.847 212.998 104.847ZM213.141 104.066C214.001 104.066 214.665 103.907 215.131 103.589C215.609 103.27 215.848 102.91 215.848 102.506C215.848 102.167 215.731 101.901 215.498 101.71C215.264 101.53 214.935 101.397 214.511 101.312C214.097 101.238 213.608 101.196 213.046 101.185C212.77 101.164 212.489 101.148 212.202 101.137C211.916 101.127 211.65 101.1 211.406 101.058C211.162 101.227 210.971 101.434 210.833 101.678C210.706 101.923 210.637 102.177 210.626 102.443C210.626 102.931 210.854 103.324 211.311 103.621C211.767 103.918 212.377 104.066 213.141 104.066ZM212.935 97.6029C213.295 97.6029 213.593 97.5127 213.826 97.3323C214.07 97.1413 214.251 96.8919 214.367 96.5841C214.495 96.2657 214.558 95.9207 214.558 95.5493C214.558 95.1141 214.495 94.7055 214.367 94.3234C214.24 93.9413 214.054 93.6336 213.81 93.4001C213.566 93.1666 213.253 93.0498 212.871 93.0498C212.351 93.0498 211.947 93.2568 211.661 93.6707C211.374 94.0846 211.231 94.5835 211.231 95.1672C211.231 95.6342 211.295 96.0534 211.422 96.4249C211.56 96.7857 211.756 97.0723 212.011 97.2845C212.266 97.4968 212.574 97.6029 212.935 97.6029ZM223.071 99.8636C223.389 99.8636 223.612 99.7893 223.74 99.6407C223.878 99.4921 223.957 99.2852 223.979 99.0198C224.01 98.7545 224.026 98.4467 224.026 98.0965L224.01 95.8677C224.01 95.0292 223.878 94.403 223.612 93.9891C223.358 93.5646 222.944 93.3576 222.371 93.3682C222.02 93.3788 221.675 93.4637 221.336 93.6229C221.007 93.7821 220.731 93.9838 220.508 94.2279V98.5581C220.508 98.7492 220.503 98.9455 220.492 99.1472C220.481 99.3382 220.466 99.5346 220.444 99.7362C220.614 99.7256 220.784 99.7203 220.954 99.7203C221.134 99.7097 221.299 99.6991 221.447 99.6885V100.532H217.897V99.8636C218.215 99.8636 218.438 99.7893 218.566 99.6407C218.693 99.4921 218.773 99.2852 218.805 99.0198C218.836 98.7545 218.852 98.4467 218.852 98.0965V90.9006C218.852 90.7202 218.852 90.5398 218.852 90.3593C218.863 90.1683 218.879 89.9667 218.9 89.7544C218.72 89.765 218.529 89.7756 218.327 89.7862C218.125 89.7862 217.94 89.7915 217.77 89.8021V88.9584C218.247 88.9584 218.629 88.9372 218.916 88.8947C219.203 88.8416 219.42 88.7833 219.569 88.7196C219.728 88.6559 219.845 88.5869 219.919 88.5126H220.508V93.3205C220.741 93.1294 221.001 92.9596 221.288 92.811C221.575 92.6624 221.866 92.5457 222.164 92.4608C222.471 92.3653 222.758 92.3175 223.023 92.3175C223.968 92.3175 224.642 92.6041 225.045 93.1772C225.459 93.7503 225.671 94.6471 225.682 95.8677V98.5581C225.682 98.7492 225.677 98.9455 225.666 99.1472C225.666 99.3382 225.65 99.5346 225.618 99.7362C225.788 99.7256 225.963 99.7203 226.144 99.7203C226.324 99.7097 226.489 99.6991 226.637 99.6885V100.532H223.071V99.8636ZM230.394 100.787C230.129 100.787 229.858 100.75 229.582 100.676C229.317 100.612 229.073 100.479 228.85 100.278C228.627 100.065 228.452 99.7628 228.325 99.3701C228.197 98.9774 228.134 98.4573 228.134 97.8099L228.165 93.4637H226.987V92.5722C227.274 92.5616 227.566 92.4555 227.863 92.2538C228.16 92.0522 228.42 91.7815 228.643 91.4419C228.866 91.1023 229.02 90.7361 229.105 90.3434H229.853V92.5722H232.305V93.4001L229.853 93.4319L229.821 97.6825C229.821 98.0859 229.853 98.4414 229.917 98.7492C229.991 99.0464 230.108 99.2799 230.267 99.4497C230.437 99.6089 230.665 99.6885 230.951 99.6885C231.195 99.6885 231.445 99.6142 231.7 99.4656C231.965 99.317 232.214 99.0729 232.448 98.7333L232.989 99.2109C232.734 99.5823 232.48 99.8742 232.225 100.086C231.97 100.299 231.726 100.453 231.493 100.548C231.259 100.654 231.047 100.718 230.856 100.739C230.665 100.771 230.511 100.787 230.394 100.787ZM237.127 99.8636C237.445 99.8636 237.668 99.7893 237.795 99.6407C237.923 99.4921 237.997 99.2852 238.018 99.0198C238.05 98.7545 238.066 98.4467 238.066 98.0965V90.9006C238.066 90.7202 238.066 90.5398 238.066 90.3593C238.077 90.1683 238.092 89.9667 238.114 89.7544C237.933 89.765 237.742 89.7756 237.541 89.7862C237.339 89.7862 237.158 89.7915 236.999 89.8021V88.9584C237.477 88.9584 237.854 88.9372 238.13 88.8947C238.416 88.8416 238.634 88.7833 238.782 88.7196C238.942 88.6559 239.058 88.5869 239.133 88.5126H239.738V98.5581C239.738 98.7492 239.732 98.9455 239.722 99.1472C239.711 99.3382 239.695 99.5346 239.674 99.7362C239.844 99.7256 240.013 99.7203 240.183 99.7203C240.364 99.7097 240.528 99.6991 240.677 99.6885V100.532H237.127V99.8636ZM245.525 100.787C244.771 100.787 244.092 100.617 243.487 100.278C242.882 99.9379 242.399 99.4656 242.038 98.8606C241.688 98.2451 241.513 97.5393 241.513 96.7433C241.513 95.8836 241.688 95.1247 242.038 94.4667C242.399 93.7981 242.882 93.2727 243.487 92.8906C244.092 92.5085 244.766 92.3175 245.509 92.3175C246.262 92.3175 246.942 92.4926 247.547 92.8429C248.151 93.1825 248.629 93.6601 248.979 94.2757C249.34 94.8806 249.521 95.5811 249.521 96.3771C249.521 97.2156 249.345 97.9691 248.995 98.6377C248.645 99.3064 248.167 99.8317 247.562 100.214C246.968 100.596 246.289 100.787 245.525 100.787ZM245.636 99.9909C246.146 99.9803 246.544 99.8211 246.83 99.5133C247.127 99.2056 247.34 98.8129 247.467 98.3353C247.594 97.8471 247.658 97.3429 247.658 96.8229C247.658 96.3665 247.616 95.9207 247.531 95.4856C247.456 95.0398 247.334 94.6365 247.164 94.2757C246.995 93.9148 246.772 93.6283 246.496 93.416C246.22 93.1931 245.886 93.087 245.493 93.0976C244.994 93.0976 244.585 93.2515 244.267 93.5593C243.959 93.8671 243.731 94.2651 243.582 94.7533C243.444 95.2309 243.375 95.7403 243.375 96.2816C243.375 96.9078 243.455 97.5021 243.614 98.0646C243.773 98.6271 244.018 99.0888 244.347 99.4497C244.686 99.8105 245.116 99.9909 245.636 99.9909ZM253.938 100.787C253.439 100.787 252.977 100.718 252.553 100.58C252.128 100.453 251.789 100.299 251.534 100.118L251.582 100.644H250.738L250.658 97.9054H251.327C251.348 98.2981 251.47 98.6537 251.693 98.9721C251.916 99.2905 252.202 99.5399 252.553 99.7203C252.914 99.9007 253.301 99.9909 253.715 99.9909C253.959 99.9909 254.198 99.9538 254.431 99.8795C254.665 99.7946 254.861 99.6725 255.02 99.5133C255.18 99.3435 255.259 99.1366 255.259 98.8925C255.259 98.6271 255.174 98.4096 255.004 98.2397C254.845 98.0593 254.622 97.9001 254.336 97.7621C254.06 97.6242 253.741 97.4862 253.381 97.3482C253.062 97.2209 252.738 97.0882 252.409 96.9502C252.091 96.8123 251.794 96.6477 251.518 96.4567C251.242 96.2657 251.024 96.0322 250.865 95.7562C250.706 95.4697 250.626 95.1194 250.626 94.7055C250.626 94.4614 250.674 94.2014 250.77 93.9254C250.865 93.6389 251.019 93.3788 251.231 93.1453C251.444 92.9012 251.73 92.7049 252.091 92.5563C252.452 92.3971 252.898 92.3175 253.428 92.3175C253.715 92.3175 254.033 92.3653 254.384 92.4608C254.744 92.5563 255.079 92.7208 255.386 92.9543L255.371 92.3971H256.214V95.199H255.53C255.498 94.8276 255.397 94.4826 255.227 94.1642C255.068 93.8458 254.84 93.5858 254.543 93.3841C254.246 93.1825 253.885 93.0817 253.46 93.0817C253.046 93.0817 252.707 93.1878 252.441 93.4001C252.187 93.6017 252.059 93.8564 252.059 94.1642C252.059 94.472 252.155 94.7214 252.346 94.9125C252.547 95.1035 252.807 95.268 253.126 95.406C253.444 95.544 253.789 95.6819 254.161 95.8199C254.606 96.0003 255.026 96.1967 255.418 96.4089C255.811 96.6212 256.129 96.8865 256.374 97.2049C256.618 97.5233 256.74 97.9267 256.74 98.4149C256.74 98.9455 256.602 99.3913 256.326 99.7521C256.06 100.102 255.715 100.362 255.291 100.532C254.866 100.702 254.415 100.787 253.938 100.787ZM261.151 100.787C260.652 100.787 260.19 100.718 259.766 100.58C259.341 100.453 259.002 100.299 258.747 100.118L258.795 100.644H257.951L257.871 97.9054H258.54C258.561 98.2981 258.683 98.6537 258.906 98.9721C259.129 99.2905 259.416 99.5399 259.766 99.7203C260.127 99.9007 260.514 99.9909 260.928 99.9909C261.172 99.9909 261.411 99.9538 261.644 99.8795C261.878 99.7946 262.074 99.6725 262.233 99.5133C262.393 99.3435 262.472 99.1366 262.472 98.8925C262.472 98.6271 262.387 98.4096 262.218 98.2397C262.058 98.0593 261.835 97.9001 261.549 97.7621C261.273 97.6242 260.955 97.4862 260.594 97.3482C260.275 97.2209 259.952 97.0882 259.623 96.9502C259.304 96.8123 259.007 96.6477 258.731 96.4567C258.455 96.2657 258.238 96.0322 258.078 95.7562C257.919 95.4697 257.84 95.1194 257.84 94.7055C257.84 94.4614 257.887 94.2014 257.983 93.9254C258.078 93.6389 258.232 93.3788 258.444 93.1453C258.657 92.9012 258.943 92.7049 259.304 92.5563C259.665 92.3971 260.111 92.3175 260.641 92.3175C260.928 92.3175 261.246 92.3653 261.597 92.4608C261.957 92.5563 262.292 92.7208 262.6 92.9543L262.584 92.3971H263.427V95.199H262.743C262.711 94.8276 262.61 94.4826 262.44 94.1642C262.281 93.8458 262.053 93.5858 261.756 93.3841C261.459 93.1825 261.098 93.0817 260.673 93.0817C260.259 93.0817 259.92 93.1878 259.654 93.4001C259.4 93.6017 259.272 93.8564 259.272 94.1642C259.272 94.472 259.368 94.7214 259.559 94.9125C259.761 95.1035 260.021 95.268 260.339 95.406C260.657 95.544 261.002 95.6819 261.374 95.8199C261.82 96.0003 262.239 96.1967 262.631 96.4089C263.024 96.6212 263.343 96.8865 263.587 97.2049C263.831 97.5233 263.953 97.9267 263.953 98.4149C263.953 98.9455 263.815 99.3913 263.539 99.7521C263.274 100.102 262.929 100.362 262.504 100.532C262.08 100.702 261.628 100.787 261.151 100.787Z" fill="#132638"/>
<path d="M108.741 171.73L106.379 164.63C106.247 164.232 106.141 163.909 106.061 163.662C105.99 163.414 105.942 163.202 105.915 163.025C105.773 163.034 105.641 163.038 105.517 163.038C105.393 163.038 105.269 163.042 105.145 163.051V162.321H108.596V162.905C108.144 162.923 107.857 163.02 107.733 163.197C107.618 163.374 107.627 163.71 107.759 164.206C107.91 164.763 108.065 165.281 108.224 165.758C108.383 166.236 108.542 166.74 108.702 167.271C108.808 167.634 108.914 167.974 109.02 168.293C109.135 168.602 109.25 168.965 109.365 169.381H109.378C109.423 169.239 109.471 169.071 109.524 168.877C109.586 168.682 109.648 168.483 109.71 168.28C109.772 168.067 109.83 167.877 109.883 167.709C109.936 167.532 109.976 167.399 110.002 167.311C110.214 166.639 110.422 165.979 110.626 165.334C110.838 164.688 111.028 164.104 111.196 163.582C111.365 163.06 111.493 162.635 111.581 162.308H112.271C112.36 162.635 112.475 163.02 112.616 163.463C112.767 163.896 112.917 164.347 113.067 164.816C113.218 165.276 113.364 165.723 113.505 166.156C113.647 166.581 113.766 166.953 113.864 167.271C113.979 167.634 114.094 168.001 114.209 168.372C114.333 168.735 114.443 169.111 114.54 169.5H114.567C114.647 169.235 114.731 168.956 114.819 168.664C114.916 168.364 115.009 168.058 115.098 167.749C115.275 167.236 115.421 166.793 115.536 166.422C115.66 166.05 115.761 165.727 115.841 165.453C115.921 165.179 115.991 164.931 116.053 164.71C116.124 164.489 116.195 164.272 116.266 164.06C116.319 163.892 116.381 163.715 116.451 163.529C116.522 163.334 116.611 163.162 116.717 163.011C116.549 163.02 116.367 163.029 116.173 163.038C115.987 163.038 115.819 163.042 115.668 163.051V162.321H118.455V162.905C118.19 162.932 117.969 162.994 117.792 163.091C117.624 163.188 117.473 163.361 117.34 163.609C117.208 163.847 117.057 164.206 116.889 164.683C116.5 165.878 116.115 167.059 115.735 168.227C115.363 169.394 114.978 170.562 114.58 171.73H113.917L112.059 166.302C111.962 166.037 111.873 165.776 111.794 165.519C111.723 165.254 111.652 164.997 111.581 164.75C111.519 164.997 111.453 165.245 111.382 165.493C111.311 165.732 111.236 165.975 111.157 166.223L109.392 171.73H108.741ZM121.164 171.823C120.545 171.823 119.988 171.681 119.492 171.398C119.006 171.106 118.621 170.699 118.338 170.177C118.055 169.646 117.913 169.023 117.913 168.306C117.913 167.687 118.05 167.107 118.325 166.568C118.608 166.028 119.001 165.595 119.506 165.267C120.01 164.931 120.594 164.763 121.257 164.763C121.629 164.763 121.978 164.821 122.306 164.936C122.642 165.051 122.938 165.232 123.195 165.48C123.46 165.718 123.668 166.033 123.818 166.422C123.969 166.802 124.044 167.267 124.044 167.815L119.479 167.895C119.479 168.496 119.545 169.032 119.678 169.5C119.82 169.969 120.045 170.332 120.355 170.589C120.664 170.845 121.067 170.973 121.562 170.973C121.801 170.973 122.053 170.934 122.319 170.854C122.593 170.765 122.85 170.642 123.088 170.482C123.336 170.323 123.544 170.133 123.712 169.912L124.124 170.27C123.858 170.668 123.553 170.982 123.208 171.212C122.863 171.433 122.509 171.588 122.146 171.677C121.792 171.774 121.465 171.823 121.164 171.823ZM119.532 167.205H122.597C122.597 166.869 122.549 166.568 122.452 166.302C122.363 166.028 122.221 165.811 122.027 165.652C121.832 165.493 121.585 165.413 121.284 165.413C120.815 165.413 120.43 165.564 120.129 165.864C119.828 166.156 119.629 166.603 119.532 167.205ZM128.04 171.823C127.421 171.823 126.863 171.681 126.368 171.398C125.881 171.106 125.496 170.699 125.213 170.177C124.93 169.646 124.789 169.023 124.789 168.306C124.789 167.687 124.926 167.107 125.2 166.568C125.483 166.028 125.877 165.595 126.381 165.267C126.885 164.931 127.469 164.763 128.133 164.763C128.504 164.763 128.854 164.821 129.181 164.936C129.517 165.051 129.814 165.232 130.07 165.48C130.335 165.718 130.543 166.033 130.694 166.422C130.844 166.802 130.919 167.267 130.919 167.815L126.354 167.895C126.354 168.496 126.421 169.032 126.554 169.5C126.695 169.969 126.921 170.332 127.23 170.589C127.54 170.845 127.942 170.973 128.438 170.973C128.677 170.973 128.929 170.934 129.194 170.854C129.469 170.765 129.725 170.642 129.964 170.482C130.212 170.323 130.42 170.133 130.588 169.912L130.999 170.27C130.734 170.668 130.428 170.982 130.083 171.212C129.738 171.433 129.384 171.588 129.022 171.677C128.668 171.774 128.341 171.823 128.04 171.823ZM126.408 167.205H129.473C129.473 166.869 129.424 166.568 129.327 166.302C129.239 166.028 129.097 165.811 128.902 165.652C128.708 165.493 128.46 165.413 128.159 165.413C127.69 165.413 127.306 165.564 127.005 165.864C126.704 166.156 126.505 166.603 126.408 167.205ZM131.623 171.61V171.053C131.889 171.053 132.07 170.991 132.167 170.867C132.274 170.743 132.336 170.571 132.353 170.35C132.38 170.129 132.393 169.872 132.393 169.58L132.406 163.582C132.406 163.432 132.406 163.281 132.406 163.131C132.415 162.972 132.428 162.803 132.446 162.627C132.296 162.635 132.136 162.644 131.968 162.653C131.8 162.653 131.65 162.658 131.517 162.666V161.963C131.906 161.963 132.216 161.945 132.446 161.91C132.685 161.866 132.871 161.817 133.003 161.764C133.136 161.711 133.229 161.653 133.282 161.592H133.786V167.789H134.357L135.75 166.289C135.892 166.148 136.016 166.024 136.122 165.918C136.228 165.811 136.334 165.718 136.44 165.639L135.604 165.665V164.975H138.219V165.519C137.909 165.555 137.626 165.648 137.369 165.798C137.122 165.94 136.896 166.103 136.693 166.289C136.489 166.475 136.317 166.647 136.175 166.807L135.193 167.842C135.361 167.921 135.507 168.023 135.631 168.147C135.755 168.262 135.887 168.412 136.029 168.598L136.958 169.792C137.002 169.845 137.073 169.943 137.17 170.084C137.276 170.217 137.4 170.359 137.542 170.509C137.683 170.659 137.829 170.788 137.98 170.894C138.139 171 138.289 171.053 138.431 171.053V171.61H137.117C136.861 171.61 136.622 171.491 136.401 171.252C136.188 171.013 135.954 170.726 135.697 170.39C135.485 170.106 135.29 169.841 135.113 169.593C134.936 169.337 134.773 169.107 134.622 168.903C134.481 168.7 134.357 168.541 134.251 168.426L133.786 168.452V169.965C133.786 170.124 133.782 170.288 133.773 170.456C133.773 170.615 133.76 170.779 133.733 170.947C133.875 170.938 134.021 170.934 134.171 170.934C134.322 170.925 134.459 170.916 134.583 170.907V171.61H131.623ZM146.969 169.925C146.969 170.12 146.965 170.31 146.956 170.496C146.956 170.673 146.943 170.823 146.916 170.947C147.084 170.938 147.257 170.934 147.434 170.934C147.619 170.925 147.783 170.916 147.925 170.907V171.61H144.448V171.026H144.541C144.806 171.009 145.014 170.947 145.164 170.841C145.315 170.726 145.421 170.562 145.483 170.35C145.545 170.137 145.576 169.863 145.576 169.527V169.102H141.688V168.253L146.412 162.109H146.969V168.173L148.296 168.187V169.102H146.969V169.925ZM145.549 164.299L142.683 168.12L145.576 168.147V164.299H145.549Z" fill="#5A5450"/>
<path d="M49.7415 171.73L47.3794 164.63C47.2467 164.232 47.1406 163.909 47.0609 163.662C46.9902 163.414 46.9415 163.202 46.915 163.025C46.7734 163.034 46.6407 163.038 46.5169 163.038C46.393 163.038 46.2692 163.042 46.1453 163.051V162.321H49.5955V162.905C49.1443 162.923 48.8568 163.02 48.733 163.197C48.618 163.374 48.6268 163.71 48.7595 164.206C48.9099 164.763 49.0647 165.281 49.2239 165.758C49.3832 166.236 49.5424 166.74 49.7017 167.271C49.8078 167.634 49.914 167.974 50.0201 168.293C50.1352 168.602 50.2502 168.965 50.3652 169.381H50.3784C50.4227 169.239 50.4713 169.071 50.5244 168.877C50.5863 168.682 50.6483 168.483 50.7102 168.28C50.7721 168.067 50.8296 167.877 50.8827 167.709C50.9358 167.532 50.9756 167.399 51.0021 167.311C51.2144 166.639 51.4223 165.979 51.6258 165.334C51.8381 164.688 52.0283 164.104 52.1964 163.582C52.3645 163.06 52.4928 162.635 52.5813 162.308H53.2713C53.3598 162.635 53.4748 163.02 53.6163 163.463C53.7667 163.896 53.9171 164.347 54.0675 164.816C54.2179 165.276 54.3639 165.723 54.5054 166.156C54.647 166.581 54.7664 166.953 54.8637 167.271C54.9787 167.634 55.0937 168.001 55.2087 168.372C55.3326 168.735 55.4432 169.111 55.5405 169.5H55.567C55.6466 169.235 55.7307 168.956 55.8191 168.664C55.9165 168.364 56.0093 168.058 56.0978 167.749C56.2747 167.236 56.4207 166.793 56.5357 166.422C56.6596 166.05 56.7613 165.727 56.8409 165.453C56.9206 165.179 56.9913 164.931 57.0532 164.71C57.124 164.489 57.1948 164.272 57.2656 164.06C57.3186 163.892 57.3806 163.715 57.4514 163.529C57.5221 163.334 57.6106 163.162 57.7167 163.011C57.5487 163.02 57.3673 163.029 57.1727 163.038C56.9869 163.038 56.8188 163.042 56.6684 163.051V162.321H59.4551V162.905C59.1897 162.932 58.9686 162.994 58.7916 163.091C58.6235 163.188 58.4731 163.361 58.3404 163.609C58.2077 163.847 58.0573 164.206 57.8893 164.683C57.5 165.878 57.1152 167.059 56.7348 168.227C56.3632 169.394 55.9784 170.562 55.5803 171.73H54.9168L53.059 166.302C52.9617 166.037 52.8732 165.776 52.7936 165.519C52.7228 165.254 52.652 164.997 52.5813 164.75C52.5193 164.997 52.453 165.245 52.3822 165.493C52.3114 165.732 52.2362 165.975 52.1566 166.223L50.3917 171.73H49.7415ZM62.1643 171.823C61.5451 171.823 60.9877 171.681 60.4923 171.398C60.0057 171.106 59.6209 170.699 59.3378 170.177C59.0547 169.646 58.9132 169.023 58.9132 168.306C58.9132 167.687 59.0503 167.107 59.3245 166.568C59.6076 166.028 60.0013 165.595 60.5056 165.267C61.0098 164.931 61.5937 164.763 62.2572 164.763C62.6288 164.763 62.9782 164.821 63.3055 164.936C63.6417 165.051 63.9381 165.232 64.1946 165.48C64.46 165.718 64.6679 166.033 64.8183 166.422C64.9687 166.802 65.0439 167.267 65.0439 167.815L60.479 167.895C60.479 168.496 60.5454 169.032 60.6781 169.5C60.8196 169.969 61.0452 170.332 61.3549 170.589C61.6645 170.845 62.067 170.973 62.5624 170.973C62.8013 170.973 63.0534 170.934 63.3188 170.854C63.5931 170.765 63.8496 170.642 64.0885 170.482C64.3362 170.323 64.5441 170.133 64.7122 169.912L65.1235 170.27C64.8581 170.668 64.5529 170.982 64.2079 171.212C63.8629 171.433 63.509 171.588 63.1463 171.677C62.7924 171.774 62.4651 171.823 62.1643 171.823ZM60.5321 167.205H63.5975C63.5975 166.869 63.5488 166.568 63.4515 166.302C63.363 166.028 63.2215 165.811 63.0269 165.652C62.8322 165.493 62.5845 165.413 62.2838 165.413C61.8149 165.413 61.43 165.564 61.1293 165.864C60.8285 166.156 60.6294 166.603 60.5321 167.205ZM69.0398 171.823C68.4205 171.823 67.8632 171.681 67.3678 171.398C66.8812 171.106 66.4964 170.699 66.2133 170.177C65.9302 169.646 65.7886 169.023 65.7886 168.306C65.7886 167.687 65.9258 167.107 66.2 166.568C66.4831 166.028 66.8768 165.595 67.381 165.267C67.8853 164.931 68.4692 164.763 69.1327 164.763C69.5042 164.763 69.8537 164.821 70.181 164.936C70.5172 165.051 70.8135 165.232 71.0701 165.48C71.3355 165.718 71.5434 166.033 71.6938 166.422C71.8442 166.802 71.9194 167.267 71.9194 167.815L67.3545 167.895C67.3545 168.496 67.4208 169.032 67.5535 169.5C67.6951 169.969 67.9207 170.332 68.2303 170.589C68.54 170.845 68.9425 170.973 69.4379 170.973C69.6767 170.973 69.9289 170.934 70.1943 170.854C70.4685 170.765 70.7251 170.642 70.9639 170.482C71.2116 170.323 71.4195 170.133 71.5876 169.912L71.999 170.27C71.7336 170.668 71.4284 170.982 71.0834 171.212C70.7383 171.433 70.3845 171.588 70.0218 171.677C69.6679 171.774 69.3406 171.823 69.0398 171.823ZM67.4076 167.205H70.4729C70.4729 166.869 70.4243 166.568 70.327 166.302C70.2385 166.028 70.097 165.811 69.9023 165.652C69.7077 165.493 69.46 165.413 69.1592 165.413C68.6903 165.413 68.3055 165.564 68.0047 165.864C67.7039 166.156 67.5049 166.603 67.4076 167.205ZM72.6234 171.61V171.053C72.8888 171.053 73.0701 170.991 73.1674 170.867C73.2736 170.743 73.3355 170.571 73.3532 170.35C73.3798 170.129 73.393 169.872 73.393 169.58L73.4063 163.582C73.4063 163.432 73.4063 163.281 73.4063 163.131C73.4151 162.972 73.4284 162.803 73.4461 162.627C73.2957 162.635 73.1365 162.644 72.9684 162.653C72.8003 162.653 72.6499 162.658 72.5172 162.666V161.963C72.9065 161.963 73.2161 161.945 73.4461 161.91C73.685 161.866 73.8707 161.817 74.0034 161.764C74.1361 161.711 74.229 161.653 74.2821 161.592H74.7864V167.789H75.357L76.7503 166.289C76.8919 166.148 77.0157 166.024 77.1219 165.918C77.2281 165.811 77.3342 165.718 77.4404 165.639L76.6044 165.665V164.975H79.2186V165.519C78.9089 165.555 78.6258 165.648 78.3693 165.798C78.1216 165.94 77.896 166.103 77.6925 166.289C77.489 166.475 77.3165 166.647 77.175 166.807L76.193 167.842C76.3611 167.921 76.507 168.023 76.6309 168.147C76.7548 168.262 76.8875 168.412 77.029 168.598L77.9579 169.792C78.0021 169.845 78.0729 169.943 78.1702 170.084C78.2764 170.217 78.4002 170.359 78.5418 170.509C78.6833 170.659 78.8293 170.788 78.9797 170.894C79.1389 171 79.2893 171.053 79.4309 171.053V171.61H78.1171C77.8606 171.61 77.6217 171.491 77.4006 171.252C77.1882 171.013 76.9538 170.726 76.6973 170.39C76.4849 170.106 76.2903 169.841 76.1134 169.593C75.9364 169.337 75.7728 169.107 75.6224 168.903C75.4808 168.7 75.357 168.541 75.2508 168.426L74.7864 168.452V169.965C74.7864 170.124 74.7819 170.288 74.7731 170.456C74.7731 170.615 74.7598 170.779 74.7333 170.947C74.8748 170.938 75.0208 170.934 75.1712 170.934C75.3216 170.925 75.4587 170.916 75.5826 170.907V171.61H72.6234ZM86.682 171.823C86.0096 171.823 85.4479 171.681 84.9967 171.398C84.5455 171.106 84.1917 170.726 83.9351 170.257C83.6785 169.779 83.4928 169.257 83.3778 168.691C83.2716 168.125 83.2185 167.563 83.2185 167.006C83.2185 166.448 83.2849 165.882 83.4176 165.307C83.5591 164.732 83.7714 164.206 84.0545 163.728C84.3376 163.241 84.7003 162.852 85.1427 162.56C85.585 162.259 86.1158 162.109 86.7351 162.109C87.3809 162.109 87.9205 162.255 88.354 162.547C88.7963 162.839 89.1502 163.224 89.4156 163.701C89.681 164.17 89.8712 164.688 89.9862 165.254C90.1012 165.82 90.1587 166.382 90.1587 166.939C90.1587 167.488 90.0924 168.05 89.9597 168.625C89.827 169.2 89.6191 169.73 89.336 170.217C89.0617 170.695 88.7035 171.084 88.2611 171.385C87.8276 171.677 87.3013 171.823 86.682 171.823ZM86.7616 171.159C87.1243 171.159 87.4207 171.049 87.6507 170.827C87.8807 170.606 88.0621 170.305 88.1948 169.925C88.3363 169.545 88.4336 169.12 88.4867 168.651C88.5398 168.182 88.5663 167.705 88.5663 167.218C88.5663 166.678 88.5398 166.148 88.4867 165.626C88.4336 165.095 88.3363 164.613 88.1948 164.179C88.0621 163.746 87.8763 163.401 87.6374 163.144C87.3986 162.888 87.0889 162.759 86.7085 162.759C86.3547 162.759 86.0539 162.87 85.8062 163.091C85.5585 163.312 85.3594 163.613 85.209 163.993C85.0675 164.374 84.9613 164.803 84.8905 165.281C84.8286 165.749 84.7977 166.232 84.7977 166.727C84.7977 167.099 84.8109 167.488 84.8375 167.895C84.8728 168.302 84.9304 168.7 85.01 169.089C85.0984 169.478 85.2134 169.828 85.355 170.137C85.5054 170.447 85.6956 170.695 85.9256 170.881C86.1556 171.066 86.4343 171.159 86.7616 171.159Z" fill="#5A5450"/>
<path d="M166.741 171.73L164.379 164.63C164.247 164.232 164.141 163.909 164.061 163.662C163.99 163.414 163.942 163.202 163.915 163.025C163.773 163.034 163.641 163.038 163.517 163.038C163.393 163.038 163.269 163.042 163.145 163.051V162.321H166.596V162.905C166.144 162.923 165.857 163.02 165.733 163.197C165.618 163.374 165.627 163.71 165.759 164.206C165.91 164.763 166.065 165.281 166.224 165.758C166.383 166.236 166.542 166.74 166.702 167.271C166.808 167.634 166.914 167.974 167.02 168.293C167.135 168.602 167.25 168.965 167.365 169.381H167.378C167.423 169.239 167.471 169.071 167.524 168.877C167.586 168.682 167.648 168.483 167.71 168.28C167.772 168.067 167.83 167.877 167.883 167.709C167.936 167.532 167.976 167.399 168.002 167.311C168.214 166.639 168.422 165.979 168.626 165.334C168.838 164.688 169.028 164.104 169.196 163.582C169.365 163.06 169.493 162.635 169.581 162.308H170.271C170.36 162.635 170.475 163.02 170.616 163.463C170.767 163.896 170.917 164.347 171.067 164.816C171.218 165.276 171.364 165.723 171.505 166.156C171.647 166.581 171.766 166.953 171.864 167.271C171.979 167.634 172.094 168.001 172.209 168.372C172.333 168.735 172.443 169.111 172.54 169.5H172.567C172.647 169.235 172.731 168.956 172.819 168.664C172.916 168.364 173.009 168.058 173.098 167.749C173.275 167.236 173.421 166.793 173.536 166.422C173.66 166.05 173.761 165.727 173.841 165.453C173.921 165.179 173.991 164.931 174.053 164.71C174.124 164.489 174.195 164.272 174.266 164.06C174.319 163.892 174.381 163.715 174.451 163.529C174.522 163.334 174.611 163.162 174.717 163.011C174.549 163.02 174.367 163.029 174.173 163.038C173.987 163.038 173.819 163.042 173.668 163.051V162.321H176.455V162.905C176.19 162.932 175.969 162.994 175.792 163.091C175.624 163.188 175.473 163.361 175.34 163.609C175.208 163.847 175.057 164.206 174.889 164.683C174.5 165.878 174.115 167.059 173.735 168.227C173.363 169.394 172.978 170.562 172.58 171.73H171.917L170.059 166.302C169.962 166.037 169.873 165.776 169.794 165.519C169.723 165.254 169.652 164.997 169.581 164.75C169.519 164.997 169.453 165.245 169.382 165.493C169.311 165.732 169.236 165.975 169.157 166.223L167.392 171.73H166.741ZM179.164 171.823C178.545 171.823 177.988 171.681 177.492 171.398C177.006 171.106 176.621 170.699 176.338 170.177C176.055 169.646 175.913 169.023 175.913 168.306C175.913 167.687 176.05 167.107 176.325 166.568C176.608 166.028 177.001 165.595 177.506 165.267C178.01 164.931 178.594 164.763 179.257 164.763C179.629 164.763 179.978 164.821 180.306 164.936C180.642 165.051 180.938 165.232 181.195 165.48C181.46 165.718 181.668 166.033 181.818 166.422C181.969 166.802 182.044 167.267 182.044 167.815L177.479 167.895C177.479 168.496 177.545 169.032 177.678 169.5C177.82 169.969 178.045 170.332 178.355 170.589C178.664 170.845 179.067 170.973 179.562 170.973C179.801 170.973 180.053 170.934 180.319 170.854C180.593 170.765 180.85 170.642 181.088 170.482C181.336 170.323 181.544 170.133 181.712 169.912L182.124 170.27C181.858 170.668 181.553 170.982 181.208 171.212C180.863 171.433 180.509 171.588 180.146 171.677C179.792 171.774 179.465 171.823 179.164 171.823ZM177.532 167.205H180.597C180.597 166.869 180.549 166.568 180.452 166.302C180.363 166.028 180.221 165.811 180.027 165.652C179.832 165.493 179.585 165.413 179.284 165.413C178.815 165.413 178.43 165.564 178.129 165.864C177.828 166.156 177.629 166.603 177.532 167.205ZM186.04 171.823C185.421 171.823 184.863 171.681 184.368 171.398C183.881 171.106 183.496 170.699 183.213 170.177C182.93 169.646 182.789 169.023 182.789 168.306C182.789 167.687 182.926 167.107 183.2 166.568C183.483 166.028 183.877 165.595 184.381 165.267C184.885 164.931 185.469 164.763 186.133 164.763C186.504 164.763 186.854 164.821 187.181 164.936C187.517 165.051 187.814 165.232 188.07 165.48C188.335 165.718 188.543 166.033 188.694 166.422C188.844 166.802 188.919 167.267 188.919 167.815L184.354 167.895C184.354 168.496 184.421 169.032 184.554 169.5C184.695 169.969 184.921 170.332 185.23 170.589C185.54 170.845 185.942 170.973 186.438 170.973C186.677 170.973 186.929 170.934 187.194 170.854C187.469 170.765 187.725 170.642 187.964 170.482C188.212 170.323 188.42 170.133 188.588 169.912L188.999 170.27C188.734 170.668 188.428 170.982 188.083 171.212C187.738 171.433 187.384 171.588 187.022 171.677C186.668 171.774 186.341 171.823 186.04 171.823ZM184.408 167.205H187.473C187.473 166.869 187.424 166.568 187.327 166.302C187.239 166.028 187.097 165.811 186.902 165.652C186.708 165.493 186.46 165.413 186.159 165.413C185.69 165.413 185.306 165.564 185.005 165.864C184.704 166.156 184.505 166.603 184.408 167.205ZM189.623 171.61V171.053C189.889 171.053 190.07 170.991 190.167 170.867C190.274 170.743 190.336 170.571 190.353 170.35C190.38 170.129 190.393 169.872 190.393 169.58L190.406 163.582C190.406 163.432 190.406 163.281 190.406 163.131C190.415 162.972 190.428 162.803 190.446 162.627C190.296 162.635 190.136 162.644 189.968 162.653C189.8 162.653 189.65 162.658 189.517 162.666V161.963C189.906 161.963 190.216 161.945 190.446 161.91C190.685 161.866 190.871 161.817 191.003 161.764C191.136 161.711 191.229 161.653 191.282 161.592H191.786V167.789H192.357L193.75 166.289C193.892 166.148 194.016 166.024 194.122 165.918C194.228 165.811 194.334 165.718 194.44 165.639L193.604 165.665V164.975H196.219V165.519C195.909 165.555 195.626 165.648 195.369 165.798C195.122 165.94 194.896 166.103 194.693 166.289C194.489 166.475 194.317 166.647 194.175 166.807L193.193 167.842C193.361 167.921 193.507 168.023 193.631 168.147C193.755 168.262 193.887 168.412 194.029 168.598L194.958 169.792C195.002 169.845 195.073 169.943 195.17 170.084C195.276 170.217 195.4 170.359 195.542 170.509C195.683 170.659 195.829 170.788 195.98 170.894C196.139 171 196.289 171.053 196.431 171.053V171.61H195.117C194.861 171.61 194.622 171.491 194.401 171.252C194.188 171.013 193.954 170.726 193.697 170.39C193.485 170.106 193.29 169.841 193.113 169.593C192.936 169.337 192.773 169.107 192.622 168.903C192.481 168.7 192.357 168.541 192.251 168.426L191.786 168.452V169.965C191.786 170.124 191.782 170.288 191.773 170.456C191.773 170.615 191.76 170.779 191.733 170.947C191.875 170.938 192.021 170.934 192.171 170.934C192.322 170.925 192.459 170.916 192.583 170.907V171.61H189.623ZM203.218 171.823C202.908 171.823 202.581 171.783 202.236 171.703C201.899 171.632 201.585 171.513 201.293 171.345C201.001 171.168 200.763 170.938 200.577 170.655C200.391 170.363 200.298 170.005 200.298 169.58C200.298 169.208 200.391 168.859 200.577 168.532C200.763 168.204 201.001 167.908 201.293 167.643C201.585 167.377 201.895 167.147 202.222 166.953C201.585 166.554 201.134 166.148 200.869 165.732C200.603 165.316 200.471 164.922 200.471 164.551C200.471 164.135 200.555 163.772 200.723 163.463C200.891 163.153 201.116 162.901 201.4 162.706C201.683 162.503 201.992 162.352 202.328 162.255C202.673 162.158 203.014 162.109 203.35 162.109C203.801 162.109 204.226 162.193 204.624 162.361C205.031 162.529 205.358 162.777 205.606 163.104C205.863 163.423 205.991 163.816 205.991 164.285C205.991 164.613 205.907 164.922 205.739 165.214C205.58 165.497 205.367 165.754 205.102 165.984C204.845 166.205 204.567 166.395 204.266 166.554C204.682 166.802 205.049 167.076 205.367 167.377C205.695 167.669 205.947 167.988 206.124 168.333C206.309 168.669 206.402 169.018 206.402 169.381C206.402 169.947 206.252 170.412 205.951 170.774C205.659 171.128 205.27 171.394 204.783 171.571C204.297 171.739 203.775 171.823 203.218 171.823ZM203.244 171.159C203.766 171.168 204.173 171.035 204.465 170.761C204.757 170.478 204.903 170.106 204.903 169.646C204.903 169.222 204.752 168.806 204.452 168.399C204.16 167.983 203.633 167.607 202.873 167.271C202.43 167.598 202.107 167.957 201.904 168.346C201.709 168.735 201.603 169.08 201.585 169.381C201.55 169.894 201.687 170.319 201.997 170.655C202.306 170.982 202.722 171.15 203.244 171.159ZM203.669 166.196C204.023 165.948 204.301 165.665 204.505 165.347C204.708 165.02 204.814 164.706 204.823 164.405C204.841 163.874 204.713 163.471 204.438 163.197C204.173 162.914 203.828 162.768 203.403 162.759C203.085 162.759 202.815 162.83 202.594 162.972C202.373 163.104 202.205 163.286 202.09 163.516C201.975 163.737 201.917 163.976 201.917 164.232C201.917 164.675 202.085 165.068 202.421 165.413C202.766 165.758 203.182 166.019 203.669 166.196Z" fill="#5A5450"/>
<path d="M225.741 171.73L223.379 164.63C223.247 164.232 223.141 163.909 223.061 163.662C222.99 163.414 222.942 163.202 222.915 163.025C222.773 163.034 222.641 163.038 222.517 163.038C222.393 163.038 222.269 163.042 222.145 163.051V162.321H225.596V162.905C225.144 162.923 224.857 163.02 224.733 163.197C224.618 163.374 224.627 163.71 224.759 164.206C224.91 164.763 225.065 165.281 225.224 165.758C225.383 166.236 225.542 166.74 225.702 167.271C225.808 167.634 225.914 167.974 226.02 168.293C226.135 168.602 226.25 168.965 226.365 169.381H226.378C226.423 169.239 226.471 169.071 226.524 168.877C226.586 168.682 226.648 168.483 226.71 168.28C226.772 168.067 226.83 167.877 226.883 167.709C226.936 167.532 226.976 167.399 227.002 167.311C227.214 166.639 227.422 165.979 227.626 165.334C227.838 164.688 228.028 164.104 228.196 163.582C228.365 163.06 228.493 162.635 228.581 162.308H229.271C229.36 162.635 229.475 163.02 229.616 163.463C229.767 163.896 229.917 164.347 230.067 164.816C230.218 165.276 230.364 165.723 230.505 166.156C230.647 166.581 230.766 166.953 230.864 167.271C230.979 167.634 231.094 168.001 231.209 168.372C231.333 168.735 231.443 169.111 231.54 169.5H231.567C231.647 169.235 231.731 168.956 231.819 168.664C231.916 168.364 232.009 168.058 232.098 167.749C232.275 167.236 232.421 166.793 232.536 166.422C232.66 166.05 232.761 165.727 232.841 165.453C232.921 165.179 232.991 164.931 233.053 164.71C233.124 164.489 233.195 164.272 233.266 164.06C233.319 163.892 233.381 163.715 233.451 163.529C233.522 163.334 233.611 163.162 233.717 163.011C233.549 163.02 233.367 163.029 233.173 163.038C232.987 163.038 232.819 163.042 232.668 163.051V162.321H235.455V162.905C235.19 162.932 234.969 162.994 234.792 163.091C234.624 163.188 234.473 163.361 234.34 163.609C234.208 163.847 234.057 164.206 233.889 164.683C233.5 165.878 233.115 167.059 232.735 168.227C232.363 169.394 231.978 170.562 231.58 171.73H230.917L229.059 166.302C228.962 166.037 228.873 165.776 228.794 165.519C228.723 165.254 228.652 164.997 228.581 164.75C228.519 164.997 228.453 165.245 228.382 165.493C228.311 165.732 228.236 165.975 228.157 166.223L226.392 171.73H225.741ZM238.164 171.823C237.545 171.823 236.988 171.681 236.492 171.398C236.006 171.106 235.621 170.699 235.338 170.177C235.055 169.646 234.913 169.023 234.913 168.306C234.913 167.687 235.05 167.107 235.325 166.568C235.608 166.028 236.001 165.595 236.506 165.267C237.01 164.931 237.594 164.763 238.257 164.763C238.629 164.763 238.978 164.821 239.306 164.936C239.642 165.051 239.938 165.232 240.195 165.48C240.46 165.718 240.668 166.033 240.818 166.422C240.969 166.802 241.044 167.267 241.044 167.815L236.479 167.895C236.479 168.496 236.545 169.032 236.678 169.5C236.82 169.969 237.045 170.332 237.355 170.589C237.664 170.845 238.067 170.973 238.562 170.973C238.801 170.973 239.053 170.934 239.319 170.854C239.593 170.765 239.85 170.642 240.088 170.482C240.336 170.323 240.544 170.133 240.712 169.912L241.124 170.27C240.858 170.668 240.553 170.982 240.208 171.212C239.863 171.433 239.509 171.588 239.146 171.677C238.792 171.774 238.465 171.823 238.164 171.823ZM236.532 167.205H239.597C239.597 166.869 239.549 166.568 239.452 166.302C239.363 166.028 239.221 165.811 239.027 165.652C238.832 165.493 238.585 165.413 238.284 165.413C237.815 165.413 237.43 165.564 237.129 165.864C236.828 166.156 236.629 166.603 236.532 167.205ZM245.04 171.823C244.421 171.823 243.863 171.681 243.368 171.398C242.881 171.106 242.496 170.699 242.213 170.177C241.93 169.646 241.789 169.023 241.789 168.306C241.789 167.687 241.926 167.107 242.2 166.568C242.483 166.028 242.877 165.595 243.381 165.267C243.885 164.931 244.469 164.763 245.133 164.763C245.504 164.763 245.854 164.821 246.181 164.936C246.517 165.051 246.814 165.232 247.07 165.48C247.335 165.718 247.543 166.033 247.694 166.422C247.844 166.802 247.919 167.267 247.919 167.815L243.354 167.895C243.354 168.496 243.421 169.032 243.554 169.5C243.695 169.969 243.921 170.332 244.23 170.589C244.54 170.845 244.942 170.973 245.438 170.973C245.677 170.973 245.929 170.934 246.194 170.854C246.469 170.765 246.725 170.642 246.964 170.482C247.212 170.323 247.42 170.133 247.588 169.912L247.999 170.27C247.734 170.668 247.428 170.982 247.083 171.212C246.738 171.433 246.384 171.588 246.022 171.677C245.668 171.774 245.341 171.823 245.04 171.823ZM243.408 167.205H246.473C246.473 166.869 246.424 166.568 246.327 166.302C246.239 166.028 246.097 165.811 245.902 165.652C245.708 165.493 245.46 165.413 245.159 165.413C244.69 165.413 244.306 165.564 244.005 165.864C243.704 166.156 243.505 166.603 243.408 167.205ZM248.623 171.61V171.053C248.889 171.053 249.07 170.991 249.167 170.867C249.274 170.743 249.336 170.571 249.353 170.35C249.38 170.129 249.393 169.872 249.393 169.58L249.406 163.582C249.406 163.432 249.406 163.281 249.406 163.131C249.415 162.972 249.428 162.803 249.446 162.627C249.296 162.635 249.136 162.644 248.968 162.653C248.8 162.653 248.65 162.658 248.517 162.666V161.963C248.906 161.963 249.216 161.945 249.446 161.91C249.685 161.866 249.871 161.817 250.003 161.764C250.136 161.711 250.229 161.653 250.282 161.592H250.786V167.789H251.357L252.75 166.289C252.892 166.148 253.016 166.024 253.122 165.918C253.228 165.811 253.334 165.718 253.44 165.639L252.604 165.665V164.975H255.219V165.519C254.909 165.555 254.626 165.648 254.369 165.798C254.122 165.94 253.896 166.103 253.693 166.289C253.489 166.475 253.317 166.647 253.175 166.807L252.193 167.842C252.361 167.921 252.507 168.023 252.631 168.147C252.755 168.262 252.887 168.412 253.029 168.598L253.958 169.792C254.002 169.845 254.073 169.943 254.17 170.084C254.276 170.217 254.4 170.359 254.542 170.509C254.683 170.659 254.829 170.788 254.98 170.894C255.139 171 255.289 171.053 255.431 171.053V171.61H254.117C253.861 171.61 253.622 171.491 253.401 171.252C253.188 171.013 252.954 170.726 252.697 170.39C252.485 170.106 252.29 169.841 252.113 169.593C251.936 169.337 251.773 169.107 251.622 168.903C251.481 168.7 251.357 168.541 251.251 168.426L250.786 168.452V169.965C250.786 170.124 250.782 170.288 250.773 170.456C250.773 170.615 250.76 170.779 250.733 170.947C250.875 170.938 251.021 170.934 251.171 170.934C251.322 170.925 251.459 170.916 251.583 170.907V171.61H248.623ZM259.537 171.61V171.026C259.811 171.009 260.024 170.951 260.174 170.854C260.333 170.757 260.448 170.611 260.519 170.416C260.59 170.213 260.625 169.952 260.625 169.633L260.599 163.688L259.046 164.657L258.714 164.126L261.448 162.109H262.018L262.032 169.925C262.032 170.111 262.027 170.297 262.018 170.482C262.018 170.659 262.01 170.81 261.992 170.934C262.16 170.916 262.341 170.907 262.536 170.907C262.731 170.898 262.908 170.889 263.067 170.881V171.61H259.537ZM263.863 171.61C263.863 171.141 263.929 170.726 264.062 170.363C264.203 170 264.389 169.669 264.619 169.368C264.849 169.067 265.11 168.779 265.402 168.505C265.694 168.231 265.99 167.948 266.291 167.656C266.893 167.09 267.322 166.572 267.578 166.103C267.844 165.626 267.976 165.161 267.976 164.71C267.976 164.391 267.932 164.086 267.844 163.794C267.755 163.494 267.6 163.246 267.379 163.051C267.158 162.857 266.853 162.764 266.463 162.773C266.136 162.773 265.844 162.852 265.588 163.011C265.34 163.162 265.167 163.352 265.07 163.582C265.167 163.67 265.234 163.772 265.269 163.887C265.305 164.002 265.322 164.108 265.322 164.206C265.322 164.285 265.296 164.383 265.243 164.498C265.198 164.604 265.123 164.697 265.017 164.776C264.911 164.856 264.769 164.896 264.592 164.896C264.371 164.887 264.199 164.807 264.075 164.657C263.96 164.498 263.902 164.307 263.902 164.086C263.902 163.9 263.96 163.693 264.075 163.463C264.19 163.233 264.367 163.016 264.606 162.812C264.845 162.609 265.136 162.441 265.481 162.308C265.835 162.175 266.247 162.109 266.716 162.109C267.069 162.109 267.414 162.153 267.751 162.242C268.087 162.321 268.392 162.458 268.666 162.653C268.941 162.839 269.157 163.087 269.317 163.396C269.476 163.706 269.555 164.091 269.555 164.551C269.555 164.772 269.511 165.011 269.423 165.267C269.334 165.515 269.184 165.785 268.972 166.077C268.768 166.369 268.494 166.687 268.149 167.032C267.804 167.377 267.37 167.762 266.848 168.187C266.291 168.647 265.844 169.08 265.508 169.487C265.172 169.885 264.977 170.217 264.924 170.482L267.353 170.549C267.715 170.558 268.029 170.553 268.295 170.535C268.569 170.518 268.781 170.447 268.932 170.323C269.091 170.19 269.171 169.965 269.171 169.646H269.715L269.622 171.61H263.863Z" fill="#5A5450"/>
<path d="M241.559 64.0523C241.818 63.7937 241.818 63.3743 241.559 63.1156L237.344 58.9005C237.085 58.6419 236.666 58.6419 236.407 58.9005C236.149 59.1592 236.149 59.5786 236.407 59.8372L240.154 63.584L236.407 67.3307C236.149 67.5894 236.149 68.0088 236.407 68.2674C236.666 68.5261 237.085 68.5261 237.344 68.2674L241.559 64.0523ZM184.13 62.9216C183.764 62.9216 183.467 63.2182 183.467 63.584C183.467 63.9498 183.764 64.2463 184.13 64.2463V63.584V62.9216ZM241.091 63.584V62.9216L184.13 62.9216V63.584V64.2463H241.091V63.584Z" fill="#5C97CE"/>
<rect x="196.714" y="40.4023" width="91.4026" height="4.63636" fill="#ACDCFC"/>
<circle cx="194.396" cy="42.7208" r="5.2987" fill="#FFFBF5" stroke="#5C97CE" stroke-width="1.98701"/>
<defs>
<linearGradient id="paint0_linear_5282_1190" x1="160.617" y1="40.4023" x2="160.617" y2="153.662" gradientUnits="userSpaceOnUse">
<stop stop-color="#CDEBFF"/>
<stop offset="1" stop-color="#FFFBF7"/>
</linearGradient>
<clipPath id="clip0_5282_1190">
<rect width="55.2407" height="13.4123" fill="white" transform="translate(231.156 18.5454)"/>
</clipPath>
<clipPath id="clip1_5282_1190">
<rect width="75.4728" height="18.3246" fill="white" transform="translate(210.456 14.4295)"/>
</clipPath>
</defs>
</svg>
