<svg width="326" height="254" viewBox="0 0 326 254" fill="none" xmlns="http://www.w3.org/2000/svg">
<rect width="326" height="253.992" rx="15.7108" fill="#FEFEFE"/>
<path d="M19.6802 214.327V39.6614C92.7688 136.067 241.307 158.128 306.44 157.109V214.327H19.6802Z" fill="url(#paint0_linear_5076_8372)"/>
<path d="M19.6802 39.5413C42.7266 76.8717 132.344 152.709 306.44 157.414" stroke="#5C97CE" stroke-width="4.56127" stroke-linecap="round"/>
<circle cx="21.6147" cy="41.2538" r="6.48181" fill="#5C97CE" stroke="#5C97CE" stroke-width="4.08114"/>
<path d="M21.2749 41.5684C27.712 53.0242 95.9669 109.845 308.325 111.94" stroke="#A3B0BC" stroke-width="0.654619" stroke-dasharray="1.31 1.31"/>
<circle cx="306.374" cy="157.121" r="6.48181" fill="#5C97CE" stroke="#5C97CE" stroke-width="4.08114"/>
<circle cx="309.307" cy="110.958" r="5.56426" fill="#A3B0BC"/>
<path d="M44.2041 42.4551H45.9131C45.8584 43.1068 45.6761 43.6878 45.3662 44.1982C45.0563 44.7041 44.6211 45.1029 44.0605 45.3945C43.5 45.6862 42.8187 45.832 42.0166 45.832C41.4014 45.832 40.8477 45.7227 40.3555 45.5039C39.8633 45.2806 39.4417 44.9661 39.0908 44.5605C38.7399 44.1504 38.471 43.6559 38.2842 43.0771C38.1019 42.4984 38.0107 41.8512 38.0107 41.1357V40.3086C38.0107 39.5931 38.1042 38.946 38.291 38.3672C38.4824 37.7884 38.7559 37.2939 39.1113 36.8838C39.4668 36.4691 39.8929 36.1523 40.3896 35.9336C40.891 35.7148 41.4538 35.6055 42.0781 35.6055C42.8711 35.6055 43.541 35.7513 44.0879 36.043C44.6348 36.3346 45.0586 36.738 45.3594 37.2529C45.6647 37.7679 45.8516 38.3581 45.9199 39.0234H44.2109C44.1654 38.5951 44.0651 38.2282 43.9102 37.9229C43.7598 37.6175 43.5365 37.3851 43.2402 37.2256C42.944 37.0615 42.5566 36.9795 42.0781 36.9795C41.6862 36.9795 41.3444 37.0524 41.0527 37.1982C40.7611 37.3441 40.5173 37.5583 40.3213 37.8408C40.1253 38.1234 39.9772 38.472 39.877 38.8867C39.7812 39.2969 39.7334 39.7663 39.7334 40.2949V41.1357C39.7334 41.637 39.7767 42.0928 39.8633 42.5029C39.9544 42.9085 40.0911 43.2572 40.2734 43.5488C40.4603 43.8405 40.6973 44.0661 40.9844 44.2256C41.2715 44.3851 41.6156 44.4648 42.0166 44.4648C42.5042 44.4648 42.8984 44.3874 43.1992 44.2324C43.5046 44.0775 43.7347 43.8519 43.8896 43.5557C44.0492 43.2549 44.154 42.888 44.2041 42.4551ZM52.9166 35.7422H54.6256V42.3936C54.6256 43.1501 54.4616 43.7835 54.1334 44.2939C53.8053 44.8044 53.3587 45.1895 52.7936 45.4492C52.233 45.7044 51.6064 45.832 50.9137 45.832C50.1982 45.832 49.5602 45.7044 48.9996 45.4492C48.4391 45.1895 47.997 44.8044 47.6735 44.2939C47.3545 43.7835 47.195 43.1501 47.195 42.3936V35.7422H48.9039V42.3936C48.9039 42.8721 48.986 43.2663 49.15 43.5762C49.3141 43.8815 49.5465 44.1071 49.8473 44.2529C50.1481 44.3988 50.5036 44.4717 50.9137 44.4717C51.3239 44.4717 51.6771 44.3988 51.9733 44.2529C52.2741 44.1071 52.5065 43.8815 52.6705 43.5762C52.8346 43.2663 52.9166 42.8721 52.9166 42.3936V35.7422ZM56.3518 35.7422H59.8723C60.6289 35.7422 61.2737 35.8561 61.8069 36.084C62.3401 36.3118 62.748 36.6491 63.0305 37.0957C63.3177 37.5378 63.4612 38.0846 63.4612 38.7363C63.4612 39.2331 63.3701 39.6706 63.1878 40.0488C63.0055 40.4271 62.748 40.7461 62.4153 41.0059C62.0826 41.2611 61.6861 41.4593 61.2259 41.6006L60.7063 41.8535H57.5413L57.5276 40.4932H59.8997C60.3098 40.4932 60.6516 40.4202 60.9251 40.2744C61.1985 40.1286 61.4036 39.9303 61.5403 39.6797C61.6816 39.4245 61.7522 39.1374 61.7522 38.8184C61.7522 38.472 61.6839 38.1712 61.5471 37.916C61.415 37.6562 61.2099 37.458 60.9319 37.3213C60.6539 37.18 60.3007 37.1094 59.8723 37.1094H58.0677V45.6953H56.3518V35.7422ZM62.0325 45.6953L59.6946 41.2246L61.4925 41.2178L63.8645 45.6064V45.6953H62.0325ZM65.0302 35.7422H68.5507C69.3072 35.7422 69.9521 35.8561 70.4853 36.084C71.0185 36.3118 71.4264 36.6491 71.7089 37.0957C71.996 37.5378 72.1396 38.0846 72.1396 38.7363C72.1396 39.2331 72.0484 39.6706 71.8661 40.0488C71.6838 40.4271 71.4264 40.7461 71.0937 41.0059C70.761 41.2611 70.3645 41.4593 69.9042 41.6006L69.3847 41.8535H66.2196L66.206 40.4932H68.578C68.9882 40.4932 69.33 40.4202 69.6034 40.2744C69.8769 40.1286 70.082 39.9303 70.2187 39.6797C70.3599 39.4245 70.4306 39.1374 70.4306 38.8184C70.4306 38.472 70.3622 38.1712 70.2255 37.916C70.0933 37.6562 69.8883 37.458 69.6103 37.3213C69.3323 37.18 68.9791 37.1094 68.5507 37.1094H66.746V45.6953H65.0302V35.7422ZM70.7109 45.6953L68.373 41.2246L70.1708 41.2178L72.5429 45.6064V45.6953H70.7109ZM80.2232 44.335V45.6953H74.939V44.335H80.2232ZM75.4244 35.7422V45.6953H73.7086V35.7422H75.4244ZM79.5328 39.8984V41.2383H74.939V39.8984H79.5328ZM80.189 35.7422V37.1094H74.939V35.7422H80.189ZM89.3801 35.7422V45.6953H87.6643L83.2004 38.5654V45.6953H81.4846V35.7422H83.2004L87.6779 42.8857V35.7422H89.3801ZM95.1737 35.7422V45.6953H93.4715V35.7422H95.1737ZM98.2977 35.7422V37.1094H90.3748V35.7422H98.2977ZM104.984 43.46L106.966 35.7422H108.005L107.889 37.7314L105.77 45.6953H104.69L104.984 43.46ZM103.5 35.7422L105.107 43.3984L105.25 45.6953H104.102L101.798 35.7422H103.5ZM110.254 43.3779L111.84 35.7422H113.549L111.245 45.6953H110.097L110.254 43.3779ZM108.408 35.7422L110.37 43.4805L110.657 45.6953H109.577L107.492 37.7314L107.383 35.7422H108.408ZM121.195 44.335V45.6953H115.911V44.335H121.195ZM116.396 35.7422V45.6953H114.68V35.7422H116.396ZM120.505 39.8984V41.2383H115.911V39.8984H120.505ZM121.161 35.7422V37.1094H115.911V35.7422H121.161ZM124.288 35.7422V45.6953H122.573V35.7422H124.288ZM133.924 40.6094V44.4102C133.783 44.597 133.562 44.8021 133.261 45.0254C132.965 45.2441 132.57 45.4333 132.078 45.5928C131.586 45.7523 130.973 45.832 130.239 45.832C129.615 45.832 129.043 45.7272 128.523 45.5176C128.004 45.3034 127.555 44.9912 127.177 44.5811C126.803 44.1709 126.514 43.6719 126.309 43.084C126.104 42.4915 126.001 41.8171 126.001 41.0605V40.3701C126.001 39.6182 126.094 38.9482 126.281 38.3604C126.473 37.7679 126.746 37.2666 127.102 36.8564C127.457 36.4463 127.885 36.1364 128.387 35.9268C128.893 35.7126 129.465 35.6055 130.103 35.6055C130.918 35.6055 131.593 35.7422 132.126 36.0156C132.664 36.2845 133.078 36.6582 133.37 37.1367C133.662 37.6152 133.846 38.1621 133.924 38.7773H132.242C132.188 38.431 132.08 38.1211 131.921 37.8477C131.766 37.5742 131.543 37.36 131.251 37.2051C130.964 37.0456 130.59 36.9658 130.13 36.9658C129.733 36.9658 129.385 37.041 129.084 37.1914C128.783 37.3418 128.533 37.5628 128.332 37.8545C128.136 38.1462 127.988 38.5016 127.888 38.9209C127.787 39.3402 127.737 39.8187 127.737 40.3564V41.0605C127.737 41.6074 127.794 42.0928 127.908 42.5166C128.027 42.9404 128.195 43.2982 128.414 43.5898C128.637 43.8815 128.909 44.1025 129.228 44.2529C129.547 44.3988 129.907 44.4717 130.308 44.4717C130.7 44.4717 131.021 44.4398 131.272 44.376C131.522 44.3076 131.72 44.2279 131.866 44.1367C132.017 44.041 132.133 43.9499 132.215 43.8633V41.8877H130.144V40.6094H133.924ZM142.26 39.8984V41.2588H136.976V39.8984H142.26ZM137.4 35.7422V45.6953H135.684V35.7422H137.4ZM143.58 35.7422V45.6953H141.871V35.7422H143.58ZM149.373 35.7422V45.6953H147.671V35.7422H149.373ZM152.497 35.7422V37.1094H144.575V35.7422H152.497Z" fill="#132638"/>
<!-- Label text (replaced "WITHOUT TrimRx" -> "WITHOUT Wellinc") -->
<text x="205" y="97" font-family="Arial, sans-serif" font-size="12" font-weight="700" fill="#7D8FA0">WITHOUT Wellinc</text>
<path d="M23.3115 222.308H24.8428L27.7207 229.984L30.5918 222.308H32.123L28.3223 232.261H27.1055L23.3115 222.308ZM22.6143 222.308H24.0703L24.3232 228.952V232.261H22.6143V222.308ZM31.3643 222.308H32.8271V232.261H31.1113V228.952L31.3643 222.308ZM34.2457 228.645V228.487C34.2457 227.954 34.3232 227.46 34.4782 227.004C34.6331 226.544 34.8564 226.145 35.1481 225.808C35.4443 225.466 35.8043 225.201 36.2282 225.015C36.6565 224.823 37.1396 224.728 37.6774 224.728C38.2197 224.728 38.7028 224.823 39.1266 225.015C39.555 225.201 39.9173 225.466 40.2135 225.808C40.5097 226.145 40.7353 226.544 40.8903 227.004C41.0452 227.46 41.1227 227.954 41.1227 228.487V228.645C41.1227 229.178 41.0452 229.672 40.8903 230.128C40.7353 230.584 40.5097 230.982 40.2135 231.324C39.9173 231.661 39.5573 231.926 39.1334 232.117C38.7096 232.304 38.2288 232.397 37.6911 232.397C37.1487 232.397 36.6634 232.304 36.235 232.117C35.8112 231.926 35.4511 231.661 35.1549 231.324C34.8587 230.982 34.6331 230.584 34.4782 230.128C34.3232 229.672 34.2457 229.178 34.2457 228.645ZM35.8932 228.487V228.645C35.8932 228.977 35.9274 229.292 35.9957 229.588C36.0641 229.884 36.1712 230.144 36.317 230.367C36.4629 230.59 36.6497 230.766 36.8776 230.894C37.1054 231.021 37.3766 231.085 37.6911 231.085C37.9964 231.085 38.2607 231.021 38.484 230.894C38.7119 230.766 38.8987 230.59 39.0446 230.367C39.1904 230.144 39.2975 229.884 39.3659 229.588C39.4388 229.292 39.4752 228.977 39.4752 228.645V228.487C39.4752 228.159 39.4388 227.849 39.3659 227.558C39.2975 227.261 39.1881 226.999 39.0377 226.771C38.8919 226.544 38.7051 226.366 38.4772 226.238C38.2539 226.106 37.9873 226.04 37.6774 226.04C37.3675 226.04 37.0986 226.106 36.8707 226.238C36.6474 226.366 36.4629 226.544 36.317 226.771C36.1712 226.999 36.0641 227.261 35.9957 227.558C35.9274 227.849 35.8932 228.159 35.8932 228.487ZM43.9973 226.443V232.261H42.3499V224.864H43.9016L43.9973 226.443ZM43.7034 228.289L43.1702 228.282C43.1748 227.758 43.2477 227.277 43.3889 226.84C43.5348 226.402 43.7353 226.026 43.9905 225.712C44.2503 225.397 44.5602 225.156 44.9202 224.987C45.2802 224.814 45.6813 224.728 46.1233 224.728C46.4788 224.728 46.8001 224.778 47.0872 224.878C47.3789 224.974 47.6272 225.131 47.8323 225.35C48.0419 225.568 48.2014 225.853 48.3108 226.204C48.4202 226.55 48.4749 226.977 48.4749 227.482V232.261H46.8206V227.476C46.8206 227.12 46.7682 226.84 46.6634 226.635C46.5631 226.425 46.415 226.277 46.219 226.19C46.0276 226.099 45.7884 226.054 45.5012 226.054C45.2187 226.054 44.9658 226.113 44.7425 226.231C44.5192 226.35 44.33 226.512 44.1751 226.717C44.0247 226.922 43.9085 227.159 43.8264 227.428C43.7444 227.697 43.7034 227.984 43.7034 228.289ZM53.4071 224.864V226.067H49.2372V224.864H53.4071ZM50.4404 223.053H52.0878V230.217C52.0878 230.445 52.1197 230.62 52.1835 230.743C52.2519 230.862 52.3453 230.941 52.4638 230.982C52.5823 231.023 52.7213 231.044 52.8808 231.044C52.9947 231.044 53.1041 231.037 53.2089 231.023C53.3137 231.01 53.398 230.996 53.4618 230.982L53.4687 232.24C53.332 232.281 53.1724 232.318 52.9902 232.35C52.8124 232.382 52.6073 232.397 52.3749 232.397C51.9967 232.397 51.6617 232.331 51.37 232.199C51.0784 232.062 50.8505 231.841 50.6864 231.536C50.5224 231.231 50.4404 230.825 50.4404 230.319V223.053ZM56.1656 221.761V232.261H54.525V221.761H56.1656ZM55.8785 228.289L55.3453 228.282C55.3498 227.772 55.4205 227.3 55.5572 226.867C55.6985 226.434 55.8944 226.058 56.1451 225.739C56.4003 225.416 56.7056 225.167 57.0611 224.994C57.4166 224.816 57.8108 224.728 58.2437 224.728C58.6083 224.728 58.9364 224.778 59.2281 224.878C59.5243 224.978 59.7795 225.14 59.9937 225.363C60.2079 225.582 60.3697 225.869 60.4791 226.225C60.593 226.576 60.65 227.004 60.65 227.51V232.261H58.9957V227.496C58.9957 227.141 58.9433 226.858 58.8384 226.648C58.7382 226.439 58.5901 226.288 58.3941 226.197C58.1981 226.102 57.9589 226.054 57.6763 226.054C57.3801 226.054 57.1181 226.113 56.8902 226.231C56.6669 226.35 56.48 226.512 56.3296 226.717C56.1793 226.922 56.0653 227.159 55.9879 227.428C55.9149 227.697 55.8785 227.984 55.8785 228.289ZM69.9266 222.273V232.261H68.2791V224.229L65.8387 225.056V223.695L69.7284 222.273H69.9266Z" fill="#7D8FA0"/>
<path d="M248.709 222.308H250.24L253.118 229.984L255.989 222.308H257.521L253.72 232.261H252.503L248.709 222.308ZM248.012 222.308H249.468L249.721 228.952V232.261H248.012V222.308ZM256.762 222.308H258.225V232.261H256.509V228.952L256.762 222.308ZM259.643 228.645V228.487C259.643 227.954 259.721 227.46 259.876 227.004C260.031 226.544 260.254 226.145 260.546 225.808C260.842 225.466 261.202 225.201 261.626 225.015C262.054 224.823 262.537 224.728 263.075 224.728C263.617 224.728 264.1 224.823 264.524 225.015C264.952 225.201 265.315 225.466 265.611 225.808C265.907 226.145 266.133 226.544 266.288 227.004C266.443 227.46 266.52 227.954 266.52 228.487V228.645C266.52 229.178 266.443 229.672 266.288 230.128C266.133 230.584 265.907 230.982 265.611 231.324C265.315 231.661 264.955 231.926 264.531 232.117C264.107 232.304 263.626 232.397 263.089 232.397C262.546 232.397 262.061 232.304 261.632 232.117C261.209 231.926 260.849 231.661 260.552 231.324C260.256 230.982 260.031 230.584 259.876 230.128C259.721 229.672 259.643 229.178 259.643 228.645ZM261.291 228.487V228.645C261.291 228.977 261.325 229.292 261.393 229.588C261.462 229.884 261.569 230.144 261.714 230.367C261.86 230.59 262.047 230.766 262.275 230.894C262.503 231.021 262.774 231.085 263.089 231.085C263.394 231.085 263.658 231.021 263.881 230.894C264.109 230.766 264.296 230.59 264.442 230.367C264.588 230.144 264.695 229.884 264.763 229.588C264.836 229.292 264.873 228.977 264.873 228.645V228.487C264.873 228.159 264.836 227.849 264.763 227.558C264.695 227.261 264.586 226.999 264.435 226.771C264.289 226.544 264.103 226.366 263.875 226.238C263.651 226.106 263.385 226.04 263.075 226.04C262.765 226.04 262.496 226.106 262.268 226.238C262.045 226.366 261.86 226.544 261.714 226.771C261.569 226.999 261.462 227.261 261.393 227.558C261.325 227.849 261.291 228.159 261.291 228.487ZM269.395 226.443V232.261H267.747V224.864H269.299L269.395 226.443ZM269.101 228.289L268.568 228.282C268.572 227.758 268.645 227.277 268.786 226.84C268.932 226.402 269.133 226.026 269.388 225.712C269.648 225.397 269.958 225.156 270.318 224.987C270.678 224.814 271.079 224.728 271.521 224.728C271.876 224.728 272.198 224.778 272.485 224.878C272.776 224.974 273.025 225.131 273.23 225.35C273.439 225.568 273.599 225.853 273.708 226.204C273.818 226.55 273.872 226.977 273.872 227.482V232.261H272.218V227.476C272.218 227.12 272.166 226.84 272.061 226.635C271.961 226.425 271.812 226.277 271.616 226.19C271.425 226.099 271.186 226.054 270.899 226.054C270.616 226.054 270.363 226.113 270.14 226.231C269.917 226.35 269.727 226.512 269.573 226.717C269.422 226.922 269.306 227.159 269.224 227.428C269.142 227.697 269.101 227.984 269.101 228.289ZM278.805 224.864V226.067H274.635V224.864H278.805ZM275.838 223.053H277.485V230.217C277.485 230.445 277.517 230.62 277.581 230.743C277.649 230.862 277.743 230.941 277.861 230.982C277.98 231.023 278.119 231.044 278.278 231.044C278.392 231.044 278.502 231.037 278.606 231.023C278.711 231.01 278.795 230.996 278.859 230.982L278.866 232.24C278.729 232.281 278.57 232.318 278.388 232.35C278.21 232.382 278.005 232.397 277.772 232.397C277.394 232.397 277.059 232.331 276.767 232.199C276.476 232.062 276.248 231.841 276.084 231.536C275.92 231.231 275.838 230.825 275.838 230.319V223.053ZM281.563 221.761V232.261H279.922V221.761H281.563ZM281.276 228.289L280.743 228.282C280.747 227.772 280.818 227.3 280.955 226.867C281.096 226.434 281.292 226.058 281.543 225.739C281.798 225.416 282.103 225.167 282.459 224.994C282.814 224.816 283.208 224.728 283.641 224.728C284.006 224.728 284.334 224.778 284.626 224.878C284.922 224.978 285.177 225.14 285.391 225.363C285.605 225.582 285.767 225.869 285.877 226.225C285.99 226.576 286.047 227.004 286.047 227.51V232.261H284.393V227.496C284.393 227.141 284.341 226.858 284.236 226.648C284.136 226.439 283.988 226.288 283.792 226.197C283.596 226.102 283.356 226.054 283.074 226.054C282.778 226.054 282.516 226.113 282.288 226.231C282.064 226.35 281.877 226.512 281.727 226.717C281.577 226.922 281.463 227.159 281.385 227.428C281.312 227.697 281.276 227.984 281.276 228.289ZM295.324 222.273V232.261H293.677V224.229L291.236 225.056V223.695L295.126 222.273H295.324ZM305.315 230.948V232.261H298.643V231.133L301.883 227.599C302.239 227.198 302.519 226.851 302.724 226.56C302.929 226.268 303.073 226.006 303.155 225.773C303.241 225.536 303.285 225.306 303.285 225.083C303.285 224.769 303.225 224.493 303.107 224.256C302.993 224.014 302.824 223.825 302.601 223.688C302.378 223.547 302.107 223.477 301.788 223.477C301.418 223.477 301.109 223.556 300.858 223.716C300.607 223.875 300.418 224.096 300.291 224.379C300.163 224.657 300.099 224.976 300.099 225.336H298.452C298.452 224.757 298.584 224.229 298.848 223.75C299.112 223.267 299.495 222.884 299.997 222.602C300.498 222.314 301.102 222.171 301.808 222.171C302.473 222.171 303.039 222.283 303.503 222.506C303.968 222.729 304.321 223.046 304.563 223.456C304.809 223.866 304.932 224.352 304.932 224.912C304.932 225.222 304.882 225.53 304.782 225.835C304.681 226.14 304.538 226.446 304.351 226.751C304.169 227.052 303.952 227.355 303.702 227.66C303.451 227.961 303.175 228.266 302.874 228.576L300.721 230.948H305.315Z" fill="#7D8FA0"/>
<rect x="204" y="123.068" width="104.711" height="18.5462" rx="5.23695" fill="#5C97CE"/>
<!-- Label text (replaced "WITH TrimRx" -> "WITH Wellinc") -->
<text x="214" y="136" font-family="Arial, sans-serif" font-size="12" font-weight="700" fill="#FEFEFE">WITH Wellinc</text>
<defs>
<linearGradient id="paint0_linear_5076_8372" x1="163.06" y1="39.6614" x2="163.06" y2="214.06" gradientUnits="userSpaceOnUse">
<stop stop-color="#7EA7CE" stop-opacity="0.7"/>
<stop offset="1" stop-color="#7EA7CE" stop-opacity="0"/>
</linearGradient>
</defs>
</svg>
