<svg width="16" height="16" viewBox="0 0 16 16" fill="none" xmlns="http://www.w3.org/2000/svg">
<g clip-path="url(#clip0_5840_42564)">
<path fill-rule="evenodd" clip-rule="evenodd" d="M7.55074 2.771C4.01978 2.771 0.873756 5.11634 -0.015625 8.1354H1.26535C2.00871 5.8854 4.53747 3.91506 7.55074 3.91506C11.2144 3.91506 14.3738 6.58454 14.3738 10.7413C14.3738 11.6756 14.2476 12.5147 14.0087 13.2583H15.2499L15.2631 13.2202C15.4689 12.4511 15.5684 11.6185 15.5684 10.7413C15.5684 6.10787 12.0441 2.771 7.55074 2.771Z" fill="#4F4CEE"/>
<path fill-rule="evenodd" clip-rule="evenodd" d="M7.37226 6.39453C6.23554 6.39453 4.91776 6.91241 4.20354 7.4495L4.8574 8.7538C5.43079 8.25509 6.35624 7.83313 7.19118 7.83313C7.9859 7.83313 8.41846 8.08245 8.41846 8.59077C8.41846 8.93605 8.12671 9.10864 7.58352 9.17581C5.53138 9.42514 3.92188 9.96223 3.92188 11.468C3.92188 12.6572 4.81716 13.386 6.20535 13.386C7.20126 13.386 8.08649 12.8585 8.50898 12.168V13.1942H10.3599V8.88809C10.3599 7.11383 9.06224 6.39453 7.37226 6.39453ZM6.67818 12.005C6.15506 12.005 5.89354 11.7652 5.89354 11.3624C5.89354 10.6144 6.7687 10.365 8.36817 10.202C8.3782 11.1994 7.66401 12.005 6.67818 12.005Z" fill="black"/>
</g>
<defs>
<clipPath id="clip0_5840_42564">
<rect width="16" height="16" fill="white"/>
</clipPath>
</defs>
</svg>
