<svg width="17" height="16" viewBox="0 0 17 16" fill="none" xmlns="http://www.w3.org/2000/svg">
<g clip-path="url(#clip0_5840_42614)">
<rect x="1" y="0.84668" width="15" height="15" rx="7.5" fill="black"/>
<path d="M8.5 0.84668C4.35813 0.84668 1 4.2048 1 8.34668C1 12.4892 4.35813 15.8467 8.5 15.8467C12.6425 15.8467 16 12.4892 16 8.34668C16 4.2048 12.6425 0.84668 8.5 0.84668ZM9.2725 3.92418C9.52465 3.91969 9.77322 3.98432 9.99125 4.11105L12.7769 5.70918C13.7113 6.2448 13.7113 7.5923 12.7769 8.12793L9.99125 9.72668C9.06125 10.2604 7.9025 9.58918 7.9025 8.5173V8.3048C7.90252 8.2565 7.88985 8.20904 7.86576 8.16718C7.84167 8.12531 7.80699 8.09052 7.76522 8.06627C7.72344 8.04203 7.67602 8.02919 7.62772 8.02904C7.57942 8.02889 7.53193 8.04144 7.49 8.06543L4.92938 9.53418C4.8873 9.55832 4.85235 9.59314 4.82804 9.63511C4.80373 9.67709 4.79093 9.72474 4.79093 9.77324C4.79093 9.82175 4.80373 9.8694 4.82804 9.91137C4.85235 9.95335 4.8873 9.98816 4.92938 10.0123L7.48938 11.4811C7.53124 11.5054 7.57878 11.5182 7.6272 11.5183C7.67561 11.5183 7.72318 11.5056 7.7651 11.4814C7.80702 11.4571 7.8418 11.4223 7.86593 11.3803C7.89005 11.3383 7.90267 11.2907 7.9025 11.2423V10.8142C7.9025 10.6061 8.1275 10.4754 8.30812 10.5792L8.95875 10.9523C9.00092 10.9764 9.03597 11.0113 9.06034 11.0533C9.0847 11.0954 9.09752 11.1431 9.0975 11.1917V11.3729C9.0975 12.4448 7.93875 13.1161 7.00875 12.5823L4.22313 10.9842C3.28875 10.4486 3.28875 9.10105 4.22313 8.56543L7.00875 6.96668C7.93875 6.43293 9.0975 7.10418 9.0975 8.17605V8.38855C9.0975 8.60105 9.32625 8.73293 9.51 8.62793L12.0706 7.15918C12.1127 7.13504 12.1477 7.10022 12.172 7.05825C12.1963 7.01627 12.2091 6.96862 12.2091 6.92012C12.2091 6.87161 12.1963 6.82396 12.172 6.78199C12.1477 6.74001 12.1127 6.7052 12.0706 6.68105L9.51062 5.21168C9.46873 5.18756 9.42123 5.17489 9.37289 5.17493C9.32455 5.17498 9.27707 5.18773 9.23521 5.21192C9.19336 5.23611 9.1586 5.27088 9.13443 5.31274C9.11026 5.3546 9.09752 5.40209 9.0975 5.45043V5.87855C9.0975 6.08668 8.8725 6.21668 8.69188 6.11293L8.04125 5.7398C7.99912 5.71563 7.96411 5.68077 7.93975 5.63874C7.91539 5.59671 7.90254 5.54901 7.9025 5.50043V5.31918C7.9025 4.51605 8.55438 3.93855 9.2725 3.92418Z" fill="#B2FCE5"/>
</g>
<defs>
<clipPath id="clip0_5840_42614">
<rect x="1" y="0.84668" width="15" height="15" rx="7.5" fill="white"/>
</clipPath>
</defs>
</svg>
