<svg width="25" height="19" viewBox="0 0 25 19" fill="none" xmlns="http://www.w3.org/2000/svg">
<g clip-path="url(#clip0_6133_2373)">
<path d="M22.4246 16.0141H1.60584C1.18111 16.0141 0.773776 15.8454 0.473447 15.545C0.173118 15.2447 0.00439453 14.8374 0.00439453 14.4126L0.00439453 7.6759H1.1581L1.41834 7.046H2.00086L2.26043 7.67323H4.53048V7.19613L4.73333 7.67657H5.91172L6.11457 7.18813V7.67523H11.755V6.64497H11.8618C11.9378 6.64764 11.9598 6.65431 11.9598 6.78109V7.67657H14.8778V7.43702C15.1761 7.58849 15.5277 7.67723 15.9007 7.67723L15.9641 7.67657H15.9608H17.1886L17.4515 7.04933H18.034L18.2909 7.67657H20.657V7.08003L21.0147 7.67657H22.9071V3.73701H21.034V4.2021L20.7718 3.73701H18.8461V4.2021L18.6052 3.73701H16.0048C15.6109 3.71799 15.2186 3.79902 14.8645 3.97256L14.8785 3.96655V3.73701H13.0849V3.96655C12.8677 3.79562 12.5935 3.71378 12.3182 3.73768H12.3222H5.76759L5.32786 4.75526L4.87612 3.73768H2.81159V4.20277L2.58405 3.73768H0.822466L0.00639634 5.60603V1.60242C0.00639634 1.17769 0.175119 0.770358 0.475449 0.470029C0.775778 0.1697 1.18311 0.000976563 1.60784 0.000976562H22.4266C22.8513 0.000976563 23.2587 0.1697 23.559 0.470029C23.8593 0.770358 24.0281 1.17769 24.0281 1.60242V8.5954H22.7783C22.7574 8.59451 22.7349 8.59406 22.7109 8.59406C22.4213 8.59406 22.1524 8.68081 21.9282 8.82961L21.9335 8.82627V8.5954H20.0852C19.7964 8.57928 19.5107 8.66136 19.2744 8.82827L19.2784 8.8256V8.59473H15.9781V8.8256C15.7078 8.67372 15.4028 8.5942 15.0927 8.59473H15.0666H15.068H12.8907V8.8256C12.6063 8.64324 12.2687 8.56214 11.9325 8.5954L11.9385 8.59473H9.50229L8.94446 9.19794L8.42265 8.59473H4.78337V12.5369H8.35459L8.92911 11.9244L9.47027 12.5369H11.6716V11.6141H11.9785C12.2737 11.6262 12.5682 11.5769 12.8433 11.4693L12.8286 11.4747V12.5383H14.6436V11.5114H14.731C14.8418 11.5114 14.8531 11.5154 14.8531 11.6275V12.539H20.3688L20.4362 12.5403C20.7524 12.5403 21.0474 12.4455 21.2929 12.2834L21.2869 12.2867V12.539H23.0365L23.1199 12.5403C23.4475 12.5403 23.7592 12.4729 24.0421 12.3508L24.0267 12.3568V14.4133C24.0267 14.838 23.858 15.2454 23.5577 15.5457C23.2573 15.846 22.85 16.0148 22.4253 16.0148L22.4246 16.0141ZM14.0871 11.9845H13.4078V9.15857H14.9666C15.2481 9.13247 15.5316 9.17984 15.7893 9.29603L15.7786 9.29202C15.9875 9.40679 16.1269 9.62566 16.1269 9.87655L16.1256 9.92126V9.91926L16.1263 9.94461C16.1263 10.2689 15.9308 10.5478 15.6505 10.6693L15.6452 10.6713C15.7793 10.7193 15.8914 10.8014 15.9748 10.9075L15.9761 10.9088C16.0702 11.0648 16.1096 11.2477 16.0882 11.4286L16.0889 11.4246V11.9838H15.411V11.6301C15.4438 11.4376 15.4051 11.2397 15.3022 11.0736L15.3042 11.077C15.2338 11.0235 15.1532 10.9849 15.0674 10.9634C14.9816 10.942 14.8924 10.9382 14.8051 10.9522L14.8091 10.9515H14.0871V11.9838V11.9845ZM14.0871 9.74243V10.377H14.9078C15.0237 10.3877 15.1404 10.367 15.2455 10.3169L15.2415 10.3189C15.2844 10.2912 15.3196 10.2531 15.3441 10.2083C15.3686 10.1634 15.3815 10.1132 15.3816 10.0621L15.3809 10.0467C15.3847 9.99564 15.3736 9.94526 15.3491 9.9003C15.3246 9.85534 15.2877 9.81838 15.2428 9.79381L15.2415 9.79314C15.1399 9.74881 15.0289 9.73046 14.9185 9.73976H14.9212L14.0871 9.74243ZM8.065 11.9838H5.39125V9.15857H8.10704L8.93779 10.0847L9.79656 9.15857H11.9538C12.7199 9.15857 13.0922 9.46351 13.0922 10.0894C13.0922 10.7267 12.7072 11.0363 11.9178 11.0363H11.0737V11.9831H9.76119L8.92978 11.0496L8.065 11.9838ZM10.4011 9.46151L9.36417 10.5758L10.4011 11.7262V9.46151ZM6.06453 10.8327V11.3946H7.72469L8.49205 10.5658L7.75405 9.74243H6.06386V10.2562H7.54653V10.8321L6.06453 10.8327ZM11.0737 9.7431V10.4624H11.9458C12.2127 10.4624 12.3662 10.3263 12.3662 10.0887C12.3662 9.86187 12.2234 9.74243 11.9532 9.74243L11.0737 9.7431ZM23.1099 11.9851H21.8061V11.3779H23.1046C23.2017 11.3912 23.3002 11.3658 23.3788 11.3072L23.3781 11.3078C23.4033 11.2846 23.4233 11.2565 23.437 11.2251C23.4507 11.1937 23.4577 11.1599 23.4575 11.1257V11.115C23.4575 11.0812 23.4502 11.0479 23.436 11.0173C23.4218 10.9866 23.4012 10.9594 23.3755 10.9375C23.3068 10.8868 23.2213 10.8644 23.1366 10.8748H23.1379L23.0131 10.8708C22.4033 10.8548 21.7126 10.8361 21.7126 10C21.7126 9.59296 21.9675 9.15857 22.6808 9.15857H24.0267V9.76045H22.7956C22.7005 9.75011 22.6046 9.76921 22.5207 9.81516L22.5234 9.81383C22.4905 9.83556 22.464 9.86572 22.4468 9.90117C22.4295 9.93662 22.4221 9.97605 22.4253 10.0153V10.0147V10.022C22.4253 10.067 22.4395 10.1108 22.4658 10.1472C22.4922 10.1836 22.5294 10.2108 22.5721 10.2249L22.5734 10.2255C22.658 10.2519 22.7466 10.2628 22.835 10.2576H22.833L23.1993 10.2669C23.4755 10.2391 23.7514 10.3214 23.9673 10.4958L23.9653 10.4944C23.9854 10.5105 24.0029 10.528 24.0181 10.5472L24.0187 10.5478L24.0267 11.6235C23.9144 11.7544 23.7716 11.8559 23.611 11.9188C23.4503 11.9817 23.2766 12.0043 23.1052 11.9845L23.1099 11.9851ZM20.4749 11.9851H19.159V11.3779H20.4682C20.5661 11.3905 20.6652 11.3652 20.7451 11.3072L20.7438 11.3078C20.7688 11.2846 20.7887 11.2564 20.8022 11.225C20.8158 11.1937 20.8227 11.1598 20.8225 11.1257V11.119C20.8226 11.0846 20.8153 11.0507 20.8012 11.0193C20.787 10.988 20.7663 10.9601 20.7404 10.9375C20.67 10.8878 20.5839 10.8655 20.4982 10.8748H20.4995L20.3754 10.8708C19.7676 10.8548 19.0776 10.8361 19.0776 10C19.0776 9.59296 19.3312 9.15857 20.0431 9.15857H21.3964V9.76045H20.1579C20.0635 9.75053 19.9683 9.76961 19.885 9.81516L19.8877 9.81383C19.8526 9.83795 19.8247 9.87109 19.807 9.90975C19.7892 9.94841 19.7822 9.99115 19.7867 10.0335C19.7912 10.0758 19.8071 10.1161 19.8326 10.1501C19.8581 10.1842 19.8924 10.2107 19.9317 10.2269L19.933 10.2275C20.0186 10.2543 20.1084 10.2652 20.1979 10.2596H20.1959L20.5596 10.2689C20.8373 10.2415 21.1146 10.3239 21.3323 10.4984L21.3303 10.4964C21.4037 10.5772 21.4596 10.6724 21.4942 10.7759C21.5289 10.8794 21.5417 10.9889 21.5318 11.0977V11.0943C21.5338 11.6835 21.1768 11.9838 20.4729 11.9838L20.4749 11.9851ZM18.7546 11.9851H16.4993V9.1579H18.7526V9.74176H17.1732V10.2556H18.7159V10.8314H17.1732V11.3933L18.7546 11.3959V11.9831V11.9851ZM20.0692 7.1234H18.6939L18.431 6.4935H17.0284L16.7735 7.1234H15.9835C15.6287 7.14211 15.2793 7.03032 15.0013 6.80912L15.0046 6.81112C14.8724 6.66538 14.7721 6.49367 14.7101 6.30696C14.648 6.12026 14.6256 5.92267 14.6443 5.72681L14.6436 5.73215C14.6259 5.53265 14.6492 5.33165 14.7121 5.1415C14.775 4.95136 14.8761 4.77609 15.0093 4.62648L15.0079 4.62782C15.148 4.50519 15.3118 4.41275 15.4892 4.35627C15.6666 4.29978 15.8537 4.28047 16.0389 4.29952L16.0335 4.29885H16.6874V4.9014H16.0469C15.9531 4.88918 15.8578 4.89786 15.7679 4.92682C15.6779 4.95578 15.5954 5.00429 15.5264 5.06888L15.5271 5.06821C15.3848 5.25113 15.3156 5.48038 15.3329 5.71146V5.70812C15.3118 5.94557 15.3785 6.1825 15.5204 6.37406L15.5184 6.37139C15.6509 6.47999 15.8208 6.53222 15.9915 6.51685H15.9888H16.2918L17.2466 4.29485H18.2609L19.4039 6.96392V4.29485H20.4322L21.6186 6.26196V4.29485H22.3125V7.11873H21.349L20.0678 4.99815V7.11873L20.0692 7.1234ZM17.7344 4.77595L17.2693 5.9023H18.2015L17.7344 4.77595ZM11.1958 7.12207H10.5205V4.29685H12.0739C12.3575 4.26753 12.6437 4.31573 12.902 4.43631L12.892 4.43231C12.9957 4.48995 13.0821 4.57419 13.1424 4.67635C13.2027 4.7785 13.2346 4.89488 13.235 5.0135L13.2337 5.06021V5.0582V5.07889C13.2337 5.233 13.1893 5.38385 13.1057 5.51333C13.0222 5.64282 12.903 5.74544 12.7626 5.80888L12.7572 5.81088C12.8914 5.8616 13.0041 5.943 13.0902 6.0471L13.0915 6.04843C13.1874 6.2047 13.2267 6.38912 13.203 6.5709L13.2036 6.5669V7.1214H12.5224L12.5197 6.76508V6.7117C12.5445 6.53745 12.5059 6.36008 12.4109 6.21191L12.4129 6.21525C12.3422 6.16349 12.2619 6.12619 12.1767 6.10546C12.0915 6.08474 12.0031 6.081 11.9165 6.09447L11.9205 6.09381H11.1965V7.1214L11.1958 7.12207ZM11.1958 4.88472V5.51195H12.0152C12.131 5.52504 12.2481 5.50417 12.3522 5.45189L12.3489 5.45323C12.3915 5.4271 12.4267 5.39053 12.4512 5.34697C12.4758 5.30342 12.4887 5.25432 12.489 5.20434L12.4883 5.18565C12.4917 5.13495 12.4802 5.08503 12.4552 5.0408C12.4302 4.99657 12.3927 4.96064 12.3475 4.93743L12.3462 4.93676C12.2448 4.89254 12.1341 4.8742 12.0239 4.88338H12.0259L11.1958 4.88472ZM4.04537 7.12207H2.67347L2.4139 6.49216H1.0073L0.74573 7.12207H0.0117345L1.22149 4.29685H2.2244L3.37277 6.9706V4.29685H4.47443L5.35789 6.21258L6.16996 4.29685H7.2943V7.12073H6.60034L6.59901 4.91074L5.62013 7.1214H5.02759L4.04604 4.9074V7.1214L4.04537 7.12207ZM1.70726 4.77595L1.24752 5.9023H2.16968L1.70726 4.77595ZM14.3106 7.1214H13.622V4.29685H14.3113V7.12073L14.3106 7.1214ZM10.0495 7.1214H7.79809V4.29685H10.0535V4.88405H8.47337V5.39317H10.0154V5.97303H8.47203V6.53754H10.0521V7.12073L10.0495 7.1214Z" fill="#016FD0"/>
</g>
<defs>
<clipPath id="clip0_6133_2373">
<rect width="24.03" height="18.69" fill="white"/>
</clipPath>
</defs>
</svg>
