<svg width="105" height="105" viewBox="0 0 105 105" fill="none" xmlns="http://www.w3.org/2000/svg">
<g clip-path="url(#clip0_5076_11336)">
<path d="M52.5 91.875C47.3292 91.875 42.209 90.8565 37.4318 88.8778C32.6546 86.899 28.314 83.9986 24.6577 80.3423C21.0014 76.686 18.101 72.3454 16.1222 67.5682C14.1435 62.791 13.125 57.6708 13.125 52.5C13.125 47.3292 14.1435 42.209 16.1222 37.4318C18.101 32.6546 21.0014 28.314 24.6577 24.6577C28.314 21.0014 32.6546 18.101 37.4318 16.1222C42.209 14.1435 47.3292 13.125 52.5 13.125C62.9429 13.125 72.9581 17.2734 80.3423 24.6577C87.7266 32.0419 91.875 42.0571 91.875 52.5C91.875 62.9429 87.7266 72.9581 80.3423 80.3423C72.9581 87.7266 62.9429 91.875 52.5 91.875Z" stroke="#38312C" stroke-width="8" stroke-linecap="round" stroke-linejoin="round"/>
<path d="M65.625 61.25C56.875 61.25 52.5 65.625 50.3125 70.2187" stroke="#38312C" stroke-width="8" stroke-linecap="round" stroke-linejoin="round"/>
<path d="M39.3758 43.75H39.332" stroke="#38312C" stroke-width="8" stroke-linecap="round" stroke-linejoin="round"/>
<path d="M65.6258 43.75H65.582" stroke="#38312C" stroke-width="8" stroke-linecap="round" stroke-linejoin="round"/>
</g>
<defs>
<clipPath id="clip0_5076_11336">
<rect width="105" height="105" fill="white"/>
</clipPath>
</defs>
</svg>
