<svg width="24" height="16" viewBox="0 0 24 16" fill="none" xmlns="http://www.w3.org/2000/svg">
<rect width="24" height="16" rx="2.4" fill="#222222"/>
<path d="M6.14244 5.18821C5.92607 5.44425 5.57987 5.6462 5.23368 5.61735C5.19041 5.27116 5.3599 4.90332 5.55824 4.67614C5.77461 4.41288 6.15326 4.22536 6.45978 4.21094C6.49584 4.57156 6.3552 4.92496 6.14244 5.18821ZM6.45618 5.68587C5.95492 5.65702 5.52578 5.97076 5.28777 5.97076C5.04616 5.97076 4.68193 5.70029 4.28525 5.7075C3.76957 5.71472 3.28995 6.00682 3.0267 6.47202C2.48577 7.40241 2.88605 8.77997 3.40895 9.53727C3.66499 9.91232 3.97152 10.3234 4.37541 10.309C4.75766 10.2946 4.90912 10.0602 5.37071 10.0602C5.83591 10.0602 5.96934 10.309 6.37323 10.3018C6.79155 10.2946 7.0548 9.92674 7.31084 9.5517C7.60294 9.12617 7.72195 8.71146 7.72916 8.68982C7.72195 8.68261 6.92137 8.37608 6.91416 7.4529C6.90695 6.68117 7.54524 6.31334 7.57409 6.29171C7.21348 5.75799 6.65091 5.70029 6.45618 5.68587ZM9.35194 4.64007V10.2621H10.2246V8.34002H11.4327C12.5362 8.34002 13.3115 7.58272 13.3115 6.48644C13.3115 5.39016 12.5506 4.64007 11.4616 4.64007H9.35194ZM10.2246 5.37574H11.2308C11.9881 5.37574 12.4208 5.77963 12.4208 6.49005C12.4208 7.20046 11.9881 7.60796 11.2272 7.60796H10.2246V5.37574ZM14.9055 10.3054C15.4536 10.3054 15.9621 10.0277 16.1929 9.58776H16.2109V10.2621H17.0187V7.46372C17.0187 6.65232 16.3696 6.12943 15.3707 6.12943C14.4439 6.12943 13.7587 6.65954 13.7335 7.38799H14.5196C14.5845 7.04179 14.9055 6.8146 15.3454 6.8146C15.8791 6.8146 16.1784 7.06343 16.1784 7.52141V7.83155L15.0894 7.89646C14.076 7.95776 13.5279 8.37247 13.5279 9.09371C13.5279 9.82216 14.0941 10.3054 14.9055 10.3054ZM15.1399 9.63825C14.6747 9.63825 14.379 9.41466 14.379 9.07207C14.379 8.71867 14.6639 8.51312 15.2084 8.48066L16.1784 8.41935V8.7367C16.1784 9.2632 15.7313 9.63825 15.1399 9.63825ZM18.0969 11.7911C18.948 11.7911 19.3483 11.4666 19.6981 10.4821L21.2307 6.18352H20.3436L19.3158 9.50482H19.2978L18.27 6.18352H17.3577L18.8362 10.2765L18.7569 10.5254C18.6234 10.9473 18.4071 11.1096 18.0212 11.1096C17.9527 11.1096 17.8193 11.1024 17.7652 11.0951V11.7695C17.8157 11.7839 18.032 11.7911 18.0969 11.7911Z" fill="white"/>
</svg>
