<svg width="105" height="99" viewBox="0 0 105 99" fill="none" xmlns="http://www.w3.org/2000/svg">
<path d="M46.1193 50.54V27.1295L45.8487 26.6886C45.2544 25.4995 44.3621 24.4857 43.2594 23.7466C42.1566 23.0074 40.8812 22.5683 39.5582 22.4723C38.5231 22.3952 37.483 22.5237 36.4975 22.8504C35.5121 23.177 34.6005 23.6954 33.8151 24.3758C33.0297 25.0563 32.3859 25.8854 31.9206 26.8156C31.4552 27.7459 31.1774 28.7591 31.1032 29.7972C31.0079 31.0363 31.2089 32.2802 31.6894 33.4258C30.9523 32.4825 30.03 31.7008 28.9796 31.1292C27.9292 30.5576 26.773 30.2081 25.5825 30.1025C24.3921 29.9968 23.1926 30.1372 22.0584 30.5149C20.9242 30.8926 19.8793 31.4996 18.9884 32.2984C18.0975 33.0972 17.3796 34.0708 16.8789 35.1589C16.3782 36.2471 16.1055 37.4267 16.0777 38.6247C16.0498 39.8227 16.2674 41.0138 16.7169 42.1241C17.1665 43.2345 17.8384 44.2406 18.6912 45.0802C14.9792 45.2892 11.4953 46.9435 8.982 49.6907C6.4687 52.4378 5.12471 56.0606 5.23643 59.7869C5.34815 63.5132 6.90675 67.0484 9.58009 69.6392C12.2534 72.23 15.8301 73.6715 19.548 73.6565C19.996 73.6568 20.4438 73.6341 20.8895 73.5887C18.7183 73.9417 16.7597 75.1029 15.4049 76.8405C14.0501 78.578 13.3988 80.764 13.581 82.962C13.7632 85.16 14.7655 87.2082 16.3878 88.6976C18.0101 90.187 20.1329 91.0081 22.3325 90.9968C27.1575 90.9968 30.9003 80.2241 30.5733 79.3085C30.5733 79.3085 30.0097 87.5152 29.9871 87.7978C29.8376 89.8964 30.5257 91.9686 31.8999 93.5585C33.2741 95.1484 35.2219 96.1258 37.3148 96.2757C39.4077 96.4256 41.4743 95.7357 43.0599 94.3578C44.6455 92.9799 45.6203 91.0268 45.7698 88.9282C45.8037 88.4917 45.8037 88.0533 45.7698 87.6169V71.0227" stroke="#38312C" stroke-width="3" stroke-linecap="round" stroke-linejoin="round"/>
<path d="M36.0747 45.521C36.0747 45.521 42.2863 51.8173 36.0747 57.5597" stroke="#38312C" stroke-width="3" stroke-linecap="round" stroke-linejoin="round"/>
<path d="M31.002 69.6775C31.002 69.6775 38.3747 68.5472 37.4729 76.3921" stroke="#38312C" stroke-width="3" stroke-linecap="round" stroke-linejoin="round"/>
<path d="M19.3901 62.6691C19.3901 62.6691 27.3491 62.8274 26.5487 55.9659" stroke="#38312C" stroke-width="3" stroke-linecap="round" stroke-linejoin="round"/>
<path d="M84.5503 39.0438C84.5507 41.2669 83.7038 43.4061 82.1829 45.0236C85.8641 45.276 89.3048 46.9481 91.783 49.6892C94.2613 52.4302 95.5845 56.0271 95.4752 59.7253C95.3658 63.4235 93.8323 66.9354 91.1964 69.5244C88.5605 72.1134 85.0271 73.5781 81.3374 73.6113C80.8855 73.6078 80.4339 73.5814 79.9846 73.5322C82.1559 73.8852 84.1144 75.0464 85.4692 76.7839C86.824 78.5215 87.4754 80.7075 87.2932 82.9055C87.111 85.1034 86.1087 87.1516 84.4864 88.6411C82.8641 90.1305 80.7412 90.9515 78.5416 90.9403C73.7167 90.9403 69.9739 80.1676 70.3008 79.252C70.3008 79.252 70.8758 87.4586 70.887 87.7412C70.9611 88.7804 70.8302 89.8239 70.5021 90.8123C70.1739 91.8008 69.6547 92.7147 68.9743 93.502C68.2939 94.2892 67.4654 94.9344 66.5363 95.4006C65.6072 95.8668 64.5957 96.145 63.5594 96.2192C62.5231 96.2934 61.4823 96.1623 60.4966 95.8332C59.5108 95.5041 58.5994 94.9835 57.8142 94.3013C57.0291 93.619 56.3857 92.7883 55.9207 91.8567C55.4558 90.9251 55.1784 89.9108 55.1043 88.8716C55.0648 88.4355 55.0648 87.9966 55.1043 87.5604V70.9662" stroke="#38312C" stroke-width="3" stroke-linecap="round" stroke-linejoin="round"/>
<path d="M54.7773 50.4834V27.0277L55.0592 26.5869C55.6508 25.3957 56.5424 24.3801 57.6457 23.6406C58.749 22.901 60.0258 22.4632 61.3497 22.3705C61.8447 22.3251 62.3428 22.3251 62.8378 22.3705" stroke="#38312C" stroke-width="3" stroke-linecap="round" stroke-linejoin="round"/>
<path d="M64.7992 45.4645C64.7992 45.4645 58.5988 51.7608 64.7992 57.5145" stroke="#38312C" stroke-width="3" stroke-linecap="round" stroke-linejoin="round"/>
<path d="M69.8945 69.621C69.8945 69.621 62.5218 68.4906 63.4236 76.3356" stroke="#38312C" stroke-width="3" stroke-linecap="round" stroke-linejoin="round"/>
<path d="M81.5179 62.6126C81.5179 62.6126 73.5589 62.7709 74.348 55.9094" stroke="#38312C" stroke-width="3" stroke-linecap="round" stroke-linejoin="round"/>
<path d="M81.5175 2.26082C77.8464 2.23696 74.2542 3.32854 71.2139 5.39181C68.1736 7.45508 65.8279 10.3933 64.4855 13.8195C63.1431 17.2457 62.8671 20.9993 63.6938 24.5858C64.5205 28.1724 66.4112 31.4238 69.1168 33.9119C69.1168 33.9119 70.2442 39.4621 66.6592 41.4742C66.6592 41.4742 71.1686 42.2316 75.8357 37.857C77.6545 38.4565 79.5579 38.758 81.4724 38.75C86.2981 38.756 90.9285 36.8395 94.345 33.4222C97.7614 30.005 99.6842 25.3668 99.6902 20.528C99.6961 15.6892 97.7849 11.0463 94.3768 7.62052C90.9688 4.19476 86.3432 2.26682 81.5175 2.26082Z" stroke="#38312C" stroke-width="3" stroke-linecap="round" stroke-linejoin="round"/>
<path d="M76.1291 15.1134C76.1291 15.1134 76.0051 9.60834 81.5178 9.76659C82.6804 9.79637 83.7924 10.2502 84.6453 11.043C85.4982 11.8358 86.0336 12.9132 86.1511 14.0734C86.1511 14.0734 86.1511 18.8663 81.5178 19.5784V24.8687" stroke="#38312C" stroke-width="3" stroke-linecap="round" stroke-linejoin="round"/>
<path d="M81.1344 30.272C81.508 30.272 81.8108 29.9683 81.8108 29.5938C81.8108 29.2192 81.508 28.9155 81.1344 28.9155C80.7608 28.9155 80.458 29.2192 80.458 29.5938C80.458 29.9683 80.7608 30.272 81.1344 30.272Z" stroke="#38312C" stroke-width="3" stroke-linecap="round" stroke-linejoin="round"/>
</svg>
