<svg width="105" height="99" viewBox="0 0 105 99" fill="none" xmlns="http://www.w3.org/2000/svg">
<g clip-path="url(#clip0_5427_1220)">
<path d="M2.89746 38.0604H42.5233C43.1115 35.613 44.5292 33.4464 46.534 31.9309C48.5388 30.4155 51.0064 29.6453 53.5148 29.752C55.9783 29.6802 58.3898 30.4716 60.3342 31.9901C62.2786 33.5086 63.6343 35.6592 64.1681 38.0717H103.952" stroke="#38312C" stroke-width="3" stroke-linecap="round" stroke-linejoin="round"/>
<path d="M61.9131 42.808C62.4416 42.6851 62.9826 42.6244 63.5252 42.6272C68.5756 42.6272 68.5756 47.1487 73.6712 47.1487C78.7667 47.1487 78.7329 42.6272 83.8172 42.6272C88.9015 42.6272 88.8677 47.1487 93.9632 47.1487C99.0588 47.1487 99.0137 42.6272 104.109 42.6272" stroke="#38312C" stroke-width="3" stroke-linecap="round" stroke-linejoin="round"/>
<path d="M2.89746 42.6272C7.94792 42.6272 7.94792 47.1488 13.0435 47.1488C18.139 47.1488 18.0939 42.6272 23.1895 42.6272C28.285 42.6272 28.24 47.1488 33.3355 47.1488C38.4311 47.1488 38.386 42.6272 43.4815 42.6272C44.0121 42.6271 44.5412 42.684 45.0598 42.7968" stroke="#38312C" stroke-width="3" stroke-linecap="round" stroke-linejoin="round"/>
<path d="M53.5146 36.1727C53.5146 36.1727 62.7588 40.0273 63.5479 51.9982C63.5479 51.9982 63.5479 63.9691 53.4019 64.2291C53.4019 64.2291 43.2559 64.0369 43.2559 51.9982C43.301 51.9982 43.301 40.6942 53.5146 36.1727Z" stroke="#38312C" stroke-width="3" stroke-linecap="round" stroke-linejoin="round"/>
<path d="M86.2185 58.7127C88.0178 58.7127 89.4765 57.2501 89.4765 55.4459C89.4765 53.6416 88.0178 52.179 86.2185 52.179C84.4191 52.179 82.9604 53.6416 82.9604 55.4459C82.9604 57.2501 84.4191 58.7127 86.2185 58.7127Z" stroke="#38312C" stroke-width="3" stroke-linecap="round" stroke-linejoin="round"/>
<path d="M69.3986 73.7583C71.198 73.7583 72.6566 72.2957 72.6566 70.4915C72.6566 68.6872 71.198 67.2246 69.3986 67.2246C67.5993 67.2246 66.1406 68.6872 66.1406 70.4915C66.1406 72.2957 67.5993 73.7583 69.3986 73.7583Z" stroke="#38312C" stroke-width="3" stroke-linecap="round" stroke-linejoin="round"/>
<path d="M35.8268 73.7583C37.6262 73.7583 39.0848 72.2957 39.0848 70.4915C39.0848 68.6872 37.6262 67.2246 35.8268 67.2246C34.0275 67.2246 32.5688 68.6872 32.5688 70.4915C32.5688 72.2957 34.0275 73.7583 35.8268 73.7583Z" stroke="#38312C" stroke-width="3" stroke-linecap="round" stroke-linejoin="round"/>
<path d="M52.4772 87.4021C54.2766 87.4021 55.7352 85.9395 55.7352 84.1352C55.7352 82.331 54.2766 80.8684 52.4772 80.8684C50.6779 80.8684 49.2192 82.331 49.2192 84.1352C49.2192 85.9395 50.6779 87.4021 52.4772 87.4021Z" stroke="#38312C" stroke-width="3" stroke-linecap="round" stroke-linejoin="round"/>
<path d="M18.5558 57.8649C20.3552 57.8649 21.8138 56.4023 21.8138 54.5981C21.8138 52.7939 20.3552 51.3312 18.5558 51.3312C16.7565 51.3312 15.2979 52.7939 15.2979 54.5981C15.2979 56.4023 16.7565 57.8649 18.5558 57.8649Z" stroke="#38312C" stroke-width="3" stroke-linecap="round" stroke-linejoin="round"/>
<path d="M18.9951 70.0645C19.6827 70.0645 20.2431 70.6237 20.2432 71.3164C20.2432 72.0092 19.6827 72.5684 18.9951 72.5684C18.3076 72.5682 17.748 72.0091 17.748 71.3164C17.7481 70.6238 18.3077 70.0646 18.9951 70.0645Z" stroke="#38312C"/>
<path d="M35.8262 82.6119C36.5137 82.6119 37.0741 83.1712 37.0742 83.8639C37.0742 84.5567 36.5138 85.1158 35.8262 85.1158C35.1387 85.1157 34.5791 84.5566 34.5791 83.8639C34.5792 83.1713 35.1387 82.6121 35.8262 82.6119Z" stroke="#38312C"/>
<path d="M52.4995 70.0645C53.1871 70.0645 53.7475 70.6237 53.7476 71.3164C53.7476 72.0092 53.1871 72.5684 52.4995 72.5684C51.812 72.5682 51.2524 72.0091 51.2524 71.3164C51.2525 70.6238 51.8121 70.0646 52.4995 70.0645Z" stroke="#38312C"/>
<path d="M69.3984 82.6119C70.086 82.6119 70.6464 83.1712 70.6465 83.8639C70.6465 84.5567 70.0861 85.1158 69.3984 85.1158C68.7109 85.1157 68.1514 84.5566 68.1514 83.8639C68.1515 83.1713 68.711 82.6121 69.3984 82.6119Z" stroke="#38312C"/>
<path d="M85.79 70.0645C86.4776 70.0645 87.038 70.6237 87.0381 71.3164C87.0381 72.0092 86.4777 72.5684 85.79 72.5684C85.1025 72.5682 84.543 72.0091 84.543 71.3164C84.5431 70.6238 85.1026 70.0646 85.79 70.0645Z" stroke="#38312C"/>
<path d="M101.189 53.3459C101.877 53.3459 102.437 53.9052 102.438 54.5979C102.438 55.2907 101.877 55.8499 101.189 55.8499C100.502 55.8497 99.9424 55.2906 99.9424 54.5979C99.9425 53.9053 100.502 53.3461 101.189 53.3459Z" stroke="#38312C"/>
<path d="M69.3984 53.6285C70.086 53.6285 70.6464 54.1878 70.6465 54.8805C70.6465 55.5733 70.0861 56.1324 69.3984 56.1324C68.7109 56.1323 68.1514 55.5732 68.1514 54.8805C68.1515 54.1879 68.711 53.6287 69.3984 53.6285Z" stroke="#38312C"/>
<path d="M52.4771 94.9558C53.1646 94.9558 53.725 95.515 53.7251 96.2078C53.7251 96.9006 53.1647 97.4597 52.4771 97.4597C51.7896 97.4596 51.23 96.9005 51.23 96.2078C51.2301 95.5151 51.7896 94.956 52.4771 94.9558Z" stroke="#38312C"/>
<path d="M35.8262 53.6285C36.5137 53.6285 37.0741 54.1878 37.0742 54.8805C37.0742 55.5733 36.5138 56.1324 35.8262 56.1324C35.1387 56.1323 34.5791 55.5732 34.5791 54.8805C34.5792 54.1879 35.1387 53.6287 35.8262 53.6285Z" stroke="#38312C"/>
<path d="M3.69727 53.3459C4.38484 53.3459 4.94523 53.9052 4.94531 54.5979C4.94531 55.2907 4.38489 55.8499 3.69727 55.8499C3.00978 55.8497 2.4502 55.2906 2.4502 54.5979C2.45028 53.9053 3.00983 53.3461 3.69727 53.3459Z" stroke="#38312C"/>
<path d="M52.59 22.5853L55.0588 17.0803H51.7896L53.8075 7.74323" stroke="#38312C" stroke-width="3" stroke-linecap="round" stroke-linejoin="round"/>
<path d="M63.6943 27.9999L69.2634 25.5243L67.7527 22.574L75.3172 18.3463" stroke="#38312C" stroke-width="3" stroke-linecap="round" stroke-linejoin="round"/>
<path d="M42.6132 27.9999L37.1118 25.2078L38.9494 22.7775L31.7119 17.9507" stroke="#38312C" stroke-width="3" stroke-linecap="round" stroke-linejoin="round"/>
</g>
<defs>
<clipPath id="clip0_5427_1220">
<rect width="105" height="99" fill="white"/>
</clipPath>
</defs>
</svg>
