<svg width="20" height="20" viewBox="0 0 20 20" fill="none" xmlns="http://www.w3.org/2000/svg">
<mask id="mask0_6133_2402" style="mask-type:alpha" maskUnits="userSpaceOnUse" x="0" y="0" width="20" height="20">
<rect width="20" height="20" fill="#D9D9D9"/>
</mask>
<g mask="url(#mask0_6133_2402)">
<path d="M5.03209 14.5837L3.55376 16.062C3.34278 16.273 3.10049 16.3212 2.82688 16.2066C2.55341 16.092 2.41667 15.8854 2.41667 15.5868V3.75678C2.41667 3.38164 2.54619 3.06456 2.80521 2.80553C3.06424 2.54651 3.38132 2.41699 3.75646 2.41699H16.2435C16.6187 2.41699 16.9358 2.54651 17.1948 2.80553C17.4538 3.06456 17.5833 3.38164 17.5833 3.75678V13.2439C17.5833 13.619 17.4538 13.9361 17.1948 14.1951C16.9358 14.4541 16.6187 14.5837 16.2435 14.5837H5.03209ZM4.58334 13.5003H16.2435C16.3077 13.5003 16.3665 13.4736 16.4198 13.4201C16.4733 13.3668 16.5 13.308 16.5 13.2439V3.75678C16.5 3.69262 16.4733 3.63387 16.4198 3.58053C16.3665 3.52706 16.3077 3.50033 16.2435 3.50033H3.75646C3.6923 3.50033 3.63355 3.52706 3.58021 3.58053C3.52674 3.63387 3.50001 3.69262 3.50001 3.75678V14.5918L4.58334 13.5003ZM5.75001 11.792H11.25C11.4038 11.792 11.5324 11.7405 11.636 11.6376C11.7398 11.5348 11.7917 11.4072 11.7917 11.2547C11.7917 11.1022 11.7398 10.9731 11.636 10.8674C11.5324 10.7616 11.4038 10.7087 11.25 10.7087H5.75001C5.59626 10.7087 5.46757 10.7601 5.36396 10.863C5.26021 10.9658 5.20834 11.0935 5.20834 11.246C5.20834 11.3985 5.26021 11.5275 5.36396 11.6332C5.46757 11.7391 5.59626 11.792 5.75001 11.792ZM5.75001 9.04199H14.25C14.4038 9.04199 14.5324 8.99053 14.636 8.88762C14.7398 8.78484 14.7917 8.6572 14.7917 8.5047C14.7917 8.3522 14.7398 8.2231 14.636 8.11741C14.5324 8.01158 14.4038 7.95866 14.25 7.95866H5.75001C5.59626 7.95866 5.46757 8.01012 5.36396 8.11303C5.26021 8.21581 5.20834 8.34345 5.20834 8.49595C5.20834 8.64845 5.26021 8.77755 5.36396 8.88324C5.46757 8.98908 5.59626 9.04199 5.75001 9.04199ZM5.75001 6.29199H14.25C14.4038 6.29199 14.5324 6.24053 14.636 6.13762C14.7398 6.03484 14.7917 5.9072 14.7917 5.7547C14.7917 5.6022 14.7398 5.4731 14.636 5.36741C14.5324 5.26158 14.4038 5.20866 14.25 5.20866H5.75001C5.59626 5.20866 5.46757 5.26012 5.36396 5.36303C5.26021 5.46581 5.20834 5.59345 5.20834 5.74595C5.20834 5.89845 5.26021 6.02755 5.36396 6.13324C5.46757 6.23908 5.59626 6.29199 5.75001 6.29199Z" fill="#1C1B1F"/>
</g>
</svg>
