<svg width="105" height="99" viewBox="0 0 105 99" fill="none" xmlns="http://www.w3.org/2000/svg">
<path d="M24.6997 68.1854L33.3013 58.7805C38.938 53.4677 43.2669 57.2997 43.2669 57.2997L52.4998 66.5463C54.7545 68.1402 55.9833 67.7785 57.0091 66.6368C57.4815 66.0778 57.7481 65.3732 57.7646 64.6407C57.781 63.9082 57.5461 63.1923 57.0993 62.6126L42.8385 48.607L76.591 15.3168L89.6342 28.8816C89.6342 28.8816 92.2045 30.9841 94.0083 29.379C94.0083 29.379 96.0713 28.1694 93.8054 24.8574L78.282 9.25792C78.282 9.25792 72.882 4.84938 67.7526 8.52317L62.7473 12.3326" stroke="#38312C" stroke-width="3" stroke-linecap="round" stroke-linejoin="round"/>
<path d="M59.7487 14.8082L39.6596 36.2857C39.6596 36.2857 29.3107 49.7374 27.428 51.9303C23.6727 56.2108 19.6191 60.2187 15.2979 63.9238C15.2979 63.9238 9.57104 68.3324 9.1652 68.7393C8.75936 69.1463 4.90388 72.8087 8.22951 77.0251C8.22951 77.0251 11.961 81.9649 17.8344 76.5503L22.5467 71.2714" stroke="#38312C" stroke-width="3" stroke-linecap="round" stroke-linejoin="round"/>
<path d="M72.3301 20.2228L86.8502 34.7823" stroke="#38312C" stroke-width="3" stroke-linecap="round" stroke-linejoin="round"/>
<path d="M70.064 24.8913L87.7293 42.6046" stroke="#38312C" stroke-width="3" stroke-linecap="round" stroke-linejoin="round"/>
<path d="M66.0845 28.7686L78.891 42.6046" stroke="#38312C" stroke-width="3" stroke-linecap="round" stroke-linejoin="round"/>
<path d="M59.7827 31.7867L74.517 46.9453" stroke="#38312C" stroke-width="2.63" stroke-linecap="round" stroke-linejoin="round"/>
<path d="M55.792 36.1161L70.5375 50.9017" stroke="#38312C" stroke-width="3" stroke-linecap="round" stroke-linejoin="round"/>
<path d="M50.9556 40.6377L66.0844 55.8189" stroke="#38312C" stroke-width="3" stroke-linecap="round" stroke-linejoin="round"/>
<path d="M47.5962 44.9671L62.5785 60.0014" stroke="#38312C" stroke-width="3" stroke-linecap="round" stroke-linejoin="round"/>
<path d="M80.0409 35.6866C80.0409 35.6866 64.2582 31.9789 63.6495 46.9905C63.6495 46.9905 61.4963 57.571 74.1562 59.4249C86.8162 61.2787 87.7293 65.9021 87.7293 65.9021" stroke="#38312C" stroke-width="3" stroke-linecap="round" stroke-linejoin="round"/>
<path d="M82.7126 53.8521C82.7126 53.8521 74.0434 54.4964 74.5168 62.7935C74.5168 62.7935 73.863 66.5464 78.6091 70.8532C78.6091 70.8532 82.7126 74.8435 79.5898 82.7449" stroke="#38312C" stroke-width="3" stroke-linecap="round" stroke-linejoin="round"/>
<path d="M68.0687 68.1855C68.0687 68.1855 60.9214 67.0551 63.8525 75.0809C65.4721 78.2159 66.8807 81.456 68.0687 84.7797C68.0687 84.7797 70.0641 91.7203 65.442 94.6706C65.442 94.6706 58.926 99.6218 53.3457 91.0081" stroke="#38312C" stroke-width="3" stroke-linecap="round" stroke-linejoin="round"/>
</svg>
