<svg width="25" height="16" viewBox="0 0 25 16" fill="none" xmlns="http://www.w3.org/2000/svg">
<g clip-path="url(#clip0_6133_2375)">
<path d="M25 0H0V16H25V0Z" fill="white" stroke="black" stroke-width="0.48"/>
<path d="M13.1221 6.3125C14.1137 6.3125 14.9176 7.06706 14.9176 7.99919V8.00024C14.9176 8.93237 14.1137 9.68799 13.1221 9.68799C12.1304 9.68799 11.3265 8.93237 11.3265 8.00024V7.99919C11.3265 7.06706 12.1304 6.3125 13.1221 6.3125Z" fill="#F47216"/>
<path d="M10.3022 6.33398C10.5854 6.33398 10.823 6.3911 11.1122 6.52886V7.25696C10.8383 7.00534 10.6008 6.90003 10.2866 6.90003C9.66916 6.90003 9.18364 7.38051 9.18364 7.98966C9.18364 8.63203 9.65419 9.0839 10.3172 9.0839C10.6157 9.0839 10.8488 8.98406 11.1122 8.73651V9.46496C10.8127 9.5975 10.5701 9.64976 10.2866 9.64976C9.28416 9.64976 8.50518 8.92666 8.50518 7.99421C8.50512 7.07165 9.30483 6.33398 10.3022 6.33398ZM7.18964 6.35402C7.5597 6.35402 7.89826 6.47309 8.18137 6.70582L7.83688 7.12976C7.66537 6.94909 7.50319 6.8729 7.30602 6.8729C7.02223 6.8729 6.8156 7.0247 6.8156 7.22451C6.8156 7.39584 6.93156 7.48653 7.32662 7.6239C8.07547 7.88128 8.29743 8.10954 8.29743 8.61354C8.29743 9.22771 7.81743 9.65526 7.13336 9.65526C6.63236 9.65526 6.2682 9.46982 5.96486 9.05139L6.39012 8.66643C6.54172 8.94189 6.79467 9.08957 7.10871 9.08957C7.40239 9.08957 7.61983 8.89917 7.61983 8.64211C7.61983 8.50886 7.55393 8.39466 7.42246 8.31386C7.35624 8.27562 7.22509 8.21856 6.96736 8.13318C6.34903 7.92397 6.13691 7.70032 6.13691 7.26323C6.13688 6.74397 6.59246 6.35402 7.18964 6.35402ZM14.7127 6.40934H15.4318L16.3319 8.54029L17.2437 6.40934H17.9574L16.4993 9.66342H16.145L14.7127 6.40934ZM5.05855 6.41421H5.71691V9.58678H5.05855V6.41421ZM18.255 6.41421H20.1221V6.95178H18.9129V7.65597H20.0776V8.19328H18.9129V9.04966H20.1221V9.58678H18.255V6.41421ZM21.9598 8.25027C22.4557 8.15539 22.7285 7.83664 22.7285 7.35091C22.7285 6.75693 22.2934 6.41424 21.5341 6.41424H20.558V9.58685H21.2156V8.31229H21.3015L22.2127 9.58678H23.0223L21.9598 8.25027ZM21.408 7.87472H21.2156V6.91392H21.4184C21.8283 6.91392 22.0512 7.07549 22.0512 7.38422C22.0512 7.70317 21.8284 7.87472 21.408 7.87472ZM2.94355 6.41421H1.97723V9.58678H2.93852C3.44961 9.58678 3.8188 9.47341 4.14278 9.22054C4.52784 8.92106 4.7555 8.4696 4.7555 8.00272C4.75553 7.06643 4.01124 6.41421 2.94355 6.41421ZM3.71268 8.79754C3.50582 8.97302 3.23714 9.04966 2.81179 9.04966H2.63505V6.95178H2.81175C3.23711 6.95178 3.49518 7.02339 3.71265 7.20835C3.94034 7.39894 4.0773 7.69424 4.0773 7.99818C4.07733 8.30259 3.94034 8.60694 3.71268 8.79754Z" fill="black"/>
</g>
<rect x="0.25" y="0.25" width="24.5" height="15.5" rx="2.75" stroke="black" stroke-width="0.5"/>
<defs>
<clipPath id="clip0_6133_2375">
<rect width="25" height="16" rx="3" fill="white"/>
</clipPath>
</defs>
</svg>
