<svg width="53" height="90" viewBox="0 0 53 90" fill="none" xmlns="http://www.w3.org/2000/svg">
<path d="M25.6206 20.0092C30.8894 20.0092 35.1606 15.761 35.1606 10.5206C35.1606 5.28022 30.8894 1.03204 25.6206 1.03204C20.3518 1.03204 16.0806 5.28022 16.0806 10.5206C16.0806 15.761 20.3518 20.0092 25.6206 20.0092Z" fill="#38312C"/>
<path d="M52.2662 49.7455L45.9023 26.1236L45.8872 26.0692L45.7755 25.6538L45.7592 25.6584C45.1787 23.8579 43.5022 22.5457 41.4988 22.5457C41.4837 22.5457 41.4685 22.5503 41.4534 22.5503V22.4681H11.5013V22.5457C9.49791 22.5457 7.82143 23.8579 7.24088 25.6584L7.2246 25.6538L7.11291 26.068L7.09779 26.1247L0.733907 49.7455L0.794404 49.7617C0.765319 49.9572 0.733907 50.1516 0.733907 50.3553C0.730932 51.2951 1.05869 52.2064 1.66036 52.9312C2.26204 53.6559 3.09971 54.1484 4.02817 54.3233C4.95663 54.4982 5.91737 54.3445 6.74384 53.8888C7.57031 53.4331 8.21042 52.7042 8.55322 51.8283L8.58114 51.8353L13.2499 34.5082V34.5742H13.286C13.414 34.0037 13.9014 33.5686 14.5122 33.5686C15.1242 33.5686 15.6117 34.0049 15.7396 34.5742H15.778V34.7605C15.7803 34.7894 15.7943 34.8137 15.7943 34.8426C15.7943 34.8716 15.7792 34.8959 15.778 34.9248V35.1018L8.30425 62.8478C8.18029 63.0963 8.10751 63.367 8.09017 63.6439L8.07389 63.7029L8.08319 63.7052C8.08203 63.7365 8.07389 63.7666 8.07389 63.799C8.07389 64.0832 8.1302 64.3647 8.2396 64.6273C8.34901 64.8899 8.50937 65.1285 8.71151 65.3295C8.91366 65.5304 9.15363 65.6898 9.41772 65.7984C9.68181 65.9071 9.96484 65.963 10.2506 65.9628H15.778V84.3024C15.778 85.5398 16.2722 86.7265 17.152 87.6015C18.0317 88.4764 19.2248 88.968 20.4689 88.968C21.713 88.968 22.9062 88.4764 23.7859 87.6015C24.6656 86.7265 25.1598 85.5398 25.1598 84.3024V65.9628H27.8275V84.3024C27.8469 85.5272 28.3497 86.6953 29.2274 87.5547C30.1051 88.414 31.2874 88.8956 32.519 88.8956C33.7506 88.8956 34.9328 88.414 35.8105 87.5547C36.6882 86.6953 37.1911 85.5272 37.2104 84.3024V65.9628H42.7541C43.0399 65.963 43.3229 65.9071 43.587 65.7984C43.8511 65.6898 44.0911 65.5304 44.2932 65.3295C44.4954 65.1285 44.6557 64.8899 44.7652 64.6273C44.8746 64.3647 44.9309 64.0832 44.9309 63.799C44.9309 63.7666 44.9227 63.7365 44.9216 63.7052L44.9309 63.7029L44.9146 63.6439C44.8943 63.3675 44.8217 63.0974 44.7005 62.8478L37.25 35.1875L37.2744 35.1805C37.243 35.0706 37.2058 34.963 37.2058 34.8438C37.2058 34.1402 37.7794 33.5686 38.4879 33.5686C39.0905 33.5686 39.5722 33.991 39.7095 34.5487L39.7583 34.536L44.419 51.8364L44.4469 51.8295C44.7897 52.7053 45.4298 53.4343 46.2563 53.89C47.0827 54.3457 48.0435 54.4994 48.9719 54.3245C49.9004 54.1496 50.7381 53.6571 51.3397 52.9323C51.9414 52.2076 52.2692 51.2963 52.2662 50.3564C52.2662 50.1528 52.2348 49.9584 52.2057 49.7628L52.2662 49.7455Z" fill="#38312C"/>
</svg>
