<svg width="27" height="16" viewBox="0 0 27 16" fill="none" xmlns="http://www.w3.org/2000/svg">
<g clip-path="url(#clip0_6324_14155)">
<path d="M0 0H26.6667V16H0V0Z" fill="#F4F4F4"/>
<path d="M12.7003 10.9001H12.0016V5.46387H13.8536C14.323 5.46387 14.7232 5.6204 15.051 5.9332C15.3857 6.24627 15.5531 6.6284 15.5531 7.0796C15.5531 7.54173 15.3856 7.9236 15.051 8.23293C14.727 8.54227 14.3267 8.69507 13.8536 8.69507H12.7003V10.9001ZM12.7003 6.13347V8.02947H13.8683C14.1448 8.02947 14.3776 7.93453 14.5598 7.74893C14.7451 7.5636 14.8398 7.338 14.8398 7.08307C14.8398 6.83213 14.7451 6.61 14.5598 6.4244C14.3776 6.2316 14.1486 6.1372 13.8683 6.1372H12.7003V6.13347ZM17.3795 7.05773C17.8963 7.05773 18.3039 7.19596 18.6022 7.4724C18.9005 7.7492 19.0496 8.12769 19.0496 8.60787V10.9001H18.384V10.3836H18.355C18.0675 10.8092 17.6819 11.0204 17.2016 11.0204C16.7904 11.0204 16.4483 10.9004 16.1718 10.6564C15.8952 10.4127 15.7568 10.1105 15.7568 9.7468C15.7568 9.36102 15.9024 9.05533 16.1936 8.82973C16.4846 8.6004 16.8739 8.4876 17.3579 8.4876C17.7728 8.4876 18.115 8.56413 18.3806 8.71693V8.55693C18.3806 8.3132 18.2859 8.1092 18.0931 7.93827C17.9003 7.76733 17.6744 7.6836 17.4163 7.6836C17.027 7.6836 16.7176 7.84733 16.492 8.17853L15.8771 7.79267C16.2155 7.30147 16.7176 7.05773 17.3798 7.05773M16.4774 9.75773C16.4774 9.9396 16.5539 10.0924 16.7104 10.2124C16.8632 10.3324 17.0451 10.3945 17.2526 10.3945C17.5472 10.3945 17.8091 10.2853 18.0384 10.0668C18.2678 9.84867 18.384 9.594 18.384 9.29907C18.1659 9.12813 17.8638 9.04093 17.4744 9.04093C17.1907 9.04093 16.9542 9.11 16.7651 9.24467C16.572 9.38653 16.4774 9.55747 16.4774 9.75773ZM22.8486 7.17773L20.5198 12.534H19.7992L20.6654 10.6601L19.1299 7.17773H19.8904L20.9966 9.84867H21.011L22.0883 7.17773H22.8486Z" fill="#3C4043"/>
<path d="M9.92136 8.25383C9.92136 8.0261 9.90109 7.80823 9.86323 7.59863H6.93469V8.79943H8.62136C8.58896 8.99499 8.51667 9.1818 8.40901 9.34823C8.30134 9.51467 8.16058 9.65718 7.99549 9.7669V10.5458H8.99923C9.58563 10.0034 9.92136 9.2013 9.92136 8.25383Z" fill="#4285F4"/>
<path d="M7.99579 9.7673C7.71632 9.95583 7.35632 10.066 6.93552 10.066C6.12219 10.066 5.43233 9.51796 5.18512 8.7793H4.14966V9.58276C4.40927 10.099 4.80727 10.5329 5.29921 10.8361C5.79115 11.1393 6.35767 11.2997 6.93552 11.2996C7.77739 11.2996 8.48486 11.0228 8.99953 10.546L7.99579 9.7673Z" fill="#34A853"/>
<path d="M5.08778 8.18391C5.08778 7.97645 5.12245 7.77591 5.18512 7.58765V6.78418H4.14965C3.93067 7.21831 3.81711 7.69795 3.81818 8.18418C3.81818 8.68738 3.93792 9.16285 4.14965 9.58365L5.18512 8.78018C5.12051 8.58803 5.08764 8.38664 5.08778 8.18391Z" fill="#FABB05"/>
<path d="M6.93552 6.30001C7.39499 6.30001 7.80646 6.45814 8.13152 6.76747L9.02112 5.87867C8.48086 5.37547 7.77632 5.06641 6.93552 5.06641C5.71766 5.06641 4.66272 5.76507 4.14966 6.78321L5.18512 7.58667C5.43232 6.84801 6.12219 6.30001 6.93552 6.30001Z" fill="#E94235"/>
</g>
<defs>
<clipPath id="clip0_6324_14155">
<rect width="26.6667" height="16" rx="3" fill="white"/>
</clipPath>
</defs>
</svg>
