<svg width="105" height="105" viewBox="0 0 105 105" fill="none" xmlns="http://www.w3.org/2000/svg">
<g clip-path="url(#clip0_5076_14720)">
<path d="M28.4375 74.375H76.5625" stroke="#38312C" stroke-width="8" stroke-linecap="round" stroke-linejoin="round"/>
<path d="M26.25 87.5V78.75C26.25 71.7881 29.0156 65.1113 33.9384 60.1884C38.8613 55.2656 45.5381 52.5 52.5 52.5C59.4619 52.5 66.1387 55.2656 71.0616 60.1884C75.9844 65.1113 78.75 71.7881 78.75 78.75V87.5C78.75 88.6603 78.2891 89.7731 77.4686 90.5936C76.6481 91.4141 75.5353 91.875 74.375 91.875H30.625C29.4647 91.875 28.3519 91.4141 27.5314 90.5936C26.7109 89.7731 26.25 88.6603 26.25 87.5Z" stroke="#38312C" stroke-width="8" stroke-linecap="round" stroke-linejoin="round"/>
<path d="M26.25 17.5V26.25C26.25 33.2119 29.0156 39.8887 33.9384 44.8116C38.8613 49.7344 45.5381 52.5 52.5 52.5C59.4619 52.5 66.1387 49.7344 71.0616 44.8116C75.9844 39.8887 78.75 33.2119 78.75 26.25V17.5C78.75 16.3397 78.2891 15.2269 77.4686 14.4064C76.6481 13.5859 75.5353 13.125 74.375 13.125H30.625C29.4647 13.125 28.3519 13.5859 27.5314 14.4064C26.7109 15.2269 26.25 16.3397 26.25 17.5Z" stroke="#38312C" stroke-width="8" stroke-linecap="round" stroke-linejoin="round"/>
</g>
<defs>
<clipPath id="clip0_5076_14720">
<rect width="105" height="105" fill="white"/>
</clipPath>
</defs>
</svg>
