<svg width="47" height="90" viewBox="0 0 47 90" fill="none" xmlns="http://www.w3.org/2000/svg">
<path d="M22.8099 21.6536C27.6899 21.6536 31.6459 17.6855 31.6459 12.7907C31.6459 7.89589 27.6899 3.92786 22.8099 3.92786C17.9299 3.92786 13.9739 7.89589 13.9739 12.7907C13.9739 17.6855 17.9299 21.6536 22.8099 21.6536Z" fill="#38312C"/>
<path d="M39.5398 24.0375V23.9946H7.88317V24.0236C6.78506 24.0238 5.73159 24.4595 4.95241 25.2356C4.17324 26.0117 3.73156 27.0654 3.72366 28.1668H3.72046V53.28H3.76212C3.76212 53.7692 3.85819 54.2536 4.04483 54.7056C4.23148 55.1576 4.50506 55.5683 4.84994 55.9142C5.19483 56.2601 5.60426 56.5346 6.05488 56.7218C6.50549 56.909 6.98845 57.0053 7.47619 57.0053C7.96393 57.0053 8.44689 56.909 8.8975 56.7218C9.34811 56.5346 9.75755 56.2601 10.1024 55.9142C10.4473 55.5683 10.7209 55.1576 10.9075 54.7056C11.0942 54.2536 11.1903 53.7692 11.1903 53.28H11.1988V35.7482H11.2084C11.2195 35.4425 11.3481 35.153 11.5674 34.9405C11.7867 34.7279 12.0795 34.6088 12.3845 34.6082C13.0233 34.6082 13.536 35.115 13.5627 35.7482H13.5723V81.7178C13.573 82.8738 14.0315 83.9821 14.8469 84.799C15.6623 85.6159 16.7679 86.0745 17.9203 86.0737C19.0728 86.073 20.1778 85.6131 20.9922 84.7953C21.8066 83.9774 22.2637 82.8685 22.263 81.7125V58.5653H22.2951C22.2903 58.4038 22.3179 58.243 22.3762 58.0923C22.4345 57.9417 22.5223 57.8043 22.6346 57.6884C22.7468 57.5724 22.881 57.4802 23.0294 57.4173C23.1778 57.3543 23.3373 57.3219 23.4984 57.3219C23.6595 57.3219 23.819 57.3543 23.9673 57.4173C24.1157 57.4802 24.25 57.5724 24.3622 57.6884C24.4744 57.8043 24.5623 57.9417 24.6206 58.0923C24.6789 58.243 24.7065 58.4038 24.7017 58.5653H24.7327V81.7125C24.7634 82.8481 25.2348 83.9269 26.0464 84.7192C26.8581 85.5115 27.946 85.9548 29.0786 85.9548C30.2112 85.9548 31.299 85.5115 32.1107 84.7192C32.9224 83.9269 33.3937 82.8481 33.4245 81.7125V35.7493C33.4245 35.4336 33.5495 35.1308 33.7721 34.9076C33.9946 34.6843 34.2965 34.5589 34.6112 34.5589C34.926 34.5589 35.2278 34.6843 35.4504 34.9076C35.6729 35.1308 35.798 35.4336 35.798 35.7493V53.2811H35.8386C35.8386 54.2694 36.23 55.2172 36.9267 55.916C37.6234 56.6149 38.5684 57.0075 39.5537 57.0075C40.539 57.0075 41.484 56.6149 42.1807 55.916C42.8774 55.2172 43.2688 54.2694 43.2688 53.2811H43.2763V28.1668C43.2784 26.0078 41.6366 24.2528 39.5398 24.0375Z" fill="#38312C"/>
</svg>
