<svg width="21" height="17" viewBox="0 0 21 17" fill="none" xmlns="http://www.w3.org/2000/svg">
<g clip-path="url(#clip0_6133_2368)">
<path d="M3.74546 15.9207V14.8617C3.74546 14.4557 3.49831 14.191 3.07467 14.191C2.86289 14.191 2.63342 14.2616 2.47455 14.4911C2.35105 14.2969 2.17457 14.191 1.90981 14.191C1.73324 14.191 1.55684 14.2439 1.41558 14.4381V14.2263H1.04492V15.9207H1.41558V14.9852C1.41558 14.6852 1.57445 14.544 1.82161 14.544C2.0686 14.544 2.19226 14.7028 2.19226 14.9852V15.9207H2.56291V14.9852C2.56291 14.6852 2.73931 14.544 2.96878 14.544C3.21594 14.544 3.33943 14.7028 3.33943 14.9852V15.9207H3.74546ZM9.23459 14.2263H8.63455V13.7145H8.2639V14.2263H7.92854V14.5616H8.26382V15.3383C8.26382 15.7266 8.42269 15.956 8.84633 15.956C9.0052 15.956 9.18161 15.9031 9.30526 15.8325L9.19929 15.5147C9.0934 15.5853 8.96991 15.603 8.88162 15.603C8.70514 15.603 8.63455 15.4971 8.63455 15.3206V14.5616H9.23459V14.2263ZM12.3764 14.1909C12.1646 14.1909 12.0234 14.2969 11.9351 14.4381V14.2263H11.5645V15.9207H11.9351V14.9676C11.9351 14.6852 12.0586 14.5264 12.2881 14.5264C12.3587 14.5264 12.447 14.544 12.5176 14.5617L12.6235 14.2087C12.5529 14.191 12.447 14.191 12.3764 14.191M7.62848 14.3676C7.45192 14.244 7.20484 14.1911 6.94008 14.1911C6.51652 14.1911 6.23415 14.4029 6.23415 14.7382C6.23415 15.0207 6.44593 15.1795 6.81658 15.2324L6.99306 15.2501C7.18723 15.2854 7.29312 15.3383 7.29312 15.4266C7.29312 15.5501 7.15194 15.6384 6.90478 15.6384C6.65763 15.6384 6.46353 15.5501 6.33996 15.4619L6.16347 15.7443C6.35765 15.8855 6.62241 15.9561 6.88709 15.9561C7.38132 15.9561 7.66378 15.7267 7.66378 15.4089C7.66378 15.1089 7.43431 14.95 7.08126 14.8971L6.90478 14.8794C6.74591 14.8617 6.62241 14.8265 6.62241 14.7206C6.62241 14.597 6.74591 14.5264 6.94008 14.5264C7.15194 14.5264 7.36372 14.6146 7.4696 14.6676L7.62848 14.3676ZM17.4773 14.1911C17.2655 14.1911 17.1243 14.297 17.036 14.4382V14.2264H16.6653V15.9208H17.036V14.9677C17.036 14.6853 17.1596 14.5264 17.389 14.5264C17.4596 14.5264 17.5479 14.5441 17.6185 14.5617L17.7244 14.2088C17.6538 14.1911 17.5479 14.1911 17.4773 14.1911ZM12.747 15.0736C12.747 15.5854 13.1 15.9561 13.6472 15.9561C13.8943 15.9561 14.0708 15.9032 14.2473 15.762L14.0708 15.4619C13.9296 15.5678 13.7884 15.6207 13.6295 15.6207C13.3295 15.6207 13.1177 15.4089 13.1177 15.0736C13.1177 14.7559 13.3295 14.544 13.6295 14.5264C13.7884 14.5264 13.9296 14.5793 14.0708 14.6853L14.2473 14.3853C14.0708 14.244 13.8943 14.1911 13.6472 14.1911C13.1 14.1911 12.747 14.5617 12.747 15.0736ZM16.1712 15.0736V14.2264H15.8005V14.4382C15.677 14.2794 15.5005 14.1911 15.271 14.1911C14.7945 14.1911 14.4238 14.5617 14.4238 15.0736C14.4238 15.5854 14.7945 15.9561 15.271 15.9561C15.5181 15.9561 15.6947 15.8679 15.8005 15.709V15.9208H16.1712V15.0736ZM14.8121 15.0736C14.8121 14.7735 15.0062 14.5264 15.3239 14.5264C15.624 14.5264 15.8358 14.7559 15.8358 15.0736C15.8358 15.3736 15.624 15.6207 15.3239 15.6207C15.0062 15.603 14.8121 15.3736 14.8121 15.0736ZM10.3819 14.1911C9.8877 14.1911 9.53465 14.544 9.53465 15.0736C9.53465 15.6031 9.88762 15.9561 10.3995 15.9561C10.6466 15.9561 10.8938 15.8855 11.0879 15.7267L10.9114 15.4619C10.7702 15.5678 10.5937 15.6384 10.4172 15.6384C10.1878 15.6384 9.95829 15.5325 9.9053 15.2324H11.1585V15.0913C11.1762 14.544 10.8586 14.1911 10.3819 14.1911ZM10.3818 14.5087C10.6112 14.5087 10.7702 14.65 10.8054 14.9148H9.92291C9.95821 14.6853 10.1171 14.5087 10.3818 14.5087ZM19.5776 15.0736V13.5557H19.2069V14.4382C19.0834 14.2794 18.9069 14.1911 18.6774 14.1911C18.2009 14.1911 17.8302 14.5617 17.8302 15.0736C17.8302 15.5854 18.2009 15.9561 18.6774 15.9561C18.9246 15.9561 19.101 15.8679 19.2069 15.709V15.9208H19.5776V15.0736ZM18.2185 15.0736C18.2185 14.7735 18.4126 14.5264 18.7304 14.5264C19.0304 14.5264 19.2422 14.7559 19.2422 15.0736C19.2422 15.3736 19.0304 15.6207 18.7304 15.6207C18.4126 15.603 18.2185 15.3736 18.2185 15.0736ZM5.82804 15.0736V14.2264H5.45738V14.4382C5.33381 14.2794 5.15732 14.1911 4.92786 14.1911C4.45131 14.1911 4.08066 14.5617 4.08066 15.0736C4.08066 15.5854 4.45131 15.9561 4.92786 15.9561C5.17501 15.9561 5.35149 15.8679 5.45738 15.709V15.9208H5.82804V15.0736ZM4.45131 15.0736C4.45131 14.7735 4.64548 14.5264 4.96315 14.5264C5.26321 14.5264 5.47507 14.7559 5.47507 15.0736C5.47507 15.3736 5.26321 15.6207 4.96315 15.6207C4.64548 15.603 4.45131 15.3736 4.45131 15.0736Z" fill="black"/>
<path d="M7.50488 1.35938H13.0647V11.3494H7.50488V1.35938Z" fill="#FF5F00"/>
<path d="M7.85793 6.35409C7.85793 4.32434 8.81102 2.52398 10.2759 1.35904C9.19936 0.511839 7.84032 0 6.35771 0C2.84519 0 0.00354004 2.84165 0.00354004 6.35409C0.00354004 9.86653 2.84519 12.7082 6.35763 12.7082C7.84024 12.7082 9.19928 12.1963 10.2759 11.3491C8.81102 10.2018 7.85793 8.38384 7.85793 6.35409Z" fill="#EB001B"/>
<path d="M20.566 6.35409C20.566 9.86645 17.7244 12.7082 14.212 12.7082C12.7293 12.7082 11.3703 12.1963 10.2936 11.3491C11.7763 10.1842 12.7117 8.38384 12.7117 6.35409C12.7117 4.32434 11.7586 2.52398 10.2936 1.35904C11.3702 0.511839 12.7293 0 14.212 0C17.7244 0 20.566 2.85934 20.566 6.35409Z" fill="#F79E1B"/>
</g>
<defs>
<clipPath id="clip0_6133_2368">
<rect width="20.59" height="16.0144" fill="white"/>
</clipPath>
</defs>
</svg>
