<svg width="105" height="99" viewBox="0 0 105 99" fill="none" xmlns="http://www.w3.org/2000/svg">
<path d="M39.4567 25.4226L44.2253 29.3903L55.4987 17.5777L45.8149 5.4259L20.4611 16.7299L7.5982 68.2872C7.5982 68.2872 6.0312 73.9391 10.3263 76.833C10.3263 76.8669 32.129 92.5568 41.7114 93.1898C41.7114 93.1898 58.4748 93.5063 68.2376 90.4316C68.2376 90.4316 78.1017 97.214 94.3354 95.2132" stroke="#38312C" stroke-width="3" stroke-linecap="round" stroke-linejoin="round"/>
<path d="M31.3398 27.6834C31.3398 27.6834 37.0667 27.8417 41.0462 24.0887" stroke="#38312C" stroke-width="3" stroke-linecap="round" stroke-linejoin="round"/>
<path d="M34.2261 27.6495V56.4067" stroke="#38312C" stroke-width="3" stroke-linecap="round" stroke-linejoin="round"/>
<path d="M66.7496 65.5629C66.7496 65.5629 62.7701 50.9808 48.2049 51.2182C48.2049 51.2182 37.0668 51.2973 32.208 63.5056" stroke="#38312C" stroke-width="3" stroke-linecap="round" stroke-linejoin="round"/>
<path d="M61.2817 56.4067C61.2817 56.4067 65.9489 46.9905 79.4769 46.674C79.4769 46.674 86.534 45.8714 94.3014 52.6538" stroke="#38312C" stroke-width="3" stroke-linecap="round" stroke-linejoin="round"/>
<path d="M83.062 74.5156C83.062 74.5156 84.381 80.1676 94.3354 79.9415" stroke="#38312C" stroke-width="3" stroke-linecap="round" stroke-linejoin="round"/>
<path d="M56.7954 83.9319C56.7954 83.9319 37.766 91.4151 24.3281 73.2496" stroke="#38312C" stroke-width="3" stroke-linecap="round" stroke-linejoin="round"/>
<path d="M74.4605 19.1489H68.418L80.6721 3.18774L93.2419 19.1489H87.0415V24.6539H74.4605V19.1489Z" stroke="#38312C" stroke-width="3" stroke-linecap="round" stroke-linejoin="round"/>
<path d="M87.1881 29.8424H74.4604V34.6353H87.1881V29.8424Z" stroke="#38312C" stroke-width="3" stroke-linecap="round" stroke-linejoin="round"/>
<path d="M73.5137 39.4169H87.9887" stroke="#38312C" stroke-width="3" stroke-linecap="round" stroke-linejoin="round"/>
</svg>
