<svg width="105" height="99" viewBox="0 0 105 99" fill="none" xmlns="http://www.w3.org/2000/svg">
<path d="M44.2704 79.5234C44.2704 79.5234 42.6808 72.9784 39.017 72.0175C39.017 72.0175 32.1741 67.3942 31.7006 62.2848L28.8371 57.5259C28.8371 57.5259 25.6468 53.8521 30.438 52.6426C30.438 52.6426 27.5633 49.3531 27.8 47.7593C29.3332 46.277 31.1513 45.1231 33.1436 44.3681C35.8492 43.5655 40.7756 39.2587 40.7756 39.2587C40.7756 39.2587 46.3447 30.8485 55.5775 40.4795" stroke="#38312C" stroke-width="3" stroke-linecap="round" stroke-linejoin="round"/>
<path d="M64.0099 43.6107C63.8311 40.7854 62.7701 38.0883 60.9774 35.9014L53.8188 13.1352C53.8188 13.1352 51.7445 6.11545 46.3333 9.30317C46.3333 9.30317 43.312 10.7388 44.4281 16.9672L51.5416 37.303" stroke="#38312C" stroke-width="3" stroke-linecap="round" stroke-linejoin="round"/>
<path d="M74.9903 78.3477L77.245 69.621V35.9013C77.245 35.9013 77.5719 28.6103 74.2237 28.6103C74.2237 28.6103 68.0121 27.333 69.286 36.7491L70.5599 49.1835" stroke="#38312C" stroke-width="3" stroke-linecap="round" stroke-linejoin="round"/>
<path d="M66.231 79.5233H77.2225V90.5334H42.9966V79.5233H52.9171" stroke="#38312C" stroke-width="3" stroke-linecap="round" stroke-linejoin="round"/>
<path d="M36.3115 52.6425L44.9018 45.8489L52.9172 52.6425L44.9018 59.8884L36.3115 52.6425Z" stroke="#38312C" stroke-width="3" stroke-linecap="round" stroke-linejoin="round"/>
<path d="M30.4268 52.6425H36.3114" stroke="#38312C" stroke-width="2.63" stroke-linecap="round" stroke-linejoin="round"/>
<path d="M69 34.5L67.3922 19.0923C67.3922 19.0923 66.434 15.0455 63.4691 14.8308C63.4691 14.8308 58.5877 14.5708 58.3735 20.6862L58.7117 28.599" stroke="#38312C" stroke-width="3" stroke-linecap="round" stroke-linejoin="round"/>
</svg>
