<svg width="105" height="105" viewBox="0 0 105 105" fill="none" xmlns="http://www.w3.org/2000/svg">
<g clip-path="url(#clip0_5076_11482)">
<path d="M21.875 91.875V21.875C21.875 19.5544 22.7969 17.3288 24.4378 15.6878C26.0788 14.0469 28.3044 13.125 30.625 13.125H74.375C76.6956 13.125 78.9212 14.0469 80.5622 15.6878C82.2031 17.3288 83.125 19.5544 83.125 21.875V91.875L70 83.125L61.25 91.875L52.5 83.125L43.75 91.875L35 83.125L21.875 91.875Z" stroke="#38312C" stroke-width="8" stroke-linecap="round" stroke-linejoin="round"/>
<path d="M61.25 35H50.3125C48.572 35 46.9028 35.6914 45.6721 36.9221C44.4414 38.1528 43.75 39.822 43.75 41.5625C43.75 43.303 44.4414 44.9722 45.6721 46.2029C46.9028 47.4336 48.572 48.125 50.3125 48.125H54.6875C56.428 48.125 58.0972 48.8164 59.3279 50.0471C60.5586 51.2778 61.25 52.947 61.25 54.6875C61.25 56.428 60.5586 58.0972 59.3279 59.3279C58.0972 60.5586 56.428 61.25 54.6875 61.25H43.75M52.5 61.25V67.8125M52.5 28.4375V35" stroke="#38312C" stroke-width="8" stroke-linecap="round" stroke-linejoin="round"/>
</g>
<defs>
<clipPath id="clip0_5076_11482">
<rect width="105" height="105" fill="white"/>
</clipPath>
</defs>
</svg>
