<svg width="105" height="105" viewBox="0 0 105 105" fill="none" xmlns="http://www.w3.org/2000/svg">
<g clip-path="url(#clip0_5076_11649)">
<path d="M52.5 91.875C74.2462 91.875 91.875 74.2462 91.875 52.5C91.875 30.7538 74.2462 13.125 52.5 13.125C30.7538 13.125 13.125 30.7538 13.125 52.5C13.125 74.2462 30.7538 91.875 52.5 91.875Z" stroke="#38312C" stroke-width="8" stroke-linecap="round" stroke-linejoin="round"/>
<path d="M39.375 43.75H39.4188" stroke="#38312C" stroke-width="8" stroke-linecap="round" stroke-linejoin="round"/>
<path d="M65.625 43.75H65.6688" stroke="#38312C" stroke-width="8" stroke-linecap="round" stroke-linejoin="round"/>
<path d="M41.5625 65.625C42.9882 67.0801 44.69 68.2361 46.5681 69.0253C48.4461 69.8145 50.4628 70.221 52.5 70.221C54.5372 70.221 56.5539 69.8145 58.4319 69.0253C60.31 68.2361 62.0118 67.0801 63.4375 65.625" stroke="#38312C" stroke-width="8" stroke-linecap="round" stroke-linejoin="round"/>
</g>
<defs>
<clipPath id="clip0_5076_11649">
<rect width="105" height="105" fill="white"/>
</clipPath>
</defs>
</svg>
