<svg width="20" height="20" viewBox="0 0 20 20" fill="none" xmlns="http://www.w3.org/2000/svg">
<mask id="mask0_6133_2392" style="mask-type:alpha" maskUnits="userSpaceOnUse" x="0" y="0" width="20" height="20">
<rect width="20" height="20" fill="#D9D9D9"/>
</mask>
<g mask="url(#mask0_6133_2392)">
<path d="M4.87 15.6318C4.21945 15.6318 3.66715 15.4043 3.21313 14.9493C2.7591 14.4943 2.53209 13.9419 2.53209 13.292H1.95834C1.76861 13.292 1.60952 13.2278 1.48104 13.0995C1.35271 12.971 1.28854 12.8119 1.28854 12.6222V5.25678C1.28854 4.88164 1.41806 4.56456 1.67709 4.30553C1.93611 4.04651 2.25313 3.91699 2.62813 3.91699H12.4679C12.8364 3.91699 13.1518 4.04817 13.4142 4.31053C13.6765 4.5729 13.8077 4.88831 13.8077 5.25678V6.75678H15.3285C15.5422 6.75678 15.7445 6.80664 15.9356 6.90637C16.1267 7.00609 16.2913 7.14317 16.4294 7.31762L18.5817 10.3657C18.6181 10.4285 18.6488 10.49 18.674 10.5503C18.699 10.6106 18.7115 10.6759 18.7115 10.7462V12.6222C18.7115 12.8119 18.6473 12.971 18.519 13.0995C18.3905 13.2278 18.2314 13.292 18.0417 13.292H17.3719C17.3719 13.9419 17.1442 14.4943 16.6888 14.9493C16.2335 15.4043 15.6806 15.6318 15.0302 15.6318C14.3798 15.6318 13.8275 15.4043 13.3733 14.9493C12.9193 14.4943 12.6923 13.9419 12.6923 13.292H7.21146C7.21146 13.9437 6.98382 14.4965 6.52854 14.9505C6.07327 15.4047 5.52042 15.6318 4.87 15.6318ZM4.87188 14.5485C5.22465 14.5485 5.52222 14.4272 5.76459 14.1847C6.00695 13.9423 6.12813 13.6448 6.12813 13.292C6.12813 12.9392 6.00695 12.6416 5.76459 12.3991C5.52222 12.1567 5.22465 12.0355 4.87188 12.0355C4.5191 12.0355 4.22146 12.1567 3.97896 12.3991C3.7366 12.6416 3.61542 12.9392 3.61542 13.292C3.61542 13.6448 3.7366 13.9423 3.97896 14.1847C4.22146 14.4272 4.5191 14.5485 4.87188 14.5485ZM2.37188 12.2087H2.80771C2.98507 11.8305 3.26202 11.5265 3.63854 11.2968C4.01521 11.0671 4.42632 10.9522 4.87188 10.9522C5.3066 10.9522 5.71493 11.0657 6.09688 11.2928C6.47882 11.5199 6.75521 11.8252 6.92604 12.2087H12.7244V5.25678C12.7244 5.18192 12.7003 5.12046 12.6523 5.07241C12.6042 5.02435 12.5428 5.00033 12.4679 5.00033H2.62813C2.5641 5.00033 2.50535 5.02706 2.45188 5.08053C2.39854 5.13387 2.37188 5.19262 2.37188 5.25678V12.2087ZM15.0321 14.5485C15.3849 14.5485 15.6824 14.4272 15.9248 14.1847C16.1673 13.9423 16.2885 13.6448 16.2885 13.292C16.2885 12.9392 16.1673 12.6416 15.9248 12.3991C15.6824 12.1567 15.3849 12.0355 15.0321 12.0355C14.6793 12.0355 14.3817 12.1567 14.1392 12.3991C13.8968 12.6416 13.7756 12.9392 13.7756 13.292C13.7756 13.6448 13.8968 13.9423 14.1392 14.1847C14.3817 14.4272 14.6793 14.5485 15.0321 14.5485ZM13.8077 10.7087H17.5L15.5208 7.94428C15.4942 7.9122 15.4635 7.88678 15.4288 7.86803C15.394 7.84942 15.3553 7.84012 15.3125 7.84012H13.8077V10.7087Z" fill="#1C1B1F"/>
</g>
</svg>
