<svg width="20" height="20" viewBox="0 0 20 20" fill="none" xmlns="http://www.w3.org/2000/svg">
<mask id="mask0_6133_2397" style="mask-type:alpha" maskUnits="userSpaceOnUse" x="0" y="0" width="20" height="20">
<rect width="20" height="20" fill="#D9D9D9"/>
</mask>
<g mask="url(#mask0_6133_2397)">
<path d="M5.70833 13.7913H4.29166C3.98069 13.7913 3.72236 13.6886 3.51666 13.483C3.31111 13.2773 3.20833 13.019 3.20833 12.708V6.29134H2.99999C2.85069 6.29134 2.72312 6.23981 2.61729 6.13676C2.51131 6.0337 2.45833 5.90606 2.45833 5.75384C2.45833 5.60148 2.51027 5.47245 2.61416 5.36676C2.71791 5.26092 2.84652 5.20801 2.99999 5.20801H5.70833V3.29134H4.99999C4.84652 3.29134 4.71791 3.23981 4.61416 3.13676C4.51027 3.0337 4.45833 2.90606 4.45833 2.75384C4.45833 2.60148 4.51027 2.47245 4.61416 2.36676C4.71791 2.26092 4.84652 2.20801 4.99999 2.20801H7.5C7.65347 2.20801 7.78208 2.25954 7.88583 2.36259C7.98972 2.46565 8.04166 2.59329 8.04166 2.74551C8.04166 2.89787 7.98972 3.0269 7.88583 3.13259C7.78208 3.23842 7.65347 3.29134 7.5 3.29134H6.79166V5.20801H9.5C9.65347 5.20801 9.78208 5.25954 9.88583 5.36259C9.98972 5.46565 10.0417 5.59329 10.0417 5.74551C10.0417 5.89787 9.98972 6.0269 9.88583 6.13259C9.78208 6.23842 9.65347 6.29134 9.5 6.29134H9.29166V12.708C9.29166 13.019 9.18888 13.2773 8.98333 13.483C8.77763 13.6886 8.5193 13.7913 8.20833 13.7913H6.79166V17.5413C6.79166 17.6948 6.74013 17.8234 6.63708 17.9272C6.53402 18.0311 6.40638 18.083 6.25416 18.083C6.1018 18.083 5.97277 18.0311 5.86708 17.9272C5.76125 17.8234 5.70833 17.6948 5.70833 17.5413V13.7913ZM4.29166 12.708H8.20833V10.8715H6.5C6.40083 10.8715 6.31409 10.8343 6.23979 10.7599C6.16534 10.6856 6.12812 10.5988 6.12812 10.4997C6.12812 10.4005 6.16534 10.3138 6.23979 10.2395C6.31409 10.165 6.40083 10.1278 6.5 10.1278H8.20833V8.87155H6.5C6.40083 8.87155 6.31409 8.83433 6.23979 8.75988C6.16534 8.68558 6.12812 8.59884 6.12812 8.49967C6.12812 8.40051 6.16534 8.31377 6.23979 8.23947C6.31409 8.16502 6.40083 8.1278 6.5 8.1278H8.20833V6.29134H4.29166V12.708ZM11.7917 17.7913C11.4807 17.7913 11.2224 17.6886 11.0167 17.483C10.8111 17.2773 10.7083 17.019 10.7083 16.708V11.4997C10.7083 11.1826 10.7719 10.8686 10.899 10.5576C11.0262 10.2465 11.187 9.96433 11.3815 9.71113C11.501 9.57447 11.6271 9.42842 11.7596 9.27301C11.8921 9.11745 11.9583 8.92912 11.9583 8.70801V8.29134H11.75C11.6007 8.29134 11.4731 8.23981 11.3673 8.13676C11.2613 8.0337 11.2083 7.90606 11.2083 7.75384C11.2083 7.60148 11.2603 7.47245 11.3642 7.36676C11.4679 7.26092 11.5965 7.20801 11.75 7.20801H15.75C15.9035 7.20801 16.0321 7.25954 16.1358 7.36259C16.2397 7.46565 16.2917 7.59329 16.2917 7.74551C16.2917 7.89787 16.2397 8.0269 16.1358 8.13259C16.0321 8.23842 15.9035 8.29134 15.75 8.29134H15.5417V8.70801C15.5417 8.94301 15.6121 9.13079 15.7531 9.27134C15.8942 9.41176 16.0219 9.55731 16.1362 9.70801C16.3307 9.94731 16.4885 10.1941 16.6098 10.4484C16.731 10.7027 16.7917 10.9688 16.7917 11.2468V16.708C16.7917 17.019 16.6889 17.2773 16.4833 17.483C16.2776 17.6886 16.0193 17.7913 15.7083 17.7913H11.7917ZM11.7917 12.1278H15.7083V11.4997C15.7083 11.2315 15.6389 10.9922 15.5 10.7818C15.3611 10.5712 15.2099 10.3661 15.0465 10.1663C14.8419 9.9287 14.6927 9.71676 14.599 9.53051C14.5052 9.3444 14.4583 9.16745 14.4583 8.99967V8.29134H13.0417V8.99967C13.0417 9.12954 12.9965 9.2771 12.9062 9.44238C12.816 9.60766 12.6693 9.8169 12.4662 10.0701C12.3028 10.27 12.1495 10.4842 12.0065 10.7128C11.8633 10.9414 11.7917 11.2037 11.7917 11.4997V12.1278ZM11.7917 14.1278H15.7083V12.8715H11.7917V14.1278ZM11.7917 16.708H15.7083V14.8715H11.7917V16.708Z" fill="#1C1B1F"/>
</g>
</svg>
