<svg width="22" height="17" viewBox="0 0 22 17" fill="none" xmlns="http://www.w3.org/2000/svg">
<g clip-path="url(#clip0_6133_2364)">
<path d="M19.9375 16.6971H2.0625C0.92125 16.6971 0 15.7818 0 14.6479V2.35331C0 1.21947 0.92125 0.304199 2.0625 0.304199H19.9375C21.0788 0.304199 22 1.21947 22 2.35331V14.6479C22 15.7818 21.0788 16.6971 19.9375 16.6971ZM2.0625 1.67027C1.6775 1.67027 1.375 1.97081 1.375 2.35331V14.6479C1.375 15.0304 1.6775 15.331 2.0625 15.331H19.9375C20.3225 15.331 20.625 15.0304 20.625 14.6479V2.35331C20.625 1.97081 20.3225 1.67027 19.9375 1.67027H2.0625Z" fill="#1434CB"/>
<path d="M18.1361 6.3554H17.1048C16.7886 6.3554 16.5548 6.45103 16.4036 6.76522L14.4236 11.2459H15.8261C15.8261 11.2459 16.0736 10.6449 16.1148 10.5083H17.8336C17.8886 10.6722 17.9986 11.2323 17.9986 11.2323H19.2498L18.1361 6.36906V6.3554ZM16.4998 9.49737C16.6236 9.21049 17.0361 8.13129 17.0361 8.13129C17.0361 8.15862 17.1598 7.84442 17.2011 7.68049L17.2973 8.11763L17.6136 9.53835H16.4998V9.51103V9.49737ZM14.5198 9.63397C14.5198 10.6449 13.5986 11.3142 12.1823 11.3142C11.5773 11.3142 10.9998 11.1913 10.6836 11.0547L10.8761 9.94817L11.0411 10.0165C11.4811 10.2077 11.7698 10.276 12.2923 10.276C12.6773 10.276 13.0898 10.1258 13.0898 9.7979C13.0898 9.57933 12.9248 9.44272 12.3886 9.19683C11.8798 8.95094 11.2061 8.56844 11.2061 7.8854C11.2061 6.92915 12.1411 6.27344 13.4748 6.27344C13.9836 6.27344 14.4098 6.36906 14.6848 6.49201L14.4923 7.54388L14.3961 7.44826C14.1486 7.35263 13.8461 7.25701 13.3786 7.25701C12.8698 7.28433 12.6361 7.5029 12.6361 7.69415C12.6361 7.91272 12.9248 8.07665 13.3786 8.29522C14.1486 8.6504 14.5061 9.06022 14.5061 9.63397H14.5198ZM2.74985 6.39638L2.77735 6.30076H4.8536C5.14235 6.30076 5.36235 6.39638 5.4311 6.71058L5.88485 8.86897C5.4311 7.72147 4.3586 6.77888 2.74985 6.39638Z" fill="#1434CB"/>
<path d="M8.80004 6.35545L6.69629 11.2187H5.26629L4.05629 7.14777C4.92254 7.6942 5.65129 8.56848 5.91254 9.15589L6.06379 9.66134L7.37004 6.32812H8.80004V6.35545ZM9.36379 6.32812H10.6838L9.84504 11.2187H8.52504L9.36379 6.32812Z" fill="#1434CB"/>
</g>
<defs>
<clipPath id="clip0_6133_2364">
<rect width="22" height="17" fill="white"/>
</clipPath>
</defs>
</svg>
